  0
SECTION
  2
HEADER
  9
$ACADVER
  1
AC1006
  0
ENDSEC
  0
SECTION
  2
TABLES
  0
TABLE
  2
LTYPE
 70
    9
  0
LTYPE
  2
CONTINUOUS
 70
   64
  3
SOLID
 72
   65
 73
    0
 40
0.0
  0
LTYPE
  2
DASHED
 70
   64
  3
_ _ _ _ _ _ _ _ _ _ _ _ _ _ _ _ _ _ _ _ _ _ _
 72
   65
 73
    2
 40
4.0
 49
3.0
 49
-1.0
  0
LTYPE
  2
DOT
 70
   64
  3
...............................................
 72
   65
 73
    2
 40
2.0
 49
1.0
 49
-1.0
  0
LTYPE
  2
DASHDOT
 70
   64
  3
____ _ ____ _ ____ _ ____ _ ____ _ ____ _ ____
 72
   65
 73
    4
 40
8.0
 49
5.0
 49
-1.0
 49
1.0
 49
-1.0
  0
LTYPE
  2
DIVIDE
 70
   64
  3
_____ _ _ _____ _ _ _____ _ _ _____ _ _ ____
 72
   65
 73
    6
 40
10.0
 49
5.0
 49
-1.0
 49
1.0
 49
-1.0
 49
1.0
 49
-1.0
  0
ENDTAB
  0
TABLE
  2
LAYER
 70
    2
  0
LAYER
  2
NULL
 70
   64
 62
    7
  6
CONTINUOUS
  0
LAYER
  2
Layer0
 70
   64
 62
    7
  6
CONTINUOUS
  0
ENDTAB
  0
ENDSEC
  0
SECTION
  2
ENTITIES
  0
LINE
  8
Layer0
  6
CONTINUOUS
 62
8
 10
28.315000000000
 20
35.000000000000
 11
28.315000000000
 21
29.500000000000
  0
LINE
  8
Layer0
  6
CONTINUOUS
 62
8
 10
23.315000000000
 20
34.724610780096
 11
22.912243295913
 21
34.678475710334
  0
LINE
  8
Layer0
  6
CONTINUOUS
 62
8
 10
22.912243295913
 20
34.678475710334
 11
22.427980474495
 21
34.617583012842
  0
LINE
  8
Layer0
  6
CONTINUOUS
 62
8
 10
22.427980474495
 20
34.617583012842
 11
21.945510896253
 21
34.551476133742
  0
LINE
  8
Layer0
  6
CONTINUOUS
 62
8
 10
21.945510896253
 20
34.551476133742
 11
21.464981526095
 21
34.480175209830
  0
LINE
  8
Layer0
  6
CONTINUOUS
 62
8
 10
21.464981526095
 20
34.480175209830
 11
20.986538737922
 21
34.403701960059
  0
LINE
  8
Layer0
  6
CONTINUOUS
 62
8
 10
20.986538737922
 20
34.403701960059
 11
20.510328270042
 21
34.322079678921
  0
LINE
  8
Layer0
  6
CONTINUOUS
 62
8
 10
20.510328270042
 20
34.322079678921
 11
20.036495180776
 21
34.235333229353
  0
LINE
  8
Layer0
  6
CONTINUOUS
 62
8
 10
20.036495180776
 20
34.235333229353
 11
19.565183804273
 21
34.143489035165
  0
LINE
  8
Layer0
  6
CONTINUOUS
 62
8
 10
19.565183804273
 20
34.143489035165
 11
19.096537706546
 21
34.046575072988
  0
LINE
  8
Layer0
  6
CONTINUOUS
 62
8
 10
19.096537706546
 20
34.046575072988
 11
18.630699641734
 21
33.944620863753
  0
LINE
  8
Layer0
  6
CONTINUOUS
 62
8
 10
18.630699641734
 20
33.944620863753
 11
18.167811508625
 21
33.837657463701
  0
LINE
  8
Layer0
  6
CONTINUOUS
 62
8
 10
18.167811508625
 20
33.837657463701
 11
17.708014307428
 21
33.725717454919
  0
LINE
  8
Layer0
  6
CONTINUOUS
 62
8
 10
17.708014307428
 20
33.725717454919
 11
17.251448096826
 21
33.608834935418
  0
LINE
  8
Layer0
  6
CONTINUOUS
 62
8
 10
17.251448096826
 20
33.608834935418
 11
16.798251951309
 21
33.487045508746
  0
LINE
  8
Layer0
  6
CONTINUOUS
 62
8
 10
16.798251951309
 20
33.487045508746
 11
16.348563918812
 21
33.360386273141
  0
LINE
  8
Layer0
  6
CONTINUOUS
 62
8
 10
16.348563918812
 20
33.360386273141
 11
15.902520978667
 21
33.228895810235
  0
LINE
  8
Layer0
  6
CONTINUOUS
 62
8
 10
15.902520978667
 20
33.228895810235
 11
15.460258999875
 21
33.092614173296
  0
LINE
  8
Layer0
  6
CONTINUOUS
 62
8
 10
15.460258999875
 20
33.092614173296
 11
15.021912699717
 21
32.951582875031
  0
LINE
  8
Layer0
  6
CONTINUOUS
 62
8
 10
15.021912699717
 20
32.951582875031
 11
14.587615602725
 21
32.805844874939
  0
LINE
  8
Layer0
  6
CONTINUOUS
 62
8
 10
14.587615602725
 20
32.805844874939
 11
14.157500000000
 21
32.655444566228
  0
LINE
  8
Layer0
  6
CONTINUOUS
 62
8
 10
14.157500000000
 20
32.655444566228
 11
13.731696908922
 21
32.500427762287
  0
LINE
  8
Layer0
  6
CONTINUOUS
 62
8
 10
13.731696908922
 20
32.500427762287
 11
13.310336033237
 21
32.340841682737
  0
LINE
  8
Layer0
  6
CONTINUOUS
 62
8
 10
13.310336033237
 20
32.340841682737
 11
12.893545723549
 21
32.176734939045
  0
LINE
  8
Layer0
  6
CONTINUOUS
 62
8
 10
12.893545723549
 20
32.176734939045
 11
12.481452938226
 21
32.008157519713
  0
LINE
  8
Layer0
  6
CONTINUOUS
 62
8
 10
12.481452938226
 20
32.008157519713
 11
12.074183204720
 21
31.835160775057
  0
LINE
  8
Layer0
  6
CONTINUOUS
 62
8
 10
12.074183204720
 20
31.835160775057
 11
11.671860581339
 21
31.657797401562
  0
LINE
  8
Layer0
  6
CONTINUOUS
 62
8
 10
11.671860581339
 20
31.657797401562
 11
11.274607619450
 21
31.476121425828
  0
LINE
  8
Layer0
  6
CONTINUOUS
 62
8
 10
11.274607619450
 20
31.476121425828
 11
10.882545326154
 21
31.290188188118
  0
LINE
  8
Layer0
  6
CONTINUOUS
 62
8
 10
10.882545326154
 20
31.290188188118
 11
10.495793127424
 21
31.100054325497
  0
LINE
  8
Layer0
  6
CONTINUOUS
 62
8
 10
10.495793127424
 20
31.100054325497
 11
10.114468831726
 21
30.905777754582
  0
LINE
  8
Layer0
  6
CONTINUOUS
 62
8
 10
10.114468831726
 20
30.905777754582
 11
9.738688594134
 21
30.707417653899
  0
LINE
  8
Layer0
  6
CONTINUOUS
 62
8
 10
9.738688594134
 20
30.707417653899
 11
9.368566880949
 21
30.505034445854
  0
LINE
  8
Layer0
  6
CONTINUOUS
 62
8
 10
9.368566880949
 20
30.505034445854
 11
9.004216434830
 21
30.298689778336
  0
LINE
  8
Layer0
  6
CONTINUOUS
 62
8
 10
9.004216434830
 20
30.298689778336
 11
8.645748240454
 21
30.088446505926
  0
LINE
  8
Layer0
  6
CONTINUOUS
 62
8
 10
8.645748240454
 20
30.088446505926
 11
8.293271490703
 21
29.874368670765
  0
LINE
  8
Layer0
  6
CONTINUOUS
 62
8
 10
8.293271490703
 20
29.874368670765
 11
7.946893553411
 21
29.656521483032
  0
LINE
  8
Layer0
  6
CONTINUOUS
 62
8
 10
7.946893553411
 20
29.656521483032
 11
7.606719938653
 21
29.434971301094
  0
LINE
  8
Layer0
  6
CONTINUOUS
 62
8
 10
7.606719938653
 20
29.434971301094
 11
7.272854266608
 21
29.209785611280
  0
LINE
  8
Layer0
  6
CONTINUOUS
 62
8
 10
7.272854266608
 20
29.209785611280
 11
6.945398235992
 21
28.981033007334
  0
LINE
  8
Layer0
  6
CONTINUOUS
 62
8
 10
6.945398235992
 20
28.981033007334
 11
6.624451593086
 21
28.748783169514
  0
LINE
  8
Layer0
  6
CONTINUOUS
 62
8
 10
6.624451593086
 20
28.748783169514
 11
6.310112101346
 21
28.513106843372
  0
LINE
  8
Layer0
  6
CONTINUOUS
 62
8
 10
6.310112101346
 20
28.513106843372
 11
6.002475511626
 21
28.274075818199
  0
LINE
  8
Layer0
  6
CONTINUOUS
 62
8
 10
6.002475511626
 20
28.274075818199
 11
5.701635533011
 21
28.031762905161
  0
LINE
  8
Layer0
  6
CONTINUOUS
 62
8
 10
5.701635533011
 20
28.031762905161
 11
5.407683804273
 21
27.786241915118
  0
LINE
  8
Layer0
  6
CONTINUOUS
 62
8
 10
5.407683804273
 20
27.786241915118
 11
5.120709865957
 21
27.537587636143
  0
LINE
  8
Layer0
  6
CONTINUOUS
 62
8
 10
5.120709865957
 20
27.537587636143
 11
4.840801133104
 21
27.285875810738
  0
LINE
  8
Layer0
  6
CONTINUOUS
 62
8
 10
4.840801133104
 20
27.285875810738
 11
4.568042868625
 21
27.031183112763
  0
LINE
  8
Layer0
  6
CONTINUOUS
 62
8
 10
4.568042868625
 20
27.031183112763
 11
4.302518157331
 21
26.773587124081
  0
LINE
  8
Layer0
  6
CONTINUOUS
 62
8
 10
4.302518157331
 20
26.773587124081
 11
4.044307880620
 21
26.513166310926
  0
LINE
  8
Layer0
  6
CONTINUOUS
 62
8
 10
4.044307880620
 20
26.513166310926
 11
3.793490691844
 21
26.250000000000
  0
LINE
  8
Layer0
  6
CONTINUOUS
 62
8
 10
3.793490691844
 20
26.250000000000
 11
3.550142992348
 21
25.984168354311
  0
LINE
  8
Layer0
  6
CONTINUOUS
 62
8
 10
3.550142992348
 20
25.984168354311
 11
3.314338908200
 21
25.715752348753
  0
LINE
  8
Layer0
  6
CONTINUOUS
 62
8
 10
3.314338908200
 20
25.715752348753
 11
3.086150267606
 21
25.444833745442
  0
LINE
  8
Layer0
  6
CONTINUOUS
 62
8
 10
3.086150267606
 20
25.444833745442
 11
2.865646579039
 21
25.171495068809
  0
LINE
  8
Layer0
  6
CONTINUOUS
 62
8
 10
2.865646579039
 20
25.171495068809
 11
2.652895010057
 21
24.895819580462
  0
LINE
  8
Layer0
  6
CONTINUOUS
 62
8
 10
2.652895010057
 20
24.895819580462
 11
2.447960366850
 21
24.617891253827
  0
LINE
  8
Layer0
  6
CONTINUOUS
 62
8
 10
2.447960366850
 20
24.617891253827
 11
2.250905074494
 21
24.337794748562
  0
LINE
  8
Layer0
  6
CONTINUOUS
 62
8
 10
2.250905074494
 20
24.337794748562
 11
2.061789157941
 21
24.055615384779
  0
LINE
  8
Layer0
  6
CONTINUOUS
 62
8
 10
2.061789157941
 20
24.055615384779
 11
1.880670223732
 21
23.771439117043
  0
LINE
  8
Layer0
  6
CONTINUOUS
 62
8
 10
1.880670223732
 20
23.771439117043
 11
1.707603442447
 21
23.485352508199
  0
LINE
  8
Layer0
  6
CONTINUOUS
 62
8
 10
1.707603442447
 20
23.485352508199
 11
1.542641531905
 21
23.197442703000
  0
LINE
  8
Layer0
  6
CONTINUOUS
 62
8
 10
1.542641531905
 20
23.197442703000
 11
1.385834741103
 21
22.907797401562
  0
LINE
  8
Layer0
  6
CONTINUOUS
 62
8
 10
1.385834741103
 20
22.907797401562
 11
1.237230834907
 21
22.616504832648
  0
LINE
  8
Layer0
  6
CONTINUOUS
 62
8
 10
1.237230834907
 20
22.616504832648
 11
1.096875079507
 21
22.323653726798
  0
LINE
  8
Layer0
  6
CONTINUOUS
 62
8
 10
1.096875079507
 20
22.323653726798
 11
0.964810228625
 21
22.029333289294
  0
LINE
  8
Layer0
  6
CONTINUOUS
 62
8
 10
0.964810228625
 20
22.029333289294
 11
0.841076510495
 21
21.733633172994
  0
LINE
  8
Layer0
  6
CONTINUOUS
 62
8
 10
0.725711615606
 20
21.436643451018
 11
0.618750685222
 21
21.138454589311
  0
LINE
  8
Layer0
  6
CONTINUOUS
 62
8
 10
0.618750685222
 20
21.138454589311
 11
0.520226300679
 21
20.839157419090
  0
LINE
  8
Layer0
  6
CONTINUOUS
 62
8
 10
0.520226300679
 20
20.839157419090
 11
0.430168473459
 21
20.538843109171
  0
LINE
  8
Layer0
  6
CONTINUOUS
 62
8
 10
0.430168473459
 20
20.538843109171
 11
0.348604636049
 21
20.237603138204
  0
LINE
  8
Layer0
  6
CONTINUOUS
 62
8
 10
0.348604636049
 20
20.237603138204
 11
0.275559633582
 21
19.935529266801
  0
LINE
  8
Layer0
  6
CONTINUOUS
 62
8
 10
0.275559633582
 20
19.935529266801
 11
0.211055716276
 21
19.632713509590
  0
LINE
  8
Layer0
  6
CONTINUOUS
 62
8
 10
0.211055716276
 20
19.632713509590
 11
0.155112532647
 21
19.329248107184
  0
LINE
  8
Layer0
  6
CONTINUOUS
 62
8
 10
0.155112532647
 20
19.329248107184
 11
0.107747123532
 21
19.025225498084
  0
LINE
  8
Layer0
  6
CONTINUOUS
 62
8
 10
0.107747123532
 20
19.025225498084
 11
0.068973916893
 21
18.720738290522
  0
LINE
  8
Layer0
  6
CONTINUOUS
 62
8
 10
0.068973916893
 20
18.720738290522
 11
0.038804723424
 21
18.415879234252
  0
LINE
  8
Layer0
  6
CONTINUOUS
 62
8
 10
0.038804723424
 20
18.415879234252
 11
0.017248732954
 21
18.110741192294
  0
LINE
  8
Layer0
  6
CONTINUOUS
 62
8
 10
0.017248732954
 20
18.110741192294
 11
0.004312511647
 21
17.805417112653
  0
LINE
  8
Layer0
  6
CONTINUOUS
 62
8
 10
0.004312511647
 20
17.805417112653
 11
0.000000000000
 21
17.500000000000
  0
LINE
  8
Layer0
  6
CONTINUOUS
 62
8
 10
0.000000000000
 20
17.500000000000
 11
0.004312511647
 21
17.194582887348
  0
LINE
  8
Layer0
  6
CONTINUOUS
 62
8
 10
0.004312511647
 20
17.194582887348
 11
0.017248732954
 21
16.889258807706
  0
LINE
  8
Layer0
  6
CONTINUOUS
 62
8
 10
0.017248732954
 20
16.889258807706
 11
0.038804723424
 21
16.584120765749
  0
LINE
  8
Layer0
  6
CONTINUOUS
 62
8
 10
0.038804723424
 20
16.584120765749
 11
0.068973916893
 21
16.279261709478
  0
LINE
  8
Layer0
  6
CONTINUOUS
 62
8
 10
0.068973916893
 20
16.279261709478
 11
0.107747123532
 21
15.974774501916
  0
LINE
  8
Layer0
  6
CONTINUOUS
 62
8
 10
0.107747123532
 20
15.974774501916
 11
0.155112532647
 21
15.670751892816
  0
LINE
  8
Layer0
  6
CONTINUOUS
 62
8
 10
0.155112532647
 20
15.670751892816
 11
0.211055716276
 21
15.367286490410
  0
LINE
  8
Layer0
  6
CONTINUOUS
 62
8
 10
0.211055716276
 20
15.367286490410
 11
0.275559633582
 21
15.064470733199
  0
LINE
  8
Layer0
  6
CONTINUOUS
 62
8
 10
0.275559633582
 20
15.064470733199
 11
0.348604636049
 21
14.762396861796
  0
LINE
  8
Layer0
  6
CONTINUOUS
 62
8
 10
0.348604636049
 20
14.762396861796
 11
0.430168473459
 21
14.461156890829
  0
LINE
  8
Layer0
  6
CONTINUOUS
 62
8
 10
0.430168473459
 20
14.461156890829
 11
0.520226300679
 21
14.160842580911
  0
LINE
  8
Layer0
  6
CONTINUOUS
 62
8
 10
0.520226300679
 20
14.160842580911
 11
0.618750685222
 21
13.861545410689
  0
LINE
  8
Layer0
  6
CONTINUOUS
 62
8
 10
0.618750685222
 20
13.861545410689
 11
0.725711615606
 21
13.563356548983
  0
LINE
  8
Layer0
  6
CONTINUOUS
 62
8
 10
0.725711615606
 20
13.563356548983
 11
0.841076510495
 21
13.266366827006
  0
LINE
  8
Layer0
  6
CONTINUOUS
 62
8
 10
0.841076510495
 20
13.266366827006
 11
0.964810228625
 21
12.970666710706
  0
LINE
  8
Layer0
  6
CONTINUOUS
 62
8
 10
0.964810228625
 20
12.970666710706
 11
1.096875079506
 21
12.676346273203
  0
LINE
  8
Layer0
  6
CONTINUOUS
 62
8
 10
1.096875079506
 20
12.676346273203
 11
1.237230834907
 21
12.383495167352
  0
LINE
  8
Layer0
  6
CONTINUOUS
 62
8
 10
1.237230834907
 20
12.383495167352
 11
1.385834741103
 21
12.092202598439
  0
LINE
  8
Layer0
  6
CONTINUOUS
 62
8
 10
1.385834741103
 20
12.092202598439
 11
1.542641531905
 21
11.802557297000
  0
LINE
  8
Layer0
  6
CONTINUOUS
 62
8
 10
1.542641531905
 20
11.802557297000
 11
1.707603442447
 21
11.514647491801
  0
LINE
  8
Layer0
  6
CONTINUOUS
 62
8
 10
1.707603442447
 20
11.514647491801
 11
1.880670223732
 21
11.228560882957
  0
LINE
  8
Layer0
  6
CONTINUOUS
 62
8
 10
1.880670223732
 20
11.228560882957
 11
2.061789157941
 21
10.944384615222
  0
LINE
  8
Layer0
  6
CONTINUOUS
 62
8
 10
2.061789157941
 20
10.944384615222
 11
2.250905074494
 21
10.662205251438
  0
LINE
  8
Layer0
  6
CONTINUOUS
 62
8
 10
2.250905074494
 20
10.662205251438
 11
2.447960366850
 21
10.382108746174
  0
LINE
  8
Layer0
  6
CONTINUOUS
 62
8
 10
2.447960366850
 20
10.382108746174
 11
2.652895010057
 21
10.104180419538
  0
LINE
  8
Layer0
  6
CONTINUOUS
 62
8
 10
2.652895010057
 20
10.104180419538
 11
2.865646579039
 21
9.828504931191
  0
LINE
  8
Layer0
  6
CONTINUOUS
 62
8
 10
2.865646579039
 20
9.828504931191
 11
3.086150267606
 21
9.555166254558
  0
LINE
  8
Layer0
  6
CONTINUOUS
 62
8
 10
3.086150267606
 20
9.555166254558
 11
3.314338908199
 21
9.284247651247
  0
LINE
  8
Layer0
  6
CONTINUOUS
 62
8
 10
3.314338908199
 20
9.284247651247
 11
3.550142992348
 21
9.015831645689
  0
LINE
  8
Layer0
  6
CONTINUOUS
 62
8
 10
3.550142992348
 20
9.015831645689
 11
3.793490691843
 21
8.750000000000
  0
LINE
  8
Layer0
  6
CONTINUOUS
 62
8
 10
3.793490691843
 20
8.750000000000
 11
4.044307880619
 21
8.486833689074
  0
LINE
  8
Layer0
  6
CONTINUOUS
 62
8
 10
4.044307880619
 20
8.486833689074
 11
4.302518157331
 21
8.226412875919
  0
LINE
  8
Layer0
  6
CONTINUOUS
 62
8
 10
4.302518157331
 20
8.226412875919
 11
4.568042868625
 21
7.968816887237
  0
LINE
  8
Layer0
  6
CONTINUOUS
 62
8
 10
4.568042868625
 20
7.968816887237
 11
4.840801133104
 21
7.714124189262
  0
LINE
  8
Layer0
  6
CONTINUOUS
 62
8
 10
4.840801133104
 20
7.714124189262
 11
5.120709865957
 21
7.462412363857
  0
LINE
  8
Layer0
  6
CONTINUOUS
 62
8
 10
5.120709865957
 20
7.462412363857
 11
5.407683804273
 21
7.213758084882
  0
LINE
  8
Layer0
  6
CONTINUOUS
 62
8
 10
5.407683804273
 20
7.213758084882
 11
5.701635533011
 21
6.968237094839
  0
LINE
  8
Layer0
  6
CONTINUOUS
 62
8
 10
5.701635533011
 20
6.968237094839
 11
6.002475511625
 21
6.725924181801
  0
LINE
  8
Layer0
  6
CONTINUOUS
 62
8
 10
6.002475511625
 20
6.725924181801
 11
6.310112101346
 21
6.486893156628
  0
LINE
  8
Layer0
  6
CONTINUOUS
 62
8
 10
6.310112101346
 20
6.486893156628
 11
6.624451593086
 21
6.251216830486
  0
LINE
  8
Layer0
  6
CONTINUOUS
 62
8
 10
6.624451593086
 20
6.251216830486
 11
6.945398235992
 21
6.018966992666
  0
LINE
  8
Layer0
  6
CONTINUOUS
 62
8
 10
6.945398235992
 20
6.018966992666
 11
7.272854266607
 21
5.790214388720
  0
LINE
  8
Layer0
  6
CONTINUOUS
 62
8
 10
7.272854266607
 20
5.790214388720
 11
7.606719938653
 21
5.565028698907
  0
LINE
  8
Layer0
  6
CONTINUOUS
 62
8
 10
7.606719938653
 20
5.565028698907
 11
7.946893553411
 21
5.343478516968
  0
LINE
  8
Layer0
  6
CONTINUOUS
 62
8
 10
7.946893553411
 20
5.343478516968
 11
8.293271490703
 21
5.125631329236
  0
LINE
  8
Layer0
  6
CONTINUOUS
 62
8
 10
8.293271490703
 20
5.125631329236
 11
8.645748240453
 21
4.911553494074
  0
LINE
  8
Layer0
  6
CONTINUOUS
 62
8
 10
8.645748240453
 20
4.911553494074
 11
9.004216434830
 21
4.701310221665
  0
LINE
  8
Layer0
  6
CONTINUOUS
 62
8
 10
9.004216434830
 20
4.701310221665
 11
9.368566880949
 21
4.494965554146
  0
LINE
  8
Layer0
  6
CONTINUOUS
 62
8
 10
9.368566880949
 20
4.494965554146
 11
9.738688594133
 21
4.292582346102
  0
LINE
  8
Layer0
  6
CONTINUOUS
 62
8
 10
9.738688594133
 20
4.292582346102
 11
10.114468831725
 21
4.094222245418
  0
LINE
  8
Layer0
  6
CONTINUOUS
 62
8
 10
10.114468831725
 20
4.094222245418
 11
10.495793127423
 21
3.899945674503
  0
LINE
  8
Layer0
  6
CONTINUOUS
 62
8
 10
10.495793127423
 20
3.899945674503
 11
10.882545326154
 21
3.709811811883
  0
LINE
  8
Layer0
  6
CONTINUOUS
 62
8
 10
10.882545326154
 20
3.709811811883
 11
11.274607619449
 21
3.523878574173
  0
LINE
  8
Layer0
  6
CONTINUOUS
 62
8
 10
11.274607619449
 20
3.523878574173
 11
11.671860581338
 21
3.342202598439
  0
LINE
  8
Layer0
  6
CONTINUOUS
 62
8
 10
11.671860581338
 20
3.342202598439
 11
12.074183204720
 21
3.164839224943
  0
LINE
  8
Layer0
  6
CONTINUOUS
 62
8
 10
12.074183204720
 20
3.164839224943
 11
12.481452938225
 21
2.991842480287
  0
LINE
  8
Layer0
  6
CONTINUOUS
 62
8
 10
12.481452938225
 20
2.991842480287
 11
12.893545723549
 21
2.823265060955
  0
LINE
  8
Layer0
  6
CONTINUOUS
 62
8
 10
12.893545723549
 20
2.823265060955
 11
13.310336033236
 21
2.659158317263
  0
LINE
  8
Layer0
  6
CONTINUOUS
 62
8
 10
13.310336033236
 20
2.659158317263
 11
13.731696908921
 21
2.499572237713
  0
LINE
  8
Layer0
  6
CONTINUOUS
 62
8
 10
13.731696908921
 20
2.499572237713
 11
14.157499999999
 21
2.344555433773
  0
LINE
  8
Layer0
  6
CONTINUOUS
 62
8
 10
14.157499999999
 20
2.344555433773
 11
14.587615602724
 21
2.194155125061
  0
LINE
  8
Layer0
  6
CONTINUOUS
 62
8
 10
14.587615602724
 20
2.194155125061
 11
15.021912699717
 21
2.048417124969
  0
LINE
  8
Layer0
  6
CONTINUOUS
 62
8
 10
15.021912699717
 20
2.048417124969
 11
15.460258999874
 21
1.907385826704
  0
LINE
  8
Layer0
  6
CONTINUOUS
 62
8
 10
15.460258999874
 20
1.907385826704
 11
15.902520978667
 21
1.771104189765
  0
LINE
  8
Layer0
  6
CONTINUOUS
 62
8
 10
15.902520978667
 20
1.771104189765
 11
16.348563918811
 21
1.639613726859
  0
LINE
  8
Layer0
  6
CONTINUOUS
 62
8
 10
16.348563918811
 20
1.639613726859
 11
16.798251951308
 21
1.512954491255
  0
LINE
  8
Layer0
  6
CONTINUOUS
 62
8
 10
16.798251951308
 20
1.512954491255
 11
17.251448096826
 21
1.391165064582
  0
LINE
  8
Layer0
  6
CONTINUOUS
 62
8
 10
17.251448096826
 20
1.391165064582
 11
17.708014307428
 21
1.274282545081
  0
LINE
  8
Layer0
  6
CONTINUOUS
 62
8
 10
17.708014307428
 20
1.274282545081
 11
18.167811508624
 21
1.162342536299
  0
LINE
  8
Layer0
  6
CONTINUOUS
 62
8
 10
18.167811508624
 20
1.162342536299
 11
18.630699641733
 21
1.055379136247
  0
LINE
  8
Layer0
  6
CONTINUOUS
 62
8
 10
18.630699641733
 20
1.055379136247
 11
19.096537706545
 21
0.953424927012
  0
LINE
  8
Layer0
  6
CONTINUOUS
 62
8
 10
19.096537706545
 20
0.953424927012
 11
19.565183804273
 21
0.856510964835
  0
LINE
  8
Layer0
  6
CONTINUOUS
 62
8
 10
19.565183804273
 20
0.856510964835
 11
20.036495180775
 21
0.764666770647
  0
LINE
  8
Layer0
  6
CONTINUOUS
 62
8
 10
20.036495180775
 20
0.764666770647
 11
20.510328270041
 21
0.677920321080
  0
LINE
  8
Layer0
  6
CONTINUOUS
 62
8
 10
20.510328270041
 20
0.677920321080
 11
20.986538737921
 21
0.596298039941
  0
LINE
  8
Layer0
  6
CONTINUOUS
 62
8
 10
20.986538737921
 20
0.596298039941
 11
21.464981526095
 21
0.519824790170
  0
LINE
  8
Layer0
  6
CONTINUOUS
 62
8
 10
21.464981526095
 20
0.519824790170
 11
21.945510896253
 21
0.448523866258
  0
LINE
  8
Layer0
  6
CONTINUOUS
 62
8
 10
21.945510896253
 20
0.448523866258
 11
22.427980474494
 21
0.382416987158
  0
LINE
  8
Layer0
  6
CONTINUOUS
 62
8
 10
22.427980474494
 20
0.382416987158
 11
22.912243295912
 21
0.321524289666
  0
LINE
  8
Layer0
  6
CONTINUOUS
 62
8
 10
22.912243295912
 20
0.321524289666
 11
23.315000000000
 21
0.275389219904
  0
LINE
  8
Layer0
  6
CONTINUOUS
 62
8
 10
56.630000000000
 20
19.000000000000
 11
56.630000000000
 21
16.000000000000
  0
LINE
  8
Layer0
  6
CONTINUOUS
 62
8
 10
23.315000000000
 20
34.724610780096
 11
28.315000000000
 21
35.000000000000
  0
LINE
  8
Layer0
  6
CONTINUOUS
 62
8
 10
23.315000000000
 20
0.275389219904
 11
28.315000000000
 21
0.000000000000
  0
LINE
  8
Layer0
  6
CONTINUOUS
 62
8
 10
28.315000000000
 20
5.500000000000
 11
28.315000000000
 21
0.000000000000
  0
LINE
  8
Layer0
  6
CONTINUOUS
 62
8
 10
45.130000000000
 20
35.000000000000
 11
48.630000000000
 21
35.000000000000
  0
LINE
  8
Layer0
  6
CONTINUOUS
 62
8
 10
45.130000000000
 20
-0.000000000000
 11
48.630000000000
 21
0.000000000000
  0
LINE
  8
Layer0
  6
CONTINUOUS
 62
8
 10
56.630000000000
 20
17.500000000000
 11
56.630000000000
 21
19.000000000000
  0
LINE
  8
Layer0
  6
CONTINUOUS
 62
8
 10
56.630000000000
 20
17.500000000000
 11
56.630000000000
 21
16.000000000000
  0
ARC
  8
Layer0
  6
CONTINUOUS
 62
8
 10
48.630000000000
 20
27.000000000000
 40
8.000000000000
 50
0.000000000000
 51
90.000000000000
  0
ARC
  8
Layer0
  6
CONTINUOUS
 62
8
 10
48.630000000000
 20
8.000000000000
 40
8.000000000000
 50
-90.000000000000
 51
0.000000000000
  0
LINE
  8
Layer0
  6
CONTINUOUS
 62
8
 10
45.130000000000
 20
35.000000000000
 11
45.130000000000
 21
29.500000000000
  0
LINE
  8
Layer0
  6
CONTINUOUS
 62
8
 10
45.130000000000
 20
5.500000000000
 11
45.130000000000
 21
0.000000000000
  0
LINE
  8
Layer0
  6
CONTINUOUS
 62
8
 10
0.725711615606
 20
21.436643451018
 11
0.841076510495
 21
21.733633172994
  0
LINE
  8
Layer0
  6
CONTINUOUS
 62
8
 10
57.630000000000
 20
8.000000000000
 11
66.630000000000
 21
8.000000000000
  0
LINE
  8
Layer0
  6
CONTINUOUS
 62
8
 10
66.630000000000
 20
8.000000000000
 11
66.630000000000
 21
9.500000000000
  0
LINE
  8
Layer0
  6
CONTINUOUS
 62
8
 10
66.630000000000
 20
16.000000000000
 11
57.630000000000
 21
16.000000000000
  0
LINE
  8
Layer0
  6
CONTINUOUS
 62
8
 10
57.630000000000
 20
27.000000000000
 11
66.630000000000
 21
27.000000000000
  0
LINE
  8
Layer0
  6
CONTINUOUS
 62
8
 10
66.630000000000
 20
27.000000000000
 11
66.630000000000
 21
25.500000000000
  0
LINE
  8
Layer0
  6
CONTINUOUS
 62
8
 10
66.630000000000
 20
19.000000000000
 11
57.630000000000
 21
19.000000000000
  0
LINE
  8
Layer0
  6
CONTINUOUS
 62
8
 10
28.315000000000
 20
29.500000000000
 11
45.130000000000
 21
29.500000000000
  0
LINE
  8
Layer0
  6
CONTINUOUS
 62
8
 10
28.315000000000
 20
5.500000000000
 11
45.130000000000
 21
5.500000000000
  0
LINE
  8
Layer0
  6
CONTINUOUS
 62
8
 10
33.722500000000
 20
18.500000000000
 11
39.722500000000
 21
18.500000000000
  0
LINE
  8
Layer0
  6
CONTINUOUS
 62
8
 10
33.722500000000
 20
16.500000000000
 11
39.722500000000
 21
16.500000000000
  0
LINE
  8
Layer0
  6
CONTINUOUS
 62
8
 10
33.722500000000
 20
19.500000000000
 11
39.722500000000
 21
19.500000000000
  0
LINE
  8
Layer0
  6
CONTINUOUS
 62
8
 10
33.722500000000
 20
15.500000000000
 11
39.722500000000
 21
15.500000000000
  0
LINE
  8
Layer0
  6
CONTINUOUS
 62
8
 10
66.630000000000
 20
25.500000000000
 11
67.630000000000
 21
25.500000000000
  0
LINE
  8
Layer0
  6
CONTINUOUS
 62
8
 10
67.630000000000
 20
25.500000000000
 11
67.630000000000
 21
20.500000000000
  0
LINE
  8
Layer0
  6
CONTINUOUS
 62
8
 10
67.630000000000
 20
20.500000000000
 11
66.630000000000
 21
20.500000000000
  0
LINE
  8
Layer0
  6
CONTINUOUS
 62
8
 10
66.630000000000
 20
14.500000000000
 11
67.630000000000
 21
14.500000000000
  0
LINE
  8
Layer0
  6
CONTINUOUS
 62
8
 10
67.630000000000
 20
14.500000000000
 11
67.630000000000
 21
9.500000000000
  0
LINE
  8
Layer0
  6
CONTINUOUS
 62
8
 10
67.630000000000
 20
9.500000000000
 11
66.630000000000
 21
9.500000000000
  0
LINE
  8
Layer0
  6
CONTINUOUS
 62
8
 10
66.630000000000
 20
20.500000000000
 11
66.630000000000
 21
19.000000000000
  0
LINE
  8
Layer0
  6
CONTINUOUS
 62
8
 10
66.630000000000
 20
14.500000000000
 11
66.630000000000
 21
16.000000000000
  0
LINE
  8
Layer0
  6
CONTINUOUS
 62
8
 10
39.722500000000
 20
19.500000000000
 11
39.722500000000
 21
18.500000000000
  0
LINE
  8
Layer0
  6
CONTINUOUS
 62
8
 10
39.722500000000
 20
18.500000000000
 11
33.722500000000
 21
18.500000000000
  0
LINE
  8
Layer0
  6
CONTINUOUS
 62
8
 10
33.722500000000
 20
18.500000000000
 11
33.722500000000
 21
19.500000000000
  0
LINE
  8
Layer0
  6
CONTINUOUS
 62
8
 10
33.722500000000
 20
16.500000000000
 11
39.722500000000
 21
16.500000000000
  0
LINE
  8
Layer0
  6
CONTINUOUS
 62
8
 10
39.722500000000
 20
16.500000000000
 11
39.722500000000
 21
15.500000000000
  0
LINE
  8
Layer0
  6
CONTINUOUS
 62
8
 10
33.722500000000
 20
15.500000000000
 11
33.722500000000
 21
16.500000000000
  0
LINE
  8
Layer0
  6
CONTINUOUS
 62
8
 10
56.630000000000
 20
27.000000000000
 11
56.630000000000
 21
24.500000000000
  0
LINE
  8
Layer0
  6
CONTINUOUS
 62
8
 10
57.630000000000
 20
27.000000000000
 11
57.630000000000
 21
24.500000000000
  0
LINE
  8
Layer0
  6
CONTINUOUS
 62
8
 10
56.630000000000
 20
24.500000000000
 11
57.630000000000
 21
24.500000000000
  0
LINE
  8
Layer0
  6
CONTINUOUS
 62
8
 10
57.630000000000
 20
21.500000000000
 11
56.630000000000
 21
21.500000000000
  0
LINE
  8
Layer0
  6
CONTINUOUS
 62
8
 10
57.630000000000
 20
21.500000000000
 11
57.630000000000
 21
19.000000000000
  0
LINE
  8
Layer0
  6
CONTINUOUS
 62
8
 10
56.630000000000
 20
21.500000000000
 11
56.630000000000
 21
19.000000000000
  0
LINE
  8
Layer0
  6
CONTINUOUS
 62
8
 10
56.630000000000
 20
16.000000000000
 11
56.630000000000
 21
13.500000000000
  0
LINE
  8
Layer0
  6
CONTINUOUS
 62
8
 10
57.630000000000
 20
16.000000000000
 11
57.630000000000
 21
13.500000000000
  0
LINE
  8
Layer0
  6
CONTINUOUS
 62
8
 10
56.630000000000
 20
13.500000000000
 11
57.630000000000
 21
13.500000000000
  0
LINE
  8
Layer0
  6
CONTINUOUS
 62
8
 10
57.630000000000
 20
10.500000000000
 11
56.630000000000
 21
10.500000000000
  0
LINE
  8
Layer0
  6
CONTINUOUS
 62
8
 10
57.630000000000
 20
10.500000000000
 11
57.630000000000
 21
8.000000000000
  0
LINE
  8
Layer0
  6
CONTINUOUS
 62
8
 10
56.630000000000
 20
10.500000000000
 11
56.630000000000
 21
8.000000000000
  0
ENDSEC
  0
EOF
