G04 #@! TF.FileFunction,Legend,Top*
%FSLAX46Y46*%
G04 Gerber Fmt 4.6, Leading zero omitted, Abs format (unit mm)*
G04 Created by KiCad (PCBNEW 4.0.0-rc2-stable) date 2016/07/16 8:54:14*
%MOMM*%
G01*
G04 APERTURE LIST*
%ADD10C,0.150000*%
%ADD11C,0.088900*%
%ADD12R,1.000000X1.250000*%
%ADD13R,0.600000X0.500000*%
%ADD14R,0.500000X0.600000*%
%ADD15R,1.250000X1.000000*%
%ADD16O,1.500000X1.100000*%
%ADD17O,1.100000X1.500000*%
%ADD18R,2.000000X3.900000*%
%ADD19O,1.500000X1.000000*%
%ADD20R,0.800000X1.000000*%
%ADD21R,1.000000X0.800000*%
%ADD22R,0.650000X1.060000*%
%ADD23C,0.900000*%
%ADD24R,0.700000X1.500000*%
%ADD25R,2.000000X1.600000*%
%ADD26R,0.500000X0.200000*%
%ADD27R,0.600000X0.200000*%
%ADD28R,0.200000X0.500000*%
%ADD29R,0.200000X0.600000*%
%ADD30R,0.250000X1.300000*%
%ADD31R,1.300000X0.250000*%
%ADD32R,0.800000X0.350000*%
%ADD33R,0.350000X0.800000*%
%ADD34R,0.400000X2.000000*%
%ADD35R,0.800000X0.500000*%
%ADD36R,0.800100X0.800100*%
G04 APERTURE END LIST*
D10*
X104894000Y-86881600D02*
X103894000Y-86881600D01*
X103894000Y-88581600D02*
X104894000Y-88581600D01*
X104593200Y-85631000D02*
X104093200Y-85631000D01*
X104093200Y-86581000D02*
X104593200Y-86581000D01*
X106393000Y-82749200D02*
X106393000Y-82249200D01*
X105443000Y-82249200D02*
X105443000Y-82749200D01*
X116807000Y-85530500D02*
X116807000Y-85030500D01*
X115857000Y-85030500D02*
X115857000Y-85530500D01*
X123159500Y-74743500D02*
X123159500Y-75243500D01*
X124109500Y-75243500D02*
X124109500Y-74743500D01*
X131103000Y-72017000D02*
X131103000Y-73017000D01*
X132803000Y-73017000D02*
X132803000Y-72017000D01*
X142121000Y-90131000D02*
X143121000Y-90131000D01*
X143121000Y-88431000D02*
X142121000Y-88431000D01*
X117508000Y-86745000D02*
X117508000Y-87245000D01*
X118458000Y-87245000D02*
X118458000Y-86745000D01*
X124880000Y-72017000D02*
X124880000Y-73017000D01*
X126580000Y-73017000D02*
X126580000Y-72017000D01*
X140882000Y-91956000D02*
X140882000Y-92956000D01*
X142582000Y-92956000D02*
X142582000Y-91956000D01*
X152916000Y-80479000D02*
X153916000Y-80479000D01*
X153916000Y-78779000D02*
X152916000Y-78779000D01*
X138184000Y-78066000D02*
X139184000Y-78066000D01*
X139184000Y-76366000D02*
X138184000Y-76366000D01*
X138628500Y-89305500D02*
X139628500Y-89305500D01*
X139628500Y-87605500D02*
X138628500Y-87605500D01*
X122745500Y-66103500D02*
X124777500Y-66103500D01*
X124211500Y-70255500D02*
X124811500Y-69705500D01*
X122711500Y-70255500D02*
X123761500Y-70255500D01*
X123761500Y-70255500D02*
X124811500Y-70255500D01*
X106984800Y-79654400D02*
X106984800Y-77622400D01*
X111136800Y-78188400D02*
X110586800Y-77588400D01*
X111136800Y-79688400D02*
X111136800Y-78638400D01*
X111136800Y-78638400D02*
X111136800Y-77588400D01*
X106984800Y-87376000D02*
X106984800Y-85344000D01*
X111136800Y-85910000D02*
X110586800Y-85310000D01*
X111136800Y-87410000D02*
X111136800Y-86360000D01*
X111136800Y-86360000D02*
X111136800Y-85310000D01*
X136215500Y-83336500D02*
X137215500Y-83336500D01*
X137215500Y-81636500D02*
X136215500Y-81636500D01*
X124764800Y-98856800D02*
X122732800Y-98856800D01*
X123298800Y-94704800D02*
X122698800Y-95254800D01*
X124798800Y-94704800D02*
X123748800Y-94704800D01*
X123748800Y-94704800D02*
X122698800Y-94704800D01*
X113372000Y-87215600D02*
X113372000Y-86215600D01*
X111672000Y-86215600D02*
X111672000Y-87215600D01*
X111869600Y-83349200D02*
X112869600Y-83349200D01*
X112869600Y-81649200D02*
X111869600Y-81649200D01*
X113372000Y-78782800D02*
X113372000Y-77782800D01*
X111672000Y-77782800D02*
X111672000Y-78782800D01*
X153797000Y-74422000D02*
X153162000Y-74422000D01*
X154940000Y-74422000D02*
X154305000Y-74422000D01*
X153162000Y-71247000D02*
X153797000Y-71247000D01*
X155575000Y-71247000D02*
X154305000Y-71247000D01*
X155575000Y-71374000D02*
X155575000Y-71247000D01*
X153162000Y-71247000D02*
X153162000Y-71374000D01*
X155575000Y-71374000D02*
X155575000Y-74422000D01*
X155575000Y-74422000D02*
X154940000Y-74422000D01*
X153162000Y-74422000D02*
X153162000Y-71374000D01*
X126296000Y-87796000D02*
X125696000Y-88346000D01*
X126746000Y-93296000D02*
X127796000Y-93296000D01*
X127796000Y-93296000D02*
X127796000Y-87796000D01*
X127796000Y-87796000D02*
X126746000Y-87796000D01*
X126746000Y-93296000D02*
X125696000Y-93296000D01*
X125696000Y-93296000D02*
X125696000Y-91646000D01*
X126746000Y-87796000D02*
X125696000Y-87796000D01*
X125696000Y-87796000D02*
X125696000Y-91646000D01*
X149567000Y-79941000D02*
X149017000Y-79341000D01*
X146607000Y-80391000D02*
X146607000Y-81441000D01*
X149567000Y-81441000D02*
X149567000Y-80391000D01*
X146607000Y-80391000D02*
X146607000Y-79341000D01*
X149567000Y-80391000D02*
X149567000Y-79341000D01*
X146597000Y-85032000D02*
X147147000Y-85632000D01*
X149557000Y-84582000D02*
X149557000Y-83532000D01*
X146597000Y-83532000D02*
X146597000Y-84582000D01*
X149557000Y-84582000D02*
X149557000Y-85632000D01*
X146597000Y-84582000D02*
X146597000Y-85632000D01*
X125222000Y-66103500D02*
X127254000Y-66103500D01*
X126688000Y-70255500D02*
X127288000Y-69705500D01*
X125188000Y-70255500D02*
X126238000Y-70255500D01*
X126238000Y-70255500D02*
X127288000Y-70255500D01*
X106984800Y-81991200D02*
X106984800Y-79959200D01*
X111136800Y-80525200D02*
X110586800Y-79925200D01*
X111136800Y-82025200D02*
X111136800Y-80975200D01*
X111136800Y-80975200D02*
X111136800Y-79925200D01*
X106984800Y-85039200D02*
X106984800Y-83007200D01*
X111136800Y-83573200D02*
X110586800Y-82973200D01*
X111136800Y-85073200D02*
X111136800Y-84023200D01*
X111136800Y-84023200D02*
X111136800Y-82973200D01*
X127254000Y-98856800D02*
X125222000Y-98856800D01*
X125788000Y-94704800D02*
X125188000Y-95254800D01*
X127288000Y-94704800D02*
X126238000Y-94704800D01*
X126238000Y-94704800D02*
X125188000Y-94704800D01*
X152959000Y-76981000D02*
G75*
G03X152959000Y-76981000I-100000J0D01*
G01*
X153109000Y-76331000D02*
X153109000Y-76831000D01*
X156009000Y-76331000D02*
X153109000Y-76331000D01*
X156009000Y-76831000D02*
X156009000Y-76331000D01*
X153109000Y-76831000D02*
X156009000Y-76831000D01*
X123194000Y-71976000D02*
X123694000Y-71976000D01*
X123694000Y-71026000D02*
X123194000Y-71026000D01*
X117759500Y-70925500D02*
X117759500Y-70425500D01*
X116809500Y-70425500D02*
X116809500Y-70925500D01*
X118839000Y-70925500D02*
X118839000Y-70425500D01*
X117889000Y-70425500D02*
X117889000Y-70925500D01*
X117288500Y-69499500D02*
X117788500Y-69499500D01*
X117788500Y-68549500D02*
X117288500Y-68549500D01*
X112619600Y-80500200D02*
X112119600Y-80500200D01*
X112119600Y-81450200D02*
X112619600Y-81450200D01*
X111103600Y-70629800D02*
X111603600Y-70629800D01*
X111603600Y-69679800D02*
X111103600Y-69679800D01*
X110523000Y-71530400D02*
X110523000Y-72030400D01*
X111473000Y-72030400D02*
X111473000Y-71530400D01*
X109761000Y-76204000D02*
X109761000Y-76704000D01*
X110711000Y-76704000D02*
X110711000Y-76204000D01*
X148586000Y-71915000D02*
X148086000Y-71915000D01*
X148086000Y-72865000D02*
X148586000Y-72865000D01*
X112619600Y-83548200D02*
X112119600Y-83548200D01*
X112119600Y-84498200D02*
X112619600Y-84498200D01*
X111349600Y-94521000D02*
X110849600Y-94521000D01*
X110849600Y-95471000D02*
X111349600Y-95471000D01*
X110472200Y-92968000D02*
X110472200Y-93468000D01*
X111422200Y-93468000D02*
X111422200Y-92968000D01*
X123498800Y-94353400D02*
X123998800Y-94353400D01*
X123998800Y-93403400D02*
X123498800Y-93403400D01*
X110711000Y-90572400D02*
X110711000Y-90072400D01*
X109761000Y-90072400D02*
X109761000Y-90572400D01*
X113280000Y-92082600D02*
X112780000Y-92082600D01*
X112780000Y-93032600D02*
X113280000Y-93032600D01*
X113505000Y-94636400D02*
X113505000Y-94136400D01*
X112555000Y-94136400D02*
X112555000Y-94636400D01*
X139386500Y-82961500D02*
X139886500Y-82961500D01*
X139886500Y-82011500D02*
X139386500Y-82011500D01*
X117402800Y-94201000D02*
X117902800Y-94201000D01*
X117902800Y-93251000D02*
X117402800Y-93251000D01*
X121670000Y-74960500D02*
X122170000Y-74960500D01*
X122170000Y-74010500D02*
X121670000Y-74010500D01*
X120873500Y-72521000D02*
X120873500Y-73021000D01*
X121823500Y-73021000D02*
X121823500Y-72521000D01*
X119537500Y-90737500D02*
X119537500Y-90237500D01*
X118587500Y-90237500D02*
X118587500Y-90737500D01*
X117061000Y-90775600D02*
X117061000Y-90275600D01*
X116111000Y-90275600D02*
X116111000Y-90775600D01*
X112772000Y-88425000D02*
X112272000Y-88425000D01*
X112272000Y-89375000D02*
X112772000Y-89375000D01*
X118394500Y-90737500D02*
X118394500Y-90237500D01*
X117444500Y-90237500D02*
X117444500Y-90737500D01*
X104847200Y-77655400D02*
X104347200Y-77655400D01*
X104347200Y-78605400D02*
X104847200Y-78605400D01*
X128591500Y-82834500D02*
X129091500Y-82834500D01*
X129091500Y-81884500D02*
X128591500Y-81884500D01*
X114673400Y-78786800D02*
X114673400Y-78286800D01*
X113723400Y-78286800D02*
X113723400Y-78786800D01*
X148856000Y-68017000D02*
X148856000Y-67717000D01*
X150356000Y-68017000D02*
X150356000Y-67717000D01*
X148206000Y-70317000D02*
X148006000Y-70317000D01*
X151006000Y-66417000D02*
X150806000Y-66217000D01*
X149706000Y-66417000D02*
X149906000Y-66217000D01*
X151006000Y-67717000D02*
X151006000Y-66417000D01*
X150806000Y-66217000D02*
X149906000Y-66217000D01*
X149706000Y-66417000D02*
X149706000Y-67717000D01*
X152456000Y-67717000D02*
X146756000Y-67717000D01*
X151206000Y-70317000D02*
X149506000Y-70317000D01*
X152956000Y-69417000D02*
X152956000Y-68617000D01*
X146256000Y-68617000D02*
X146256000Y-69417000D01*
X147952000Y-95947000D02*
X150752000Y-95947000D01*
X150752000Y-95947000D02*
X150752000Y-97347000D01*
X150752000Y-97347000D02*
X147952000Y-97347000D01*
X147952000Y-97347000D02*
X147952000Y-95947000D01*
X152352000Y-94897000D02*
X152352000Y-95547000D01*
X152352000Y-98397000D02*
X152352000Y-97747000D01*
X146352000Y-97747000D02*
X146352000Y-98397000D01*
X146352000Y-94897000D02*
X146352000Y-95547000D01*
X152352000Y-94897000D02*
X146352000Y-94897000D01*
X146352000Y-98397000D02*
X152352000Y-98397000D01*
X102524000Y-81623000D02*
G75*
G03X102524000Y-81623000I-100000J0D01*
G01*
X101624000Y-81223000D02*
X101924000Y-80923000D01*
X104624000Y-81223000D02*
X104624000Y-80923000D01*
X104624000Y-80923000D02*
X104324000Y-80923000D01*
X104324000Y-83923000D02*
X104624000Y-83923000D01*
X104624000Y-83923000D02*
X104624000Y-83623000D01*
X101624000Y-83623000D02*
X101624000Y-83923000D01*
X101624000Y-83923000D02*
X101924000Y-83923000D01*
X118739500Y-86111500D02*
X119264500Y-86111500D01*
X118739500Y-78861500D02*
X119264500Y-78861500D01*
X125989500Y-78861500D02*
X125464500Y-78861500D01*
X125989500Y-86111500D02*
X125464500Y-86111500D01*
X118739500Y-86111500D02*
X118739500Y-85586500D01*
X125989500Y-86111500D02*
X125989500Y-85586500D01*
X125989500Y-78861500D02*
X125989500Y-79386500D01*
X118739500Y-78861500D02*
X118739500Y-79386500D01*
X119264500Y-86111500D02*
X119264500Y-87486500D01*
X158632000Y-90161000D02*
X158632000Y-89386000D01*
X162932000Y-85861000D02*
X162932000Y-86636000D01*
X158632000Y-85861000D02*
X158632000Y-86636000D01*
X162932000Y-90161000D02*
X162157000Y-90161000D01*
X162932000Y-85861000D02*
X162157000Y-85861000D01*
X158632000Y-85861000D02*
X159407000Y-85861000D01*
X158632000Y-90161000D02*
X159407000Y-90161000D01*
X158632000Y-79112000D02*
X158632000Y-78337000D01*
X162932000Y-74812000D02*
X162932000Y-75587000D01*
X158632000Y-74812000D02*
X158632000Y-75587000D01*
X162932000Y-79112000D02*
X162157000Y-79112000D01*
X162932000Y-74812000D02*
X162157000Y-74812000D01*
X158632000Y-74812000D02*
X159407000Y-74812000D01*
X158632000Y-79112000D02*
X159407000Y-79112000D01*
X123202500Y-89901000D02*
X123202500Y-91201000D01*
X120002500Y-89901000D02*
X120002500Y-91201000D01*
X121158000Y-70167500D02*
X121158000Y-69532500D01*
X121158000Y-69532500D02*
X120142000Y-69532500D01*
X120142000Y-71310500D02*
X121158000Y-71310500D01*
X121158000Y-71310500D02*
X121158000Y-70675500D01*
X121285000Y-70167500D02*
X121158000Y-70167500D01*
X121158000Y-70675500D02*
X121285000Y-70675500D01*
X120142000Y-69532500D02*
X120142000Y-71310500D01*
X121285000Y-70675500D02*
X121285000Y-70167500D01*
X108254800Y-72186800D02*
X108254800Y-72821800D01*
X108254800Y-72821800D02*
X109270800Y-72821800D01*
X109270800Y-71043800D02*
X108254800Y-71043800D01*
X108254800Y-71043800D02*
X108254800Y-71678800D01*
X108127800Y-72186800D02*
X108254800Y-72186800D01*
X108254800Y-71678800D02*
X108127800Y-71678800D01*
X109270800Y-72821800D02*
X109270800Y-71043800D01*
X108127800Y-71678800D02*
X108127800Y-72186800D01*
X108254800Y-93319600D02*
X108254800Y-93954600D01*
X108254800Y-93954600D02*
X109270800Y-93954600D01*
X109270800Y-92176600D02*
X108254800Y-92176600D01*
X108254800Y-92176600D02*
X108254800Y-92811600D01*
X108127800Y-93319600D02*
X108254800Y-93319600D01*
X108254800Y-92811600D02*
X108127800Y-92811600D01*
X109270800Y-93954600D02*
X109270800Y-92176600D01*
X108127800Y-92811600D02*
X108127800Y-93319600D01*
X115671600Y-94132400D02*
X115671600Y-93497400D01*
X115671600Y-93497400D02*
X114655600Y-93497400D01*
X114655600Y-95275400D02*
X115671600Y-95275400D01*
X115671600Y-95275400D02*
X115671600Y-94640400D01*
X115798600Y-94132400D02*
X115671600Y-94132400D01*
X115671600Y-94640400D02*
X115798600Y-94640400D01*
X114655600Y-93497400D02*
X114655600Y-95275400D01*
X115798600Y-94640400D02*
X115798600Y-94132400D01*
X129555240Y-73816160D02*
X129555240Y-73767900D01*
X128854200Y-71017180D02*
X129555240Y-71017180D01*
X129555240Y-71017180D02*
X129555240Y-71266100D01*
X129555240Y-73816160D02*
X129555240Y-74016820D01*
X129555240Y-74016820D02*
X128854200Y-74016820D01*
X145176240Y-93755160D02*
X145176240Y-93706900D01*
X144475200Y-90956180D02*
X145176240Y-90956180D01*
X145176240Y-90956180D02*
X145176240Y-91205100D01*
X145176240Y-93755160D02*
X145176240Y-93955820D01*
X145176240Y-93955820D02*
X144475200Y-93955820D01*
X104227334Y-85988743D02*
X104179715Y-86036362D01*
X104036858Y-86083981D01*
X103941620Y-86083981D01*
X103798762Y-86036362D01*
X103703524Y-85941124D01*
X103655905Y-85845886D01*
X103608286Y-85655410D01*
X103608286Y-85512552D01*
X103655905Y-85322076D01*
X103703524Y-85226838D01*
X103798762Y-85131600D01*
X103941620Y-85083981D01*
X104036858Y-85083981D01*
X104179715Y-85131600D01*
X104227334Y-85179219D01*
X105179715Y-86083981D02*
X104608286Y-86083981D01*
X104894000Y-86083981D02*
X104894000Y-85083981D01*
X104798762Y-85226838D01*
X104703524Y-85322076D01*
X104608286Y-85369695D01*
X104176534Y-84763143D02*
X104128915Y-84810762D01*
X103986058Y-84858381D01*
X103890820Y-84858381D01*
X103747962Y-84810762D01*
X103652724Y-84715524D01*
X103605105Y-84620286D01*
X103557486Y-84429810D01*
X103557486Y-84286952D01*
X103605105Y-84096476D01*
X103652724Y-84001238D01*
X103747962Y-83906000D01*
X103890820Y-83858381D01*
X103986058Y-83858381D01*
X104128915Y-83906000D01*
X104176534Y-83953619D01*
X104557486Y-83953619D02*
X104605105Y-83906000D01*
X104700343Y-83858381D01*
X104938439Y-83858381D01*
X105033677Y-83906000D01*
X105081296Y-83953619D01*
X105128915Y-84048857D01*
X105128915Y-84144095D01*
X105081296Y-84286952D01*
X104509867Y-84858381D01*
X105128915Y-84858381D01*
X107975143Y-82665866D02*
X108022762Y-82713485D01*
X108070381Y-82856342D01*
X108070381Y-82951580D01*
X108022762Y-83094438D01*
X107927524Y-83189676D01*
X107832286Y-83237295D01*
X107641810Y-83284914D01*
X107498952Y-83284914D01*
X107308476Y-83237295D01*
X107213238Y-83189676D01*
X107118000Y-83094438D01*
X107070381Y-82951580D01*
X107070381Y-82856342D01*
X107118000Y-82713485D01*
X107165619Y-82665866D01*
X107070381Y-82332533D02*
X107070381Y-81713485D01*
X107451333Y-82046819D01*
X107451333Y-81903961D01*
X107498952Y-81808723D01*
X107546571Y-81761104D01*
X107641810Y-81713485D01*
X107879905Y-81713485D01*
X107975143Y-81761104D01*
X108022762Y-81808723D01*
X108070381Y-81903961D01*
X108070381Y-82189676D01*
X108022762Y-82284914D01*
X107975143Y-82332533D01*
X118389143Y-85447166D02*
X118436762Y-85494785D01*
X118484381Y-85637642D01*
X118484381Y-85732880D01*
X118436762Y-85875738D01*
X118341524Y-85970976D01*
X118246286Y-86018595D01*
X118055810Y-86066214D01*
X117912952Y-86066214D01*
X117722476Y-86018595D01*
X117627238Y-85970976D01*
X117532000Y-85875738D01*
X117484381Y-85732880D01*
X117484381Y-85637642D01*
X117532000Y-85494785D01*
X117579619Y-85447166D01*
X117817714Y-84590023D02*
X118484381Y-84590023D01*
X117436762Y-84828119D02*
X118151048Y-85066214D01*
X118151048Y-84447166D01*
X122291643Y-75160166D02*
X122339262Y-75207785D01*
X122386881Y-75350642D01*
X122386881Y-75445880D01*
X122339262Y-75588738D01*
X122244024Y-75683976D01*
X122148786Y-75731595D01*
X121958310Y-75779214D01*
X121815452Y-75779214D01*
X121624976Y-75731595D01*
X121529738Y-75683976D01*
X121434500Y-75588738D01*
X121386881Y-75445880D01*
X121386881Y-75350642D01*
X121434500Y-75207785D01*
X121482119Y-75160166D01*
X121386881Y-74255404D02*
X121386881Y-74731595D01*
X121863071Y-74779214D01*
X121815452Y-74731595D01*
X121767833Y-74636357D01*
X121767833Y-74398261D01*
X121815452Y-74303023D01*
X121863071Y-74255404D01*
X121958310Y-74207785D01*
X122196405Y-74207785D01*
X122291643Y-74255404D01*
X122339262Y-74303023D01*
X122386881Y-74398261D01*
X122386881Y-74636357D01*
X122339262Y-74731595D01*
X122291643Y-74779214D01*
X130210143Y-72683666D02*
X130257762Y-72731285D01*
X130305381Y-72874142D01*
X130305381Y-72969380D01*
X130257762Y-73112238D01*
X130162524Y-73207476D01*
X130067286Y-73255095D01*
X129876810Y-73302714D01*
X129733952Y-73302714D01*
X129543476Y-73255095D01*
X129448238Y-73207476D01*
X129353000Y-73112238D01*
X129305381Y-72969380D01*
X129305381Y-72874142D01*
X129353000Y-72731285D01*
X129400619Y-72683666D01*
X129305381Y-71826523D02*
X129305381Y-72017000D01*
X129353000Y-72112238D01*
X129400619Y-72159857D01*
X129543476Y-72255095D01*
X129733952Y-72302714D01*
X130114905Y-72302714D01*
X130210143Y-72255095D01*
X130257762Y-72207476D01*
X130305381Y-72112238D01*
X130305381Y-71921761D01*
X130257762Y-71826523D01*
X130210143Y-71778904D01*
X130114905Y-71731285D01*
X129876810Y-71731285D01*
X129781571Y-71778904D01*
X129733952Y-71826523D01*
X129686333Y-71921761D01*
X129686333Y-72112238D01*
X129733952Y-72207476D01*
X129781571Y-72255095D01*
X129876810Y-72302714D01*
X142454334Y-91738143D02*
X142406715Y-91785762D01*
X142263858Y-91833381D01*
X142168620Y-91833381D01*
X142025762Y-91785762D01*
X141930524Y-91690524D01*
X141882905Y-91595286D01*
X141835286Y-91404810D01*
X141835286Y-91261952D01*
X141882905Y-91071476D01*
X141930524Y-90976238D01*
X142025762Y-90881000D01*
X142168620Y-90833381D01*
X142263858Y-90833381D01*
X142406715Y-90881000D01*
X142454334Y-90928619D01*
X142787667Y-90833381D02*
X143454334Y-90833381D01*
X143025762Y-91833381D01*
X116640143Y-87161666D02*
X116687762Y-87209285D01*
X116735381Y-87352142D01*
X116735381Y-87447380D01*
X116687762Y-87590238D01*
X116592524Y-87685476D01*
X116497286Y-87733095D01*
X116306810Y-87780714D01*
X116163952Y-87780714D01*
X115973476Y-87733095D01*
X115878238Y-87685476D01*
X115783000Y-87590238D01*
X115735381Y-87447380D01*
X115735381Y-87352142D01*
X115783000Y-87209285D01*
X115830619Y-87161666D01*
X116163952Y-86590238D02*
X116116333Y-86685476D01*
X116068714Y-86733095D01*
X115973476Y-86780714D01*
X115925857Y-86780714D01*
X115830619Y-86733095D01*
X115783000Y-86685476D01*
X115735381Y-86590238D01*
X115735381Y-86399761D01*
X115783000Y-86304523D01*
X115830619Y-86256904D01*
X115925857Y-86209285D01*
X115973476Y-86209285D01*
X116068714Y-86256904D01*
X116116333Y-86304523D01*
X116163952Y-86399761D01*
X116163952Y-86590238D01*
X116211571Y-86685476D01*
X116259190Y-86733095D01*
X116354429Y-86780714D01*
X116544905Y-86780714D01*
X116640143Y-86733095D01*
X116687762Y-86685476D01*
X116735381Y-86590238D01*
X116735381Y-86399761D01*
X116687762Y-86304523D01*
X116640143Y-86256904D01*
X116544905Y-86209285D01*
X116354429Y-86209285D01*
X116259190Y-86256904D01*
X116211571Y-86304523D01*
X116163952Y-86399761D01*
X123987143Y-72683666D02*
X124034762Y-72731285D01*
X124082381Y-72874142D01*
X124082381Y-72969380D01*
X124034762Y-73112238D01*
X123939524Y-73207476D01*
X123844286Y-73255095D01*
X123653810Y-73302714D01*
X123510952Y-73302714D01*
X123320476Y-73255095D01*
X123225238Y-73207476D01*
X123130000Y-73112238D01*
X123082381Y-72969380D01*
X123082381Y-72874142D01*
X123130000Y-72731285D01*
X123177619Y-72683666D01*
X124082381Y-72207476D02*
X124082381Y-72017000D01*
X124034762Y-71921761D01*
X123987143Y-71874142D01*
X123844286Y-71778904D01*
X123653810Y-71731285D01*
X123272857Y-71731285D01*
X123177619Y-71778904D01*
X123130000Y-71826523D01*
X123082381Y-71921761D01*
X123082381Y-72112238D01*
X123130000Y-72207476D01*
X123177619Y-72255095D01*
X123272857Y-72302714D01*
X123510952Y-72302714D01*
X123606190Y-72255095D01*
X123653810Y-72207476D01*
X123701429Y-72112238D01*
X123701429Y-71921761D01*
X123653810Y-71826523D01*
X123606190Y-71778904D01*
X123510952Y-71731285D01*
X139989143Y-93098857D02*
X140036762Y-93146476D01*
X140084381Y-93289333D01*
X140084381Y-93384571D01*
X140036762Y-93527429D01*
X139941524Y-93622667D01*
X139846286Y-93670286D01*
X139655810Y-93717905D01*
X139512952Y-93717905D01*
X139322476Y-93670286D01*
X139227238Y-93622667D01*
X139132000Y-93527429D01*
X139084381Y-93384571D01*
X139084381Y-93289333D01*
X139132000Y-93146476D01*
X139179619Y-93098857D01*
X140084381Y-92146476D02*
X140084381Y-92717905D01*
X140084381Y-92432191D02*
X139084381Y-92432191D01*
X139227238Y-92527429D01*
X139322476Y-92622667D01*
X139370095Y-92717905D01*
X139084381Y-91527429D02*
X139084381Y-91432190D01*
X139132000Y-91336952D01*
X139179619Y-91289333D01*
X139274857Y-91241714D01*
X139465333Y-91194095D01*
X139703429Y-91194095D01*
X139893905Y-91241714D01*
X139989143Y-91289333D01*
X140036762Y-91336952D01*
X140084381Y-91432190D01*
X140084381Y-91527429D01*
X140036762Y-91622667D01*
X139989143Y-91670286D01*
X139893905Y-91717905D01*
X139703429Y-91765524D01*
X139465333Y-91765524D01*
X139274857Y-91717905D01*
X139179619Y-91670286D01*
X139132000Y-91622667D01*
X139084381Y-91527429D01*
X152773143Y-82086143D02*
X152725524Y-82133762D01*
X152582667Y-82181381D01*
X152487429Y-82181381D01*
X152344571Y-82133762D01*
X152249333Y-82038524D01*
X152201714Y-81943286D01*
X152154095Y-81752810D01*
X152154095Y-81609952D01*
X152201714Y-81419476D01*
X152249333Y-81324238D01*
X152344571Y-81229000D01*
X152487429Y-81181381D01*
X152582667Y-81181381D01*
X152725524Y-81229000D01*
X152773143Y-81276619D01*
X153725524Y-82181381D02*
X153154095Y-82181381D01*
X153439809Y-82181381D02*
X153439809Y-81181381D01*
X153344571Y-81324238D01*
X153249333Y-81419476D01*
X153154095Y-81467095D01*
X154677905Y-82181381D02*
X154106476Y-82181381D01*
X154392190Y-82181381D02*
X154392190Y-81181381D01*
X154296952Y-81324238D01*
X154201714Y-81419476D01*
X154106476Y-81467095D01*
X138041143Y-79673143D02*
X137993524Y-79720762D01*
X137850667Y-79768381D01*
X137755429Y-79768381D01*
X137612571Y-79720762D01*
X137517333Y-79625524D01*
X137469714Y-79530286D01*
X137422095Y-79339810D01*
X137422095Y-79196952D01*
X137469714Y-79006476D01*
X137517333Y-78911238D01*
X137612571Y-78816000D01*
X137755429Y-78768381D01*
X137850667Y-78768381D01*
X137993524Y-78816000D01*
X138041143Y-78863619D01*
X138993524Y-79768381D02*
X138422095Y-79768381D01*
X138707809Y-79768381D02*
X138707809Y-78768381D01*
X138612571Y-78911238D01*
X138517333Y-79006476D01*
X138422095Y-79054095D01*
X139374476Y-78863619D02*
X139422095Y-78816000D01*
X139517333Y-78768381D01*
X139755429Y-78768381D01*
X139850667Y-78816000D01*
X139898286Y-78863619D01*
X139945905Y-78958857D01*
X139945905Y-79054095D01*
X139898286Y-79196952D01*
X139326857Y-79768381D01*
X139945905Y-79768381D01*
X138485643Y-90912643D02*
X138438024Y-90960262D01*
X138295167Y-91007881D01*
X138199929Y-91007881D01*
X138057071Y-90960262D01*
X137961833Y-90865024D01*
X137914214Y-90769786D01*
X137866595Y-90579310D01*
X137866595Y-90436452D01*
X137914214Y-90245976D01*
X137961833Y-90150738D01*
X138057071Y-90055500D01*
X138199929Y-90007881D01*
X138295167Y-90007881D01*
X138438024Y-90055500D01*
X138485643Y-90103119D01*
X139438024Y-91007881D02*
X138866595Y-91007881D01*
X139152309Y-91007881D02*
X139152309Y-90007881D01*
X139057071Y-90150738D01*
X138961833Y-90245976D01*
X138866595Y-90293595D01*
X139771357Y-90007881D02*
X140390405Y-90007881D01*
X140057071Y-90388833D01*
X140199929Y-90388833D01*
X140295167Y-90436452D01*
X140342786Y-90484071D01*
X140390405Y-90579310D01*
X140390405Y-90817405D01*
X140342786Y-90912643D01*
X140295167Y-90960262D01*
X140199929Y-91007881D01*
X139914214Y-91007881D01*
X139818976Y-90960262D01*
X139771357Y-90912643D01*
X124213881Y-70143595D02*
X123213881Y-70143595D01*
X123213881Y-69905500D01*
X123261500Y-69762642D01*
X123356738Y-69667404D01*
X123451976Y-69619785D01*
X123642452Y-69572166D01*
X123785310Y-69572166D01*
X123975786Y-69619785D01*
X124071024Y-69667404D01*
X124166262Y-69762642D01*
X124213881Y-69905500D01*
X124213881Y-70143595D01*
X124213881Y-68619785D02*
X124213881Y-69191214D01*
X124213881Y-68905500D02*
X123213881Y-68905500D01*
X123356738Y-69000738D01*
X123451976Y-69095976D01*
X123499595Y-69191214D01*
X123213881Y-72905500D02*
X123213881Y-72334071D01*
X124213881Y-72619786D02*
X123213881Y-72619786D01*
X124166262Y-72048357D02*
X124213881Y-71905500D01*
X124213881Y-71667404D01*
X124166262Y-71572166D01*
X124118643Y-71524547D01*
X124023405Y-71476928D01*
X123928167Y-71476928D01*
X123832929Y-71524547D01*
X123785310Y-71572166D01*
X123737690Y-71667404D01*
X123690071Y-71857881D01*
X123642452Y-71953119D01*
X123594833Y-72000738D01*
X123499595Y-72048357D01*
X123404357Y-72048357D01*
X123309119Y-72000738D01*
X123261500Y-71953119D01*
X123213881Y-71857881D01*
X123213881Y-71619785D01*
X123261500Y-71476928D01*
X123928167Y-71095976D02*
X123928167Y-70619785D01*
X124213881Y-71191214D02*
X123213881Y-70857881D01*
X124213881Y-70524547D01*
X124213881Y-69715023D02*
X124213881Y-70191214D01*
X123213881Y-70191214D01*
X123547214Y-68953118D02*
X124213881Y-68953118D01*
X123166262Y-69191214D02*
X123880548Y-69429309D01*
X123880548Y-68810261D01*
X123547214Y-68000737D02*
X124213881Y-68000737D01*
X123166262Y-68238833D02*
X123880548Y-68476928D01*
X123880548Y-67857880D01*
X123213881Y-67286452D02*
X123213881Y-67191213D01*
X123261500Y-67095975D01*
X123309119Y-67048356D01*
X123404357Y-67000737D01*
X123594833Y-66953118D01*
X123832929Y-66953118D01*
X124023405Y-67000737D01*
X124118643Y-67048356D01*
X124166262Y-67095975D01*
X124213881Y-67191213D01*
X124213881Y-67286452D01*
X124166262Y-67381690D01*
X124118643Y-67429309D01*
X124023405Y-67476928D01*
X123832929Y-67524547D01*
X123594833Y-67524547D01*
X123404357Y-67476928D01*
X123309119Y-67429309D01*
X123261500Y-67381690D01*
X123213881Y-67286452D01*
X123213881Y-66334071D02*
X123213881Y-66238832D01*
X123261500Y-66143594D01*
X123309119Y-66095975D01*
X123404357Y-66048356D01*
X123594833Y-66000737D01*
X123832929Y-66000737D01*
X124023405Y-66048356D01*
X124118643Y-66095975D01*
X124166262Y-66143594D01*
X124213881Y-66238832D01*
X124213881Y-66334071D01*
X124166262Y-66429309D01*
X124118643Y-66476928D01*
X124023405Y-66524547D01*
X123832929Y-66572166D01*
X123594833Y-66572166D01*
X123404357Y-66524547D01*
X123309119Y-66476928D01*
X123261500Y-66429309D01*
X123213881Y-66334071D01*
X109548705Y-79090781D02*
X109548705Y-78090781D01*
X109786800Y-78090781D01*
X109929658Y-78138400D01*
X110024896Y-78233638D01*
X110072515Y-78328876D01*
X110120134Y-78519352D01*
X110120134Y-78662210D01*
X110072515Y-78852686D01*
X110024896Y-78947924D01*
X109929658Y-79043162D01*
X109786800Y-79090781D01*
X109548705Y-79090781D01*
X110501086Y-78186019D02*
X110548705Y-78138400D01*
X110643943Y-78090781D01*
X110882039Y-78090781D01*
X110977277Y-78138400D01*
X111024896Y-78186019D01*
X111072515Y-78281257D01*
X111072515Y-78376495D01*
X111024896Y-78519352D01*
X110453467Y-79090781D01*
X111072515Y-79090781D01*
X106786800Y-78090781D02*
X107358229Y-78090781D01*
X107072514Y-79090781D02*
X107072514Y-78090781D01*
X107643943Y-79043162D02*
X107786800Y-79090781D01*
X108024896Y-79090781D01*
X108120134Y-79043162D01*
X108167753Y-78995543D01*
X108215372Y-78900305D01*
X108215372Y-78805067D01*
X108167753Y-78709829D01*
X108120134Y-78662210D01*
X108024896Y-78614590D01*
X107834419Y-78566971D01*
X107739181Y-78519352D01*
X107691562Y-78471733D01*
X107643943Y-78376495D01*
X107643943Y-78281257D01*
X107691562Y-78186019D01*
X107739181Y-78138400D01*
X107834419Y-78090781D01*
X108072515Y-78090781D01*
X108215372Y-78138400D01*
X108596324Y-78805067D02*
X109072515Y-78805067D01*
X108501086Y-79090781D02*
X108834419Y-78090781D01*
X109167753Y-79090781D01*
X109977277Y-79090781D02*
X109501086Y-79090781D01*
X109501086Y-78090781D01*
X110739182Y-78424114D02*
X110739182Y-79090781D01*
X110501086Y-78043162D02*
X110262991Y-78757448D01*
X110882039Y-78757448D01*
X111691563Y-78424114D02*
X111691563Y-79090781D01*
X111453467Y-78043162D02*
X111215372Y-78757448D01*
X111834420Y-78757448D01*
X112405848Y-78090781D02*
X112501087Y-78090781D01*
X112596325Y-78138400D01*
X112643944Y-78186019D01*
X112691563Y-78281257D01*
X112739182Y-78471733D01*
X112739182Y-78709829D01*
X112691563Y-78900305D01*
X112643944Y-78995543D01*
X112596325Y-79043162D01*
X112501087Y-79090781D01*
X112405848Y-79090781D01*
X112310610Y-79043162D01*
X112262991Y-78995543D01*
X112215372Y-78900305D01*
X112167753Y-78709829D01*
X112167753Y-78471733D01*
X112215372Y-78281257D01*
X112262991Y-78186019D01*
X112310610Y-78138400D01*
X112405848Y-78090781D01*
X113358229Y-78090781D02*
X113453468Y-78090781D01*
X113548706Y-78138400D01*
X113596325Y-78186019D01*
X113643944Y-78281257D01*
X113691563Y-78471733D01*
X113691563Y-78709829D01*
X113643944Y-78900305D01*
X113596325Y-78995543D01*
X113548706Y-79043162D01*
X113453468Y-79090781D01*
X113358229Y-79090781D01*
X113262991Y-79043162D01*
X113215372Y-78995543D01*
X113167753Y-78900305D01*
X113120134Y-78709829D01*
X113120134Y-78471733D01*
X113167753Y-78281257D01*
X113215372Y-78186019D01*
X113262991Y-78138400D01*
X113358229Y-78090781D01*
X109548705Y-86812381D02*
X109548705Y-85812381D01*
X109786800Y-85812381D01*
X109929658Y-85860000D01*
X110024896Y-85955238D01*
X110072515Y-86050476D01*
X110120134Y-86240952D01*
X110120134Y-86383810D01*
X110072515Y-86574286D01*
X110024896Y-86669524D01*
X109929658Y-86764762D01*
X109786800Y-86812381D01*
X109548705Y-86812381D01*
X110453467Y-85812381D02*
X111072515Y-85812381D01*
X110739181Y-86193333D01*
X110882039Y-86193333D01*
X110977277Y-86240952D01*
X111024896Y-86288571D01*
X111072515Y-86383810D01*
X111072515Y-86621905D01*
X111024896Y-86717143D01*
X110977277Y-86764762D01*
X110882039Y-86812381D01*
X110596324Y-86812381D01*
X110501086Y-86764762D01*
X110453467Y-86717143D01*
X106786800Y-85812381D02*
X107358229Y-85812381D01*
X107072514Y-86812381D02*
X107072514Y-85812381D01*
X107643943Y-86764762D02*
X107786800Y-86812381D01*
X108024896Y-86812381D01*
X108120134Y-86764762D01*
X108167753Y-86717143D01*
X108215372Y-86621905D01*
X108215372Y-86526667D01*
X108167753Y-86431429D01*
X108120134Y-86383810D01*
X108024896Y-86336190D01*
X107834419Y-86288571D01*
X107739181Y-86240952D01*
X107691562Y-86193333D01*
X107643943Y-86098095D01*
X107643943Y-86002857D01*
X107691562Y-85907619D01*
X107739181Y-85860000D01*
X107834419Y-85812381D01*
X108072515Y-85812381D01*
X108215372Y-85860000D01*
X108596324Y-86526667D02*
X109072515Y-86526667D01*
X108501086Y-86812381D02*
X108834419Y-85812381D01*
X109167753Y-86812381D01*
X109977277Y-86812381D02*
X109501086Y-86812381D01*
X109501086Y-85812381D01*
X110739182Y-86145714D02*
X110739182Y-86812381D01*
X110501086Y-85764762D02*
X110262991Y-86479048D01*
X110882039Y-86479048D01*
X111691563Y-86145714D02*
X111691563Y-86812381D01*
X111453467Y-85764762D02*
X111215372Y-86479048D01*
X111834420Y-86479048D01*
X112405848Y-85812381D02*
X112501087Y-85812381D01*
X112596325Y-85860000D01*
X112643944Y-85907619D01*
X112691563Y-86002857D01*
X112739182Y-86193333D01*
X112739182Y-86431429D01*
X112691563Y-86621905D01*
X112643944Y-86717143D01*
X112596325Y-86764762D01*
X112501087Y-86812381D01*
X112405848Y-86812381D01*
X112310610Y-86764762D01*
X112262991Y-86717143D01*
X112215372Y-86621905D01*
X112167753Y-86431429D01*
X112167753Y-86193333D01*
X112215372Y-86002857D01*
X112262991Y-85907619D01*
X112310610Y-85860000D01*
X112405848Y-85812381D01*
X113358229Y-85812381D02*
X113453468Y-85812381D01*
X113548706Y-85860000D01*
X113596325Y-85907619D01*
X113643944Y-86002857D01*
X113691563Y-86193333D01*
X113691563Y-86431429D01*
X113643944Y-86621905D01*
X113596325Y-86717143D01*
X113548706Y-86764762D01*
X113453468Y-86812381D01*
X113358229Y-86812381D01*
X113262991Y-86764762D01*
X113215372Y-86717143D01*
X113167753Y-86621905D01*
X113120134Y-86431429D01*
X113120134Y-86193333D01*
X113167753Y-86002857D01*
X113215372Y-85907619D01*
X113262991Y-85860000D01*
X113358229Y-85812381D01*
X135977405Y-85038881D02*
X135977405Y-84038881D01*
X136215500Y-84038881D01*
X136358358Y-84086500D01*
X136453596Y-84181738D01*
X136501215Y-84276976D01*
X136548834Y-84467452D01*
X136548834Y-84610310D01*
X136501215Y-84800786D01*
X136453596Y-84896024D01*
X136358358Y-84991262D01*
X136215500Y-85038881D01*
X135977405Y-85038881D01*
X137405977Y-84372214D02*
X137405977Y-85038881D01*
X137167881Y-83991262D02*
X136929786Y-84705548D01*
X137548834Y-84705548D01*
X124201181Y-96292895D02*
X123201181Y-96292895D01*
X123201181Y-96054800D01*
X123248800Y-95911942D01*
X123344038Y-95816704D01*
X123439276Y-95769085D01*
X123629752Y-95721466D01*
X123772610Y-95721466D01*
X123963086Y-95769085D01*
X124058324Y-95816704D01*
X124153562Y-95911942D01*
X124201181Y-96054800D01*
X124201181Y-96292895D01*
X123201181Y-94816704D02*
X123201181Y-95292895D01*
X123677371Y-95340514D01*
X123629752Y-95292895D01*
X123582133Y-95197657D01*
X123582133Y-94959561D01*
X123629752Y-94864323D01*
X123677371Y-94816704D01*
X123772610Y-94769085D01*
X124010705Y-94769085D01*
X124105943Y-94816704D01*
X124153562Y-94864323D01*
X124201181Y-94959561D01*
X124201181Y-95197657D01*
X124153562Y-95292895D01*
X124105943Y-95340514D01*
X123201181Y-99054800D02*
X123201181Y-98483371D01*
X124201181Y-98769086D02*
X123201181Y-98769086D01*
X124153562Y-98197657D02*
X124201181Y-98054800D01*
X124201181Y-97816704D01*
X124153562Y-97721466D01*
X124105943Y-97673847D01*
X124010705Y-97626228D01*
X123915467Y-97626228D01*
X123820229Y-97673847D01*
X123772610Y-97721466D01*
X123724990Y-97816704D01*
X123677371Y-98007181D01*
X123629752Y-98102419D01*
X123582133Y-98150038D01*
X123486895Y-98197657D01*
X123391657Y-98197657D01*
X123296419Y-98150038D01*
X123248800Y-98102419D01*
X123201181Y-98007181D01*
X123201181Y-97769085D01*
X123248800Y-97626228D01*
X123915467Y-97245276D02*
X123915467Y-96769085D01*
X124201181Y-97340514D02*
X123201181Y-97007181D01*
X124201181Y-96673847D01*
X124201181Y-95864323D02*
X124201181Y-96340514D01*
X123201181Y-96340514D01*
X123534514Y-95102418D02*
X124201181Y-95102418D01*
X123153562Y-95340514D02*
X123867848Y-95578609D01*
X123867848Y-94959561D01*
X123534514Y-94150037D02*
X124201181Y-94150037D01*
X123153562Y-94388133D02*
X123867848Y-94626228D01*
X123867848Y-94007180D01*
X123201181Y-93435752D02*
X123201181Y-93340513D01*
X123248800Y-93245275D01*
X123296419Y-93197656D01*
X123391657Y-93150037D01*
X123582133Y-93102418D01*
X123820229Y-93102418D01*
X124010705Y-93150037D01*
X124105943Y-93197656D01*
X124153562Y-93245275D01*
X124201181Y-93340513D01*
X124201181Y-93435752D01*
X124153562Y-93530990D01*
X124105943Y-93578609D01*
X124010705Y-93626228D01*
X123820229Y-93673847D01*
X123582133Y-93673847D01*
X123391657Y-93626228D01*
X123296419Y-93578609D01*
X123248800Y-93530990D01*
X123201181Y-93435752D01*
X123201181Y-92483371D02*
X123201181Y-92388132D01*
X123248800Y-92292894D01*
X123296419Y-92245275D01*
X123391657Y-92197656D01*
X123582133Y-92150037D01*
X123820229Y-92150037D01*
X124010705Y-92197656D01*
X124105943Y-92245275D01*
X124153562Y-92292894D01*
X124201181Y-92388132D01*
X124201181Y-92483371D01*
X124153562Y-92578609D01*
X124105943Y-92626228D01*
X124010705Y-92673847D01*
X123820229Y-92721466D01*
X123582133Y-92721466D01*
X123391657Y-92673847D01*
X123296419Y-92626228D01*
X123248800Y-92578609D01*
X123201181Y-92483371D01*
X115074381Y-87453695D02*
X114074381Y-87453695D01*
X114074381Y-87215600D01*
X114122000Y-87072742D01*
X114217238Y-86977504D01*
X114312476Y-86929885D01*
X114502952Y-86882266D01*
X114645810Y-86882266D01*
X114836286Y-86929885D01*
X114931524Y-86977504D01*
X115026762Y-87072742D01*
X115074381Y-87215600D01*
X115074381Y-87453695D01*
X114074381Y-86025123D02*
X114074381Y-86215600D01*
X114122000Y-86310838D01*
X114169619Y-86358457D01*
X114312476Y-86453695D01*
X114502952Y-86501314D01*
X114883905Y-86501314D01*
X114979143Y-86453695D01*
X115026762Y-86406076D01*
X115074381Y-86310838D01*
X115074381Y-86120361D01*
X115026762Y-86025123D01*
X114979143Y-85977504D01*
X114883905Y-85929885D01*
X114645810Y-85929885D01*
X114550571Y-85977504D01*
X114502952Y-86025123D01*
X114455333Y-86120361D01*
X114455333Y-86310838D01*
X114502952Y-86406076D01*
X114550571Y-86453695D01*
X114645810Y-86501314D01*
X111631505Y-85051581D02*
X111631505Y-84051581D01*
X111869600Y-84051581D01*
X112012458Y-84099200D01*
X112107696Y-84194438D01*
X112155315Y-84289676D01*
X112202934Y-84480152D01*
X112202934Y-84623010D01*
X112155315Y-84813486D01*
X112107696Y-84908724D01*
X112012458Y-85003962D01*
X111869600Y-85051581D01*
X111631505Y-85051581D01*
X112536267Y-84051581D02*
X113202934Y-84051581D01*
X112774362Y-85051581D01*
X115074381Y-79020895D02*
X114074381Y-79020895D01*
X114074381Y-78782800D01*
X114122000Y-78639942D01*
X114217238Y-78544704D01*
X114312476Y-78497085D01*
X114502952Y-78449466D01*
X114645810Y-78449466D01*
X114836286Y-78497085D01*
X114931524Y-78544704D01*
X115026762Y-78639942D01*
X115074381Y-78782800D01*
X115074381Y-79020895D01*
X114502952Y-77878038D02*
X114455333Y-77973276D01*
X114407714Y-78020895D01*
X114312476Y-78068514D01*
X114264857Y-78068514D01*
X114169619Y-78020895D01*
X114122000Y-77973276D01*
X114074381Y-77878038D01*
X114074381Y-77687561D01*
X114122000Y-77592323D01*
X114169619Y-77544704D01*
X114264857Y-77497085D01*
X114312476Y-77497085D01*
X114407714Y-77544704D01*
X114455333Y-77592323D01*
X114502952Y-77687561D01*
X114502952Y-77878038D01*
X114550571Y-77973276D01*
X114598190Y-78020895D01*
X114693429Y-78068514D01*
X114883905Y-78068514D01*
X114979143Y-78020895D01*
X115026762Y-77973276D01*
X115074381Y-77878038D01*
X115074381Y-77687561D01*
X115026762Y-77592323D01*
X114979143Y-77544704D01*
X114883905Y-77497085D01*
X114693429Y-77497085D01*
X114598190Y-77544704D01*
X114550571Y-77592323D01*
X114502952Y-77687561D01*
D11*
X156553714Y-73841428D02*
X155791714Y-73841428D01*
X155791714Y-73551143D01*
X155828000Y-73478571D01*
X155864286Y-73442286D01*
X155936857Y-73406000D01*
X156045714Y-73406000D01*
X156118286Y-73442286D01*
X156154571Y-73478571D01*
X156190857Y-73551143D01*
X156190857Y-73841428D01*
X156553714Y-72680286D02*
X156553714Y-73115714D01*
X156553714Y-72898000D02*
X155791714Y-72898000D01*
X155900571Y-72970571D01*
X155973143Y-73043143D01*
X156009429Y-73115714D01*
X152346571Y-76653571D02*
X152382857Y-76544714D01*
X152419143Y-76508429D01*
X152491714Y-76472143D01*
X152600571Y-76472143D01*
X152673143Y-76508429D01*
X152709429Y-76544714D01*
X152745714Y-76617286D01*
X152745714Y-76907571D01*
X151983714Y-76907571D01*
X151983714Y-76653571D01*
X152020000Y-76581000D01*
X152056286Y-76544714D01*
X152128857Y-76508429D01*
X152201429Y-76508429D01*
X152274000Y-76544714D01*
X152310286Y-76581000D01*
X152346571Y-76653571D01*
X152346571Y-76907571D01*
X152528000Y-76181857D02*
X152528000Y-75819000D01*
X152745714Y-76254429D02*
X151983714Y-76000429D01*
X152745714Y-75746429D01*
X151983714Y-75601286D02*
X151983714Y-75165857D01*
X152745714Y-75383571D02*
X151983714Y-75383571D01*
X151983714Y-75020715D02*
X151983714Y-74585286D01*
X152745714Y-74803000D02*
X151983714Y-74803000D01*
X152346571Y-74331286D02*
X152346571Y-74077286D01*
X152745714Y-73968429D02*
X152745714Y-74331286D01*
X151983714Y-74331286D01*
X151983714Y-73968429D01*
X152745714Y-73206429D02*
X152382857Y-73460429D01*
X152745714Y-73641857D02*
X151983714Y-73641857D01*
X151983714Y-73351572D01*
X152020000Y-73279000D01*
X152056286Y-73242715D01*
X152128857Y-73206429D01*
X152237714Y-73206429D01*
X152310286Y-73242715D01*
X152346571Y-73279000D01*
X152382857Y-73351572D01*
X152382857Y-73641857D01*
X152382857Y-72734715D02*
X152745714Y-72734715D01*
X151983714Y-72988715D02*
X152382857Y-72734715D01*
X151983714Y-72480715D01*
X152818286Y-72408143D02*
X152818286Y-71827572D01*
X152673143Y-71210715D02*
X152709429Y-71247001D01*
X152745714Y-71355858D01*
X152745714Y-71428429D01*
X152709429Y-71537286D01*
X152636857Y-71609858D01*
X152564286Y-71646143D01*
X152419143Y-71682429D01*
X152310286Y-71682429D01*
X152165143Y-71646143D01*
X152092571Y-71609858D01*
X152020000Y-71537286D01*
X151983714Y-71428429D01*
X151983714Y-71355858D01*
X152020000Y-71247001D01*
X152056286Y-71210715D01*
X151983714Y-70739001D02*
X151983714Y-70593858D01*
X152020000Y-70521286D01*
X152092571Y-70448715D01*
X152237714Y-70412429D01*
X152491714Y-70412429D01*
X152636857Y-70448715D01*
X152709429Y-70521286D01*
X152745714Y-70593858D01*
X152745714Y-70739001D01*
X152709429Y-70811572D01*
X152636857Y-70884143D01*
X152491714Y-70920429D01*
X152237714Y-70920429D01*
X152092571Y-70884143D01*
X152020000Y-70811572D01*
X151983714Y-70739001D01*
X152745714Y-70085857D02*
X151983714Y-70085857D01*
X152745714Y-69650429D01*
X151983714Y-69650429D01*
D10*
X127198381Y-89384095D02*
X126198381Y-89384095D01*
X126198381Y-89003142D01*
X126246000Y-88907904D01*
X126293619Y-88860285D01*
X126388857Y-88812666D01*
X126531714Y-88812666D01*
X126626952Y-88860285D01*
X126674571Y-88907904D01*
X126722190Y-89003142D01*
X126722190Y-89384095D01*
X126293619Y-88431714D02*
X126246000Y-88384095D01*
X126198381Y-88288857D01*
X126198381Y-88050761D01*
X126246000Y-87955523D01*
X126293619Y-87907904D01*
X126388857Y-87860285D01*
X126484095Y-87860285D01*
X126626952Y-87907904D01*
X127198381Y-88479333D01*
X127198381Y-87860285D01*
X127198381Y-92384095D02*
X126198381Y-92384095D01*
X126198381Y-92146000D01*
X126246000Y-92003142D01*
X126341238Y-91907904D01*
X126436476Y-91860285D01*
X126626952Y-91812666D01*
X126769810Y-91812666D01*
X126960286Y-91860285D01*
X127055524Y-91907904D01*
X127150762Y-92003142D01*
X127198381Y-92146000D01*
X127198381Y-92384095D01*
X126198381Y-91193619D02*
X126198381Y-91003142D01*
X126246000Y-90907904D01*
X126341238Y-90812666D01*
X126531714Y-90765047D01*
X126865048Y-90765047D01*
X127055524Y-90812666D01*
X127150762Y-90907904D01*
X127198381Y-91003142D01*
X127198381Y-91193619D01*
X127150762Y-91288857D01*
X127055524Y-91384095D01*
X126865048Y-91431714D01*
X126531714Y-91431714D01*
X126341238Y-91384095D01*
X126246000Y-91288857D01*
X126198381Y-91193619D01*
X126198381Y-90431714D02*
X127198381Y-90193619D01*
X126484095Y-90003142D01*
X127198381Y-89812666D01*
X126198381Y-89574571D01*
X127198381Y-89193619D02*
X126198381Y-89193619D01*
X127198381Y-88622190D01*
X126198381Y-88622190D01*
X127198381Y-87669809D02*
X127198381Y-88146000D01*
X126198381Y-88146000D01*
X126198381Y-87146000D02*
X126198381Y-86955523D01*
X126246000Y-86860285D01*
X126341238Y-86765047D01*
X126531714Y-86717428D01*
X126865048Y-86717428D01*
X127055524Y-86765047D01*
X127150762Y-86860285D01*
X127198381Y-86955523D01*
X127198381Y-87146000D01*
X127150762Y-87241238D01*
X127055524Y-87336476D01*
X126865048Y-87384095D01*
X126531714Y-87384095D01*
X126341238Y-87336476D01*
X126246000Y-87241238D01*
X126198381Y-87146000D01*
X126912667Y-86336476D02*
X126912667Y-85860285D01*
X127198381Y-86431714D02*
X126198381Y-86098381D01*
X127198381Y-85765047D01*
X127198381Y-85431714D02*
X126198381Y-85431714D01*
X126198381Y-85193619D01*
X126246000Y-85050761D01*
X126341238Y-84955523D01*
X126436476Y-84907904D01*
X126626952Y-84860285D01*
X126769810Y-84860285D01*
X126960286Y-84907904D01*
X127055524Y-84955523D01*
X127150762Y-85050761D01*
X127198381Y-85193619D01*
X127198381Y-85431714D01*
X147978905Y-80843381D02*
X147978905Y-79843381D01*
X148359858Y-79843381D01*
X148455096Y-79891000D01*
X148502715Y-79938619D01*
X148550334Y-80033857D01*
X148550334Y-80176714D01*
X148502715Y-80271952D01*
X148455096Y-80319571D01*
X148359858Y-80367190D01*
X147978905Y-80367190D01*
X148883667Y-79843381D02*
X149502715Y-79843381D01*
X149169381Y-80224333D01*
X149312239Y-80224333D01*
X149407477Y-80271952D01*
X149455096Y-80319571D01*
X149502715Y-80414810D01*
X149502715Y-80652905D01*
X149455096Y-80748143D01*
X149407477Y-80795762D01*
X149312239Y-80843381D01*
X149026524Y-80843381D01*
X148931286Y-80795762D01*
X148883667Y-80748143D01*
X146145572Y-80843381D02*
X145669381Y-80843381D01*
X145669381Y-79843381D01*
X146240810Y-80938619D02*
X147002715Y-80938619D01*
X147240810Y-80843381D02*
X147240810Y-79843381D01*
X147574144Y-80557667D01*
X147907477Y-79843381D01*
X147907477Y-80843381D01*
X148574143Y-79843381D02*
X148764620Y-79843381D01*
X148859858Y-79891000D01*
X148955096Y-79986238D01*
X149002715Y-80176714D01*
X149002715Y-80510048D01*
X148955096Y-80700524D01*
X148859858Y-80795762D01*
X148764620Y-80843381D01*
X148574143Y-80843381D01*
X148478905Y-80795762D01*
X148383667Y-80700524D01*
X148336048Y-80510048D01*
X148336048Y-80176714D01*
X148383667Y-79986238D01*
X148478905Y-79891000D01*
X148574143Y-79843381D01*
X149288429Y-79843381D02*
X149859858Y-79843381D01*
X149574143Y-80843381D02*
X149574143Y-79843381D01*
X150383667Y-79843381D02*
X150574144Y-79843381D01*
X150669382Y-79891000D01*
X150764620Y-79986238D01*
X150812239Y-80176714D01*
X150812239Y-80510048D01*
X150764620Y-80700524D01*
X150669382Y-80795762D01*
X150574144Y-80843381D01*
X150383667Y-80843381D01*
X150288429Y-80795762D01*
X150193191Y-80700524D01*
X150145572Y-80510048D01*
X150145572Y-80176714D01*
X150193191Y-79986238D01*
X150288429Y-79891000D01*
X150383667Y-79843381D01*
X151812239Y-80843381D02*
X151478905Y-80367190D01*
X151240810Y-80843381D02*
X151240810Y-79843381D01*
X151621763Y-79843381D01*
X151717001Y-79891000D01*
X151764620Y-79938619D01*
X151812239Y-80033857D01*
X151812239Y-80176714D01*
X151764620Y-80271952D01*
X151717001Y-80319571D01*
X151621763Y-80367190D01*
X151240810Y-80367190D01*
X146708905Y-85034381D02*
X146708905Y-84034381D01*
X147089858Y-84034381D01*
X147185096Y-84082000D01*
X147232715Y-84129619D01*
X147280334Y-84224857D01*
X147280334Y-84367714D01*
X147232715Y-84462952D01*
X147185096Y-84510571D01*
X147089858Y-84558190D01*
X146708905Y-84558190D01*
X148137477Y-84367714D02*
X148137477Y-85034381D01*
X147899381Y-83986762D02*
X147661286Y-84701048D01*
X148280334Y-84701048D01*
X144875572Y-85034381D02*
X144542238Y-84558190D01*
X144304143Y-85034381D02*
X144304143Y-84034381D01*
X144685096Y-84034381D01*
X144780334Y-84082000D01*
X144827953Y-84129619D01*
X144875572Y-84224857D01*
X144875572Y-84367714D01*
X144827953Y-84462952D01*
X144780334Y-84510571D01*
X144685096Y-84558190D01*
X144304143Y-84558190D01*
X145066048Y-85129619D02*
X145827953Y-85129619D01*
X146066048Y-85034381D02*
X146066048Y-84034381D01*
X146399382Y-84748667D01*
X146732715Y-84034381D01*
X146732715Y-85034381D01*
X147399381Y-84034381D02*
X147589858Y-84034381D01*
X147685096Y-84082000D01*
X147780334Y-84177238D01*
X147827953Y-84367714D01*
X147827953Y-84701048D01*
X147780334Y-84891524D01*
X147685096Y-84986762D01*
X147589858Y-85034381D01*
X147399381Y-85034381D01*
X147304143Y-84986762D01*
X147208905Y-84891524D01*
X147161286Y-84701048D01*
X147161286Y-84367714D01*
X147208905Y-84177238D01*
X147304143Y-84082000D01*
X147399381Y-84034381D01*
X148113667Y-84034381D02*
X148685096Y-84034381D01*
X148399381Y-85034381D02*
X148399381Y-84034381D01*
X149208905Y-84034381D02*
X149399382Y-84034381D01*
X149494620Y-84082000D01*
X149589858Y-84177238D01*
X149637477Y-84367714D01*
X149637477Y-84701048D01*
X149589858Y-84891524D01*
X149494620Y-84986762D01*
X149399382Y-85034381D01*
X149208905Y-85034381D01*
X149113667Y-84986762D01*
X149018429Y-84891524D01*
X148970810Y-84701048D01*
X148970810Y-84367714D01*
X149018429Y-84177238D01*
X149113667Y-84082000D01*
X149208905Y-84034381D01*
X150637477Y-85034381D02*
X150304143Y-84558190D01*
X150066048Y-85034381D02*
X150066048Y-84034381D01*
X150447001Y-84034381D01*
X150542239Y-84082000D01*
X150589858Y-84129619D01*
X150637477Y-84224857D01*
X150637477Y-84367714D01*
X150589858Y-84462952D01*
X150542239Y-84510571D01*
X150447001Y-84558190D01*
X150066048Y-84558190D01*
X135913905Y-87193381D02*
X135913905Y-86193381D01*
X136294858Y-86193381D01*
X136390096Y-86241000D01*
X136437715Y-86288619D01*
X136485334Y-86383857D01*
X136485334Y-86526714D01*
X136437715Y-86621952D01*
X136390096Y-86669571D01*
X136294858Y-86717190D01*
X135913905Y-86717190D01*
X137390096Y-86193381D02*
X136913905Y-86193381D01*
X136866286Y-86669571D01*
X136913905Y-86621952D01*
X137009143Y-86574333D01*
X137247239Y-86574333D01*
X137342477Y-86621952D01*
X137390096Y-86669571D01*
X137437715Y-86764810D01*
X137437715Y-87002905D01*
X137390096Y-87098143D01*
X137342477Y-87145762D01*
X137247239Y-87193381D01*
X137009143Y-87193381D01*
X136913905Y-87145762D01*
X136866286Y-87098143D01*
X133215524Y-83764381D02*
X132739333Y-83764381D01*
X132739333Y-82764381D01*
X133310762Y-83859619D02*
X134072667Y-83859619D01*
X134310762Y-83240571D02*
X134644096Y-83240571D01*
X134786953Y-83764381D02*
X134310762Y-83764381D01*
X134310762Y-82764381D01*
X134786953Y-82764381D01*
X135215524Y-83764381D02*
X135215524Y-82764381D01*
X135786953Y-83764381D01*
X135786953Y-82764381D01*
X136834572Y-83669143D02*
X136786953Y-83716762D01*
X136644096Y-83764381D01*
X136548858Y-83764381D01*
X136406000Y-83716762D01*
X136310762Y-83621524D01*
X136263143Y-83526286D01*
X136215524Y-83335810D01*
X136215524Y-83192952D01*
X136263143Y-83002476D01*
X136310762Y-82907238D01*
X136406000Y-82812000D01*
X136548858Y-82764381D01*
X136644096Y-82764381D01*
X136786953Y-82812000D01*
X136834572Y-82859619D01*
X137025048Y-83859619D02*
X137786953Y-83859619D01*
X138025048Y-83764381D02*
X138025048Y-82764381D01*
X138358382Y-83478667D01*
X138691715Y-82764381D01*
X138691715Y-83764381D01*
X139120286Y-83478667D02*
X139596477Y-83478667D01*
X139025048Y-83764381D02*
X139358381Y-82764381D01*
X139691715Y-83764381D01*
X140025048Y-83764381D02*
X140025048Y-82764381D01*
X140501238Y-83764381D02*
X140501238Y-82764381D01*
X141072667Y-83764381D01*
X141072667Y-82764381D01*
X135913905Y-78684381D02*
X135913905Y-77684381D01*
X136294858Y-77684381D01*
X136390096Y-77732000D01*
X136437715Y-77779619D01*
X136485334Y-77874857D01*
X136485334Y-78017714D01*
X136437715Y-78112952D01*
X136390096Y-78160571D01*
X136294858Y-78208190D01*
X135913905Y-78208190D01*
X137342477Y-77684381D02*
X137152000Y-77684381D01*
X137056762Y-77732000D01*
X137009143Y-77779619D01*
X136913905Y-77922476D01*
X136866286Y-78112952D01*
X136866286Y-78493905D01*
X136913905Y-78589143D01*
X136961524Y-78636762D01*
X137056762Y-78684381D01*
X137247239Y-78684381D01*
X137342477Y-78636762D01*
X137390096Y-78589143D01*
X137437715Y-78493905D01*
X137437715Y-78255810D01*
X137390096Y-78160571D01*
X137342477Y-78112952D01*
X137247239Y-78065333D01*
X137056762Y-78065333D01*
X136961524Y-78112952D01*
X136913905Y-78160571D01*
X136866286Y-78255810D01*
X132707524Y-82113381D02*
X132374190Y-81637190D01*
X132136095Y-82113381D02*
X132136095Y-81113381D01*
X132517048Y-81113381D01*
X132612286Y-81161000D01*
X132659905Y-81208619D01*
X132707524Y-81303857D01*
X132707524Y-81446714D01*
X132659905Y-81541952D01*
X132612286Y-81589571D01*
X132517048Y-81637190D01*
X132136095Y-81637190D01*
X132898000Y-82208619D02*
X133659905Y-82208619D01*
X133898000Y-81589571D02*
X134231334Y-81589571D01*
X134374191Y-82113381D02*
X133898000Y-82113381D01*
X133898000Y-81113381D01*
X134374191Y-81113381D01*
X134802762Y-82113381D02*
X134802762Y-81113381D01*
X135374191Y-82113381D01*
X135374191Y-81113381D01*
X136421810Y-82018143D02*
X136374191Y-82065762D01*
X136231334Y-82113381D01*
X136136096Y-82113381D01*
X135993238Y-82065762D01*
X135898000Y-81970524D01*
X135850381Y-81875286D01*
X135802762Y-81684810D01*
X135802762Y-81541952D01*
X135850381Y-81351476D01*
X135898000Y-81256238D01*
X135993238Y-81161000D01*
X136136096Y-81113381D01*
X136231334Y-81113381D01*
X136374191Y-81161000D01*
X136421810Y-81208619D01*
X136612286Y-82208619D02*
X137374191Y-82208619D01*
X137612286Y-82113381D02*
X137612286Y-81113381D01*
X137945620Y-81827667D01*
X138278953Y-81113381D01*
X138278953Y-82113381D01*
X138707524Y-81827667D02*
X139183715Y-81827667D01*
X138612286Y-82113381D02*
X138945619Y-81113381D01*
X139278953Y-82113381D01*
X139612286Y-82113381D02*
X139612286Y-81113381D01*
X140088476Y-82113381D02*
X140088476Y-81113381D01*
X140659905Y-82113381D01*
X140659905Y-81113381D01*
X168092381Y-88749095D02*
X167092381Y-88749095D01*
X167092381Y-88368142D01*
X167140000Y-88272904D01*
X167187619Y-88225285D01*
X167282857Y-88177666D01*
X167425714Y-88177666D01*
X167520952Y-88225285D01*
X167568571Y-88272904D01*
X167616190Y-88368142D01*
X167616190Y-88749095D01*
X167092381Y-87844333D02*
X167092381Y-87177666D01*
X168092381Y-87606238D01*
X164663381Y-91185571D02*
X164663381Y-91661762D01*
X163663381Y-91661762D01*
X164758619Y-91090333D02*
X164758619Y-90328428D01*
X164139571Y-90090333D02*
X164139571Y-89756999D01*
X164663381Y-89614142D02*
X164663381Y-90090333D01*
X163663381Y-90090333D01*
X163663381Y-89614142D01*
X164663381Y-89185571D02*
X163663381Y-89185571D01*
X164663381Y-88614142D01*
X163663381Y-88614142D01*
X164568143Y-87566523D02*
X164615762Y-87614142D01*
X164663381Y-87756999D01*
X164663381Y-87852237D01*
X164615762Y-87995095D01*
X164520524Y-88090333D01*
X164425286Y-88137952D01*
X164234810Y-88185571D01*
X164091952Y-88185571D01*
X163901476Y-88137952D01*
X163806238Y-88090333D01*
X163711000Y-87995095D01*
X163663381Y-87852237D01*
X163663381Y-87756999D01*
X163711000Y-87614142D01*
X163758619Y-87566523D01*
X164758619Y-87376047D02*
X164758619Y-86614142D01*
X164615762Y-86423666D02*
X164663381Y-86280809D01*
X164663381Y-86042713D01*
X164615762Y-85947475D01*
X164568143Y-85899856D01*
X164472905Y-85852237D01*
X164377667Y-85852237D01*
X164282429Y-85899856D01*
X164234810Y-85947475D01*
X164187190Y-86042713D01*
X164139571Y-86233190D01*
X164091952Y-86328428D01*
X164044333Y-86376047D01*
X163949095Y-86423666D01*
X163853857Y-86423666D01*
X163758619Y-86376047D01*
X163711000Y-86328428D01*
X163663381Y-86233190D01*
X163663381Y-85995094D01*
X163711000Y-85852237D01*
X163663381Y-85423666D02*
X164472905Y-85423666D01*
X164568143Y-85376047D01*
X164615762Y-85328428D01*
X164663381Y-85233190D01*
X164663381Y-85042713D01*
X164615762Y-84947475D01*
X164568143Y-84899856D01*
X164472905Y-84852237D01*
X163663381Y-84852237D01*
X164139571Y-84042713D02*
X164187190Y-83899856D01*
X164234810Y-83852237D01*
X164330048Y-83804618D01*
X164472905Y-83804618D01*
X164568143Y-83852237D01*
X164615762Y-83899856D01*
X164663381Y-83995094D01*
X164663381Y-84376047D01*
X163663381Y-84376047D01*
X163663381Y-84042713D01*
X163711000Y-83947475D01*
X163758619Y-83899856D01*
X163853857Y-83852237D01*
X163949095Y-83852237D01*
X164044333Y-83899856D01*
X164091952Y-83947475D01*
X164139571Y-84042713D01*
X164139571Y-84376047D01*
X168092381Y-77700095D02*
X167092381Y-77700095D01*
X167092381Y-77319142D01*
X167140000Y-77223904D01*
X167187619Y-77176285D01*
X167282857Y-77128666D01*
X167425714Y-77128666D01*
X167520952Y-77176285D01*
X167568571Y-77223904D01*
X167616190Y-77319142D01*
X167616190Y-77700095D01*
X167520952Y-76557238D02*
X167473333Y-76652476D01*
X167425714Y-76700095D01*
X167330476Y-76747714D01*
X167282857Y-76747714D01*
X167187619Y-76700095D01*
X167140000Y-76652476D01*
X167092381Y-76557238D01*
X167092381Y-76366761D01*
X167140000Y-76271523D01*
X167187619Y-76223904D01*
X167282857Y-76176285D01*
X167330476Y-76176285D01*
X167425714Y-76223904D01*
X167473333Y-76271523D01*
X167520952Y-76366761D01*
X167520952Y-76557238D01*
X167568571Y-76652476D01*
X167616190Y-76700095D01*
X167711429Y-76747714D01*
X167901905Y-76747714D01*
X167997143Y-76700095D01*
X168044762Y-76652476D01*
X168092381Y-76557238D01*
X168092381Y-76366761D01*
X168044762Y-76271523D01*
X167997143Y-76223904D01*
X167901905Y-76176285D01*
X167711429Y-76176285D01*
X167616190Y-76223904D01*
X167568571Y-76271523D01*
X167520952Y-76366761D01*
X164663381Y-80136571D02*
X164187190Y-80469905D01*
X164663381Y-80708000D02*
X163663381Y-80708000D01*
X163663381Y-80327047D01*
X163711000Y-80231809D01*
X163758619Y-80184190D01*
X163853857Y-80136571D01*
X163996714Y-80136571D01*
X164091952Y-80184190D01*
X164139571Y-80231809D01*
X164187190Y-80327047D01*
X164187190Y-80708000D01*
X164758619Y-79946095D02*
X164758619Y-79184190D01*
X164139571Y-78946095D02*
X164139571Y-78612761D01*
X164663381Y-78469904D02*
X164663381Y-78946095D01*
X163663381Y-78946095D01*
X163663381Y-78469904D01*
X164663381Y-78041333D02*
X163663381Y-78041333D01*
X164663381Y-77469904D01*
X163663381Y-77469904D01*
X164568143Y-76422285D02*
X164615762Y-76469904D01*
X164663381Y-76612761D01*
X164663381Y-76707999D01*
X164615762Y-76850857D01*
X164520524Y-76946095D01*
X164425286Y-76993714D01*
X164234810Y-77041333D01*
X164091952Y-77041333D01*
X163901476Y-76993714D01*
X163806238Y-76946095D01*
X163711000Y-76850857D01*
X163663381Y-76707999D01*
X163663381Y-76612761D01*
X163711000Y-76469904D01*
X163758619Y-76422285D01*
X164758619Y-76231809D02*
X164758619Y-75469904D01*
X164615762Y-75279428D02*
X164663381Y-75136571D01*
X164663381Y-74898475D01*
X164615762Y-74803237D01*
X164568143Y-74755618D01*
X164472905Y-74707999D01*
X164377667Y-74707999D01*
X164282429Y-74755618D01*
X164234810Y-74803237D01*
X164187190Y-74898475D01*
X164139571Y-75088952D01*
X164091952Y-75184190D01*
X164044333Y-75231809D01*
X163949095Y-75279428D01*
X163853857Y-75279428D01*
X163758619Y-75231809D01*
X163711000Y-75184190D01*
X163663381Y-75088952D01*
X163663381Y-74850856D01*
X163711000Y-74707999D01*
X163663381Y-74279428D02*
X164472905Y-74279428D01*
X164568143Y-74231809D01*
X164615762Y-74184190D01*
X164663381Y-74088952D01*
X164663381Y-73898475D01*
X164615762Y-73803237D01*
X164568143Y-73755618D01*
X164472905Y-73707999D01*
X163663381Y-73707999D01*
X164139571Y-72898475D02*
X164187190Y-72755618D01*
X164234810Y-72707999D01*
X164330048Y-72660380D01*
X164472905Y-72660380D01*
X164568143Y-72707999D01*
X164615762Y-72755618D01*
X164663381Y-72850856D01*
X164663381Y-73231809D01*
X163663381Y-73231809D01*
X163663381Y-72898475D01*
X163711000Y-72803237D01*
X163758619Y-72755618D01*
X163853857Y-72707999D01*
X163949095Y-72707999D01*
X164044333Y-72755618D01*
X164091952Y-72803237D01*
X164139571Y-72898475D01*
X164139571Y-73231809D01*
X126785619Y-69500738D02*
X126738000Y-69595976D01*
X126642762Y-69691214D01*
X126499905Y-69834071D01*
X126452286Y-69929310D01*
X126452286Y-70024548D01*
X126690381Y-69976929D02*
X126642762Y-70072167D01*
X126547524Y-70167405D01*
X126357048Y-70215024D01*
X126023714Y-70215024D01*
X125833238Y-70167405D01*
X125738000Y-70072167D01*
X125690381Y-69976929D01*
X125690381Y-69786452D01*
X125738000Y-69691214D01*
X125833238Y-69595976D01*
X126023714Y-69548357D01*
X126357048Y-69548357D01*
X126547524Y-69595976D01*
X126642762Y-69691214D01*
X126690381Y-69786452D01*
X126690381Y-69976929D01*
X126690381Y-68595976D02*
X126690381Y-69167405D01*
X126690381Y-68881691D02*
X125690381Y-68881691D01*
X125833238Y-68976929D01*
X125928476Y-69072167D01*
X125976095Y-69167405D01*
X126690381Y-72953119D02*
X126690381Y-73429310D01*
X125690381Y-73429310D01*
X125690381Y-72762643D02*
X125690381Y-72191214D01*
X126690381Y-72476929D02*
X125690381Y-72476929D01*
X126690381Y-71286452D02*
X126214190Y-71619786D01*
X126690381Y-71857881D02*
X125690381Y-71857881D01*
X125690381Y-71476928D01*
X125738000Y-71381690D01*
X125785619Y-71334071D01*
X125880857Y-71286452D01*
X126023714Y-71286452D01*
X126118952Y-71334071D01*
X126166571Y-71381690D01*
X126214190Y-71476928D01*
X126214190Y-71857881D01*
X126309429Y-70857881D02*
X126309429Y-70095976D01*
X126023714Y-69191214D02*
X126690381Y-69191214D01*
X125642762Y-69429310D02*
X126357048Y-69667405D01*
X126357048Y-69048357D01*
X125785619Y-68715024D02*
X125738000Y-68667405D01*
X125690381Y-68572167D01*
X125690381Y-68334071D01*
X125738000Y-68238833D01*
X125785619Y-68191214D01*
X125880857Y-68143595D01*
X125976095Y-68143595D01*
X126118952Y-68191214D01*
X126690381Y-68762643D01*
X126690381Y-68143595D01*
X125690381Y-67524548D02*
X125690381Y-67429309D01*
X125738000Y-67334071D01*
X125785619Y-67286452D01*
X125880857Y-67238833D01*
X126071333Y-67191214D01*
X126309429Y-67191214D01*
X126499905Y-67238833D01*
X126595143Y-67286452D01*
X126642762Y-67334071D01*
X126690381Y-67429309D01*
X126690381Y-67524548D01*
X126642762Y-67619786D01*
X126595143Y-67667405D01*
X126499905Y-67715024D01*
X126309429Y-67762643D01*
X126071333Y-67762643D01*
X125880857Y-67715024D01*
X125785619Y-67667405D01*
X125738000Y-67619786D01*
X125690381Y-67524548D01*
X125690381Y-66334071D02*
X125690381Y-66524548D01*
X125738000Y-66619786D01*
X125785619Y-66667405D01*
X125928476Y-66762643D01*
X126118952Y-66810262D01*
X126499905Y-66810262D01*
X126595143Y-66762643D01*
X126642762Y-66715024D01*
X126690381Y-66619786D01*
X126690381Y-66429309D01*
X126642762Y-66334071D01*
X126595143Y-66286452D01*
X126499905Y-66238833D01*
X126261810Y-66238833D01*
X126166571Y-66286452D01*
X126118952Y-66334071D01*
X126071333Y-66429309D01*
X126071333Y-66619786D01*
X126118952Y-66715024D01*
X126166571Y-66762643D01*
X126261810Y-66810262D01*
X126166571Y-65810262D02*
X126166571Y-65476928D01*
X126690381Y-65334071D02*
X126690381Y-65810262D01*
X125690381Y-65810262D01*
X125690381Y-65334071D01*
X110191562Y-81522819D02*
X110096324Y-81475200D01*
X110001086Y-81379962D01*
X109858229Y-81237105D01*
X109762990Y-81189486D01*
X109667752Y-81189486D01*
X109715371Y-81427581D02*
X109620133Y-81379962D01*
X109524895Y-81284724D01*
X109477276Y-81094248D01*
X109477276Y-80760914D01*
X109524895Y-80570438D01*
X109620133Y-80475200D01*
X109715371Y-80427581D01*
X109905848Y-80427581D01*
X110001086Y-80475200D01*
X110096324Y-80570438D01*
X110143943Y-80760914D01*
X110143943Y-81094248D01*
X110096324Y-81284724D01*
X110001086Y-81379962D01*
X109905848Y-81427581D01*
X109715371Y-81427581D01*
X110477276Y-80427581D02*
X111096324Y-80427581D01*
X110762990Y-80808533D01*
X110905848Y-80808533D01*
X111001086Y-80856152D01*
X111048705Y-80903771D01*
X111096324Y-80999010D01*
X111096324Y-81237105D01*
X111048705Y-81332343D01*
X111001086Y-81379962D01*
X110905848Y-81427581D01*
X110620133Y-81427581D01*
X110524895Y-81379962D01*
X110477276Y-81332343D01*
X106739181Y-81427581D02*
X106262990Y-81427581D01*
X106262990Y-80427581D01*
X106929657Y-80427581D02*
X107501086Y-80427581D01*
X107215371Y-81427581D02*
X107215371Y-80427581D01*
X108405848Y-81427581D02*
X108072514Y-80951390D01*
X107834419Y-81427581D02*
X107834419Y-80427581D01*
X108215372Y-80427581D01*
X108310610Y-80475200D01*
X108358229Y-80522819D01*
X108405848Y-80618057D01*
X108405848Y-80760914D01*
X108358229Y-80856152D01*
X108310610Y-80903771D01*
X108215372Y-80951390D01*
X107834419Y-80951390D01*
X108834419Y-81046629D02*
X109596324Y-81046629D01*
X110501086Y-80760914D02*
X110501086Y-81427581D01*
X110262990Y-80379962D02*
X110024895Y-81094248D01*
X110643943Y-81094248D01*
X110977276Y-80522819D02*
X111024895Y-80475200D01*
X111120133Y-80427581D01*
X111358229Y-80427581D01*
X111453467Y-80475200D01*
X111501086Y-80522819D01*
X111548705Y-80618057D01*
X111548705Y-80713295D01*
X111501086Y-80856152D01*
X110929657Y-81427581D01*
X111548705Y-81427581D01*
X112167752Y-80427581D02*
X112262991Y-80427581D01*
X112358229Y-80475200D01*
X112405848Y-80522819D01*
X112453467Y-80618057D01*
X112501086Y-80808533D01*
X112501086Y-81046629D01*
X112453467Y-81237105D01*
X112405848Y-81332343D01*
X112358229Y-81379962D01*
X112262991Y-81427581D01*
X112167752Y-81427581D01*
X112072514Y-81379962D01*
X112024895Y-81332343D01*
X111977276Y-81237105D01*
X111929657Y-81046629D01*
X111929657Y-80808533D01*
X111977276Y-80618057D01*
X112024895Y-80522819D01*
X112072514Y-80475200D01*
X112167752Y-80427581D01*
X113358229Y-80427581D02*
X113167752Y-80427581D01*
X113072514Y-80475200D01*
X113024895Y-80522819D01*
X112929657Y-80665676D01*
X112882038Y-80856152D01*
X112882038Y-81237105D01*
X112929657Y-81332343D01*
X112977276Y-81379962D01*
X113072514Y-81427581D01*
X113262991Y-81427581D01*
X113358229Y-81379962D01*
X113405848Y-81332343D01*
X113453467Y-81237105D01*
X113453467Y-80999010D01*
X113405848Y-80903771D01*
X113358229Y-80856152D01*
X113262991Y-80808533D01*
X113072514Y-80808533D01*
X112977276Y-80856152D01*
X112929657Y-80903771D01*
X112882038Y-80999010D01*
X113882038Y-80903771D02*
X114215372Y-80903771D01*
X114358229Y-81427581D02*
X113882038Y-81427581D01*
X113882038Y-80427581D01*
X114358229Y-80427581D01*
X110191562Y-84570819D02*
X110096324Y-84523200D01*
X110001086Y-84427962D01*
X109858229Y-84285105D01*
X109762990Y-84237486D01*
X109667752Y-84237486D01*
X109715371Y-84475581D02*
X109620133Y-84427962D01*
X109524895Y-84332724D01*
X109477276Y-84142248D01*
X109477276Y-83808914D01*
X109524895Y-83618438D01*
X109620133Y-83523200D01*
X109715371Y-83475581D01*
X109905848Y-83475581D01*
X110001086Y-83523200D01*
X110096324Y-83618438D01*
X110143943Y-83808914D01*
X110143943Y-84142248D01*
X110096324Y-84332724D01*
X110001086Y-84427962D01*
X109905848Y-84475581D01*
X109715371Y-84475581D01*
X111048705Y-83475581D02*
X110572514Y-83475581D01*
X110524895Y-83951771D01*
X110572514Y-83904152D01*
X110667752Y-83856533D01*
X110905848Y-83856533D01*
X111001086Y-83904152D01*
X111048705Y-83951771D01*
X111096324Y-84047010D01*
X111096324Y-84285105D01*
X111048705Y-84380343D01*
X111001086Y-84427962D01*
X110905848Y-84475581D01*
X110667752Y-84475581D01*
X110572514Y-84427962D01*
X110524895Y-84380343D01*
X106739181Y-84475581D02*
X106262990Y-84475581D01*
X106262990Y-83475581D01*
X106929657Y-83475581D02*
X107501086Y-83475581D01*
X107215371Y-84475581D02*
X107215371Y-83475581D01*
X108405848Y-84475581D02*
X108072514Y-83999390D01*
X107834419Y-84475581D02*
X107834419Y-83475581D01*
X108215372Y-83475581D01*
X108310610Y-83523200D01*
X108358229Y-83570819D01*
X108405848Y-83666057D01*
X108405848Y-83808914D01*
X108358229Y-83904152D01*
X108310610Y-83951771D01*
X108215372Y-83999390D01*
X107834419Y-83999390D01*
X108834419Y-84094629D02*
X109596324Y-84094629D01*
X110501086Y-83808914D02*
X110501086Y-84475581D01*
X110262990Y-83427962D02*
X110024895Y-84142248D01*
X110643943Y-84142248D01*
X110977276Y-83570819D02*
X111024895Y-83523200D01*
X111120133Y-83475581D01*
X111358229Y-83475581D01*
X111453467Y-83523200D01*
X111501086Y-83570819D01*
X111548705Y-83666057D01*
X111548705Y-83761295D01*
X111501086Y-83904152D01*
X110929657Y-84475581D01*
X111548705Y-84475581D01*
X112167752Y-83475581D02*
X112262991Y-83475581D01*
X112358229Y-83523200D01*
X112405848Y-83570819D01*
X112453467Y-83666057D01*
X112501086Y-83856533D01*
X112501086Y-84094629D01*
X112453467Y-84285105D01*
X112405848Y-84380343D01*
X112358229Y-84427962D01*
X112262991Y-84475581D01*
X112167752Y-84475581D01*
X112072514Y-84427962D01*
X112024895Y-84380343D01*
X111977276Y-84285105D01*
X111929657Y-84094629D01*
X111929657Y-83856533D01*
X111977276Y-83666057D01*
X112024895Y-83570819D01*
X112072514Y-83523200D01*
X112167752Y-83475581D01*
X113358229Y-83475581D02*
X113167752Y-83475581D01*
X113072514Y-83523200D01*
X113024895Y-83570819D01*
X112929657Y-83713676D01*
X112882038Y-83904152D01*
X112882038Y-84285105D01*
X112929657Y-84380343D01*
X112977276Y-84427962D01*
X113072514Y-84475581D01*
X113262991Y-84475581D01*
X113358229Y-84427962D01*
X113405848Y-84380343D01*
X113453467Y-84285105D01*
X113453467Y-84047010D01*
X113405848Y-83951771D01*
X113358229Y-83904152D01*
X113262991Y-83856533D01*
X113072514Y-83856533D01*
X112977276Y-83904152D01*
X112929657Y-83951771D01*
X112882038Y-84047010D01*
X113882038Y-83951771D02*
X114215372Y-83951771D01*
X114358229Y-84475581D02*
X113882038Y-84475581D01*
X113882038Y-83475581D01*
X114358229Y-83475581D01*
X126785619Y-95650038D02*
X126738000Y-95745276D01*
X126642762Y-95840514D01*
X126499905Y-95983371D01*
X126452286Y-96078610D01*
X126452286Y-96173848D01*
X126690381Y-96126229D02*
X126642762Y-96221467D01*
X126547524Y-96316705D01*
X126357048Y-96364324D01*
X126023714Y-96364324D01*
X125833238Y-96316705D01*
X125738000Y-96221467D01*
X125690381Y-96126229D01*
X125690381Y-95935752D01*
X125738000Y-95840514D01*
X125833238Y-95745276D01*
X126023714Y-95697657D01*
X126357048Y-95697657D01*
X126547524Y-95745276D01*
X126642762Y-95840514D01*
X126690381Y-95935752D01*
X126690381Y-96126229D01*
X125690381Y-94840514D02*
X125690381Y-95030991D01*
X125738000Y-95126229D01*
X125785619Y-95173848D01*
X125928476Y-95269086D01*
X126118952Y-95316705D01*
X126499905Y-95316705D01*
X126595143Y-95269086D01*
X126642762Y-95221467D01*
X126690381Y-95126229D01*
X126690381Y-94935752D01*
X126642762Y-94840514D01*
X126595143Y-94792895D01*
X126499905Y-94745276D01*
X126261810Y-94745276D01*
X126166571Y-94792895D01*
X126118952Y-94840514D01*
X126071333Y-94935752D01*
X126071333Y-95126229D01*
X126118952Y-95221467D01*
X126166571Y-95269086D01*
X126261810Y-95316705D01*
X126690381Y-99102419D02*
X126690381Y-99578610D01*
X125690381Y-99578610D01*
X125690381Y-98911943D02*
X125690381Y-98340514D01*
X126690381Y-98626229D02*
X125690381Y-98626229D01*
X126690381Y-97435752D02*
X126214190Y-97769086D01*
X126690381Y-98007181D02*
X125690381Y-98007181D01*
X125690381Y-97626228D01*
X125738000Y-97530990D01*
X125785619Y-97483371D01*
X125880857Y-97435752D01*
X126023714Y-97435752D01*
X126118952Y-97483371D01*
X126166571Y-97530990D01*
X126214190Y-97626228D01*
X126214190Y-98007181D01*
X126309429Y-97007181D02*
X126309429Y-96245276D01*
X126023714Y-95340514D02*
X126690381Y-95340514D01*
X125642762Y-95578610D02*
X126357048Y-95816705D01*
X126357048Y-95197657D01*
X125785619Y-94864324D02*
X125738000Y-94816705D01*
X125690381Y-94721467D01*
X125690381Y-94483371D01*
X125738000Y-94388133D01*
X125785619Y-94340514D01*
X125880857Y-94292895D01*
X125976095Y-94292895D01*
X126118952Y-94340514D01*
X126690381Y-94911943D01*
X126690381Y-94292895D01*
X125690381Y-93673848D02*
X125690381Y-93578609D01*
X125738000Y-93483371D01*
X125785619Y-93435752D01*
X125880857Y-93388133D01*
X126071333Y-93340514D01*
X126309429Y-93340514D01*
X126499905Y-93388133D01*
X126595143Y-93435752D01*
X126642762Y-93483371D01*
X126690381Y-93578609D01*
X126690381Y-93673848D01*
X126642762Y-93769086D01*
X126595143Y-93816705D01*
X126499905Y-93864324D01*
X126309429Y-93911943D01*
X126071333Y-93911943D01*
X125880857Y-93864324D01*
X125785619Y-93816705D01*
X125738000Y-93769086D01*
X125690381Y-93673848D01*
X125690381Y-92483371D02*
X125690381Y-92673848D01*
X125738000Y-92769086D01*
X125785619Y-92816705D01*
X125928476Y-92911943D01*
X126118952Y-92959562D01*
X126499905Y-92959562D01*
X126595143Y-92911943D01*
X126642762Y-92864324D01*
X126690381Y-92769086D01*
X126690381Y-92578609D01*
X126642762Y-92483371D01*
X126595143Y-92435752D01*
X126499905Y-92388133D01*
X126261810Y-92388133D01*
X126166571Y-92435752D01*
X126118952Y-92483371D01*
X126071333Y-92578609D01*
X126071333Y-92769086D01*
X126118952Y-92864324D01*
X126166571Y-92911943D01*
X126261810Y-92959562D01*
X126166571Y-91959562D02*
X126166571Y-91626228D01*
X126690381Y-91483371D02*
X126690381Y-91959562D01*
X125690381Y-91959562D01*
X125690381Y-91483371D01*
X152206619Y-76676238D02*
X152159000Y-76771476D01*
X152063762Y-76866714D01*
X151920905Y-77009571D01*
X151873286Y-77104810D01*
X151873286Y-77200048D01*
X152111381Y-77152429D02*
X152063762Y-77247667D01*
X151968524Y-77342905D01*
X151778048Y-77390524D01*
X151444714Y-77390524D01*
X151254238Y-77342905D01*
X151159000Y-77247667D01*
X151111381Y-77152429D01*
X151111381Y-76961952D01*
X151159000Y-76866714D01*
X151254238Y-76771476D01*
X151444714Y-76723857D01*
X151778048Y-76723857D01*
X151968524Y-76771476D01*
X152063762Y-76866714D01*
X152111381Y-76961952D01*
X152111381Y-77152429D01*
X151539952Y-76152429D02*
X151492333Y-76247667D01*
X151444714Y-76295286D01*
X151349476Y-76342905D01*
X151301857Y-76342905D01*
X151206619Y-76295286D01*
X151159000Y-76247667D01*
X151111381Y-76152429D01*
X151111381Y-75961952D01*
X151159000Y-75866714D01*
X151206619Y-75819095D01*
X151301857Y-75771476D01*
X151349476Y-75771476D01*
X151444714Y-75819095D01*
X151492333Y-75866714D01*
X151539952Y-75961952D01*
X151539952Y-76152429D01*
X151587571Y-76247667D01*
X151635190Y-76295286D01*
X151730429Y-76342905D01*
X151920905Y-76342905D01*
X152016143Y-76295286D01*
X152063762Y-76247667D01*
X152111381Y-76152429D01*
X152111381Y-75961952D01*
X152063762Y-75866714D01*
X152016143Y-75819095D01*
X151920905Y-75771476D01*
X151730429Y-75771476D01*
X151635190Y-75819095D01*
X151587571Y-75866714D01*
X151539952Y-75961952D01*
X123277334Y-73653381D02*
X122944000Y-73177190D01*
X122705905Y-73653381D02*
X122705905Y-72653381D01*
X123086858Y-72653381D01*
X123182096Y-72701000D01*
X123229715Y-72748619D01*
X123277334Y-72843857D01*
X123277334Y-72986714D01*
X123229715Y-73081952D01*
X123182096Y-73129571D01*
X123086858Y-73177190D01*
X122705905Y-73177190D01*
X124229715Y-73653381D02*
X123658286Y-73653381D01*
X123944000Y-73653381D02*
X123944000Y-72653381D01*
X123848762Y-72796238D01*
X123753524Y-72891476D01*
X123658286Y-72939095D01*
X119436881Y-70842166D02*
X118960690Y-71175500D01*
X119436881Y-71413595D02*
X118436881Y-71413595D01*
X118436881Y-71032642D01*
X118484500Y-70937404D01*
X118532119Y-70889785D01*
X118627357Y-70842166D01*
X118770214Y-70842166D01*
X118865452Y-70889785D01*
X118913071Y-70937404D01*
X118960690Y-71032642D01*
X118960690Y-71413595D01*
X118532119Y-70461214D02*
X118484500Y-70413595D01*
X118436881Y-70318357D01*
X118436881Y-70080261D01*
X118484500Y-69985023D01*
X118532119Y-69937404D01*
X118627357Y-69889785D01*
X118722595Y-69889785D01*
X118865452Y-69937404D01*
X119436881Y-70508833D01*
X119436881Y-69889785D01*
X120516381Y-70842166D02*
X120040190Y-71175500D01*
X120516381Y-71413595D02*
X119516381Y-71413595D01*
X119516381Y-71032642D01*
X119564000Y-70937404D01*
X119611619Y-70889785D01*
X119706857Y-70842166D01*
X119849714Y-70842166D01*
X119944952Y-70889785D01*
X119992571Y-70937404D01*
X120040190Y-71032642D01*
X120040190Y-71413595D01*
X119516381Y-70508833D02*
X119516381Y-69889785D01*
X119897333Y-70223119D01*
X119897333Y-70080261D01*
X119944952Y-69985023D01*
X119992571Y-69937404D01*
X120087810Y-69889785D01*
X120325905Y-69889785D01*
X120421143Y-69937404D01*
X120468762Y-69985023D01*
X120516381Y-70080261D01*
X120516381Y-70365976D01*
X120468762Y-70461214D01*
X120421143Y-70508833D01*
X117371834Y-71176881D02*
X117038500Y-70700690D01*
X116800405Y-71176881D02*
X116800405Y-70176881D01*
X117181358Y-70176881D01*
X117276596Y-70224500D01*
X117324215Y-70272119D01*
X117371834Y-70367357D01*
X117371834Y-70510214D01*
X117324215Y-70605452D01*
X117276596Y-70653071D01*
X117181358Y-70700690D01*
X116800405Y-70700690D01*
X118228977Y-70510214D02*
X118228977Y-71176881D01*
X117990881Y-70129262D02*
X117752786Y-70843548D01*
X118371834Y-70843548D01*
X112202934Y-79727581D02*
X111869600Y-79251390D01*
X111631505Y-79727581D02*
X111631505Y-78727581D01*
X112012458Y-78727581D01*
X112107696Y-78775200D01*
X112155315Y-78822819D01*
X112202934Y-78918057D01*
X112202934Y-79060914D01*
X112155315Y-79156152D01*
X112107696Y-79203771D01*
X112012458Y-79251390D01*
X111631505Y-79251390D01*
X113107696Y-78727581D02*
X112631505Y-78727581D01*
X112583886Y-79203771D01*
X112631505Y-79156152D01*
X112726743Y-79108533D01*
X112964839Y-79108533D01*
X113060077Y-79156152D01*
X113107696Y-79203771D01*
X113155315Y-79299010D01*
X113155315Y-79537105D01*
X113107696Y-79632343D01*
X113060077Y-79679962D01*
X112964839Y-79727581D01*
X112726743Y-79727581D01*
X112631505Y-79679962D01*
X112583886Y-79632343D01*
X111186934Y-72307181D02*
X110853600Y-71830990D01*
X110615505Y-72307181D02*
X110615505Y-71307181D01*
X110996458Y-71307181D01*
X111091696Y-71354800D01*
X111139315Y-71402419D01*
X111186934Y-71497657D01*
X111186934Y-71640514D01*
X111139315Y-71735752D01*
X111091696Y-71783371D01*
X110996458Y-71830990D01*
X110615505Y-71830990D01*
X112044077Y-71307181D02*
X111853600Y-71307181D01*
X111758362Y-71354800D01*
X111710743Y-71402419D01*
X111615505Y-71545276D01*
X111567886Y-71735752D01*
X111567886Y-72116705D01*
X111615505Y-72211943D01*
X111663124Y-72259562D01*
X111758362Y-72307181D01*
X111948839Y-72307181D01*
X112044077Y-72259562D01*
X112091696Y-72211943D01*
X112139315Y-72116705D01*
X112139315Y-71878610D01*
X112091696Y-71783371D01*
X112044077Y-71735752D01*
X111948839Y-71688133D01*
X111758362Y-71688133D01*
X111663124Y-71735752D01*
X111615505Y-71783371D01*
X111567886Y-71878610D01*
X109750381Y-71947066D02*
X109274190Y-72280400D01*
X109750381Y-72518495D02*
X108750381Y-72518495D01*
X108750381Y-72137542D01*
X108798000Y-72042304D01*
X108845619Y-71994685D01*
X108940857Y-71947066D01*
X109083714Y-71947066D01*
X109178952Y-71994685D01*
X109226571Y-72042304D01*
X109274190Y-72137542D01*
X109274190Y-72518495D01*
X108750381Y-71613733D02*
X108750381Y-70947066D01*
X109750381Y-71375638D01*
X108988381Y-76620666D02*
X108512190Y-76954000D01*
X108988381Y-77192095D02*
X107988381Y-77192095D01*
X107988381Y-76811142D01*
X108036000Y-76715904D01*
X108083619Y-76668285D01*
X108178857Y-76620666D01*
X108321714Y-76620666D01*
X108416952Y-76668285D01*
X108464571Y-76715904D01*
X108512190Y-76811142D01*
X108512190Y-77192095D01*
X108416952Y-76049238D02*
X108369333Y-76144476D01*
X108321714Y-76192095D01*
X108226476Y-76239714D01*
X108178857Y-76239714D01*
X108083619Y-76192095D01*
X108036000Y-76144476D01*
X107988381Y-76049238D01*
X107988381Y-75858761D01*
X108036000Y-75763523D01*
X108083619Y-75715904D01*
X108178857Y-75668285D01*
X108226476Y-75668285D01*
X108321714Y-75715904D01*
X108369333Y-75763523D01*
X108416952Y-75858761D01*
X108416952Y-76049238D01*
X108464571Y-76144476D01*
X108512190Y-76192095D01*
X108607429Y-76239714D01*
X108797905Y-76239714D01*
X108893143Y-76192095D01*
X108940762Y-76144476D01*
X108988381Y-76049238D01*
X108988381Y-75858761D01*
X108940762Y-75763523D01*
X108893143Y-75715904D01*
X108797905Y-75668285D01*
X108607429Y-75668285D01*
X108512190Y-75715904D01*
X108464571Y-75763523D01*
X108416952Y-75858761D01*
X148169334Y-71142381D02*
X147836000Y-70666190D01*
X147597905Y-71142381D02*
X147597905Y-70142381D01*
X147978858Y-70142381D01*
X148074096Y-70190000D01*
X148121715Y-70237619D01*
X148169334Y-70332857D01*
X148169334Y-70475714D01*
X148121715Y-70570952D01*
X148074096Y-70618571D01*
X147978858Y-70666190D01*
X147597905Y-70666190D01*
X148645524Y-71142381D02*
X148836000Y-71142381D01*
X148931239Y-71094762D01*
X148978858Y-71047143D01*
X149074096Y-70904286D01*
X149121715Y-70713810D01*
X149121715Y-70332857D01*
X149074096Y-70237619D01*
X149026477Y-70190000D01*
X148931239Y-70142381D01*
X148740762Y-70142381D01*
X148645524Y-70190000D01*
X148597905Y-70237619D01*
X148550286Y-70332857D01*
X148550286Y-70570952D01*
X148597905Y-70666190D01*
X148645524Y-70713810D01*
X148740762Y-70761429D01*
X148931239Y-70761429D01*
X149026477Y-70713810D01*
X149074096Y-70666190D01*
X149121715Y-70570952D01*
X111726743Y-82775581D02*
X111393409Y-82299390D01*
X111155314Y-82775581D02*
X111155314Y-81775581D01*
X111536267Y-81775581D01*
X111631505Y-81823200D01*
X111679124Y-81870819D01*
X111726743Y-81966057D01*
X111726743Y-82108914D01*
X111679124Y-82204152D01*
X111631505Y-82251771D01*
X111536267Y-82299390D01*
X111155314Y-82299390D01*
X112679124Y-82775581D02*
X112107695Y-82775581D01*
X112393409Y-82775581D02*
X112393409Y-81775581D01*
X112298171Y-81918438D01*
X112202933Y-82013676D01*
X112107695Y-82061295D01*
X113298171Y-81775581D02*
X113393410Y-81775581D01*
X113488648Y-81823200D01*
X113536267Y-81870819D01*
X113583886Y-81966057D01*
X113631505Y-82156533D01*
X113631505Y-82394629D01*
X113583886Y-82585105D01*
X113536267Y-82680343D01*
X113488648Y-82727962D01*
X113393410Y-82775581D01*
X113298171Y-82775581D01*
X113202933Y-82727962D01*
X113155314Y-82680343D01*
X113107695Y-82585105D01*
X113060076Y-82394629D01*
X113060076Y-82156533D01*
X113107695Y-81966057D01*
X113155314Y-81870819D01*
X113202933Y-81823200D01*
X113298171Y-81775581D01*
X110456743Y-93748381D02*
X110123409Y-93272190D01*
X109885314Y-93748381D02*
X109885314Y-92748381D01*
X110266267Y-92748381D01*
X110361505Y-92796000D01*
X110409124Y-92843619D01*
X110456743Y-92938857D01*
X110456743Y-93081714D01*
X110409124Y-93176952D01*
X110361505Y-93224571D01*
X110266267Y-93272190D01*
X109885314Y-93272190D01*
X111409124Y-93748381D02*
X110837695Y-93748381D01*
X111123409Y-93748381D02*
X111123409Y-92748381D01*
X111028171Y-92891238D01*
X110932933Y-92986476D01*
X110837695Y-93034095D01*
X112361505Y-93748381D02*
X111790076Y-93748381D01*
X112075790Y-93748381D02*
X112075790Y-92748381D01*
X111980552Y-92891238D01*
X111885314Y-92986476D01*
X111790076Y-93034095D01*
X109699581Y-93860857D02*
X109223390Y-94194191D01*
X109699581Y-94432286D02*
X108699581Y-94432286D01*
X108699581Y-94051333D01*
X108747200Y-93956095D01*
X108794819Y-93908476D01*
X108890057Y-93860857D01*
X109032914Y-93860857D01*
X109128152Y-93908476D01*
X109175771Y-93956095D01*
X109223390Y-94051333D01*
X109223390Y-94432286D01*
X109699581Y-92908476D02*
X109699581Y-93479905D01*
X109699581Y-93194191D02*
X108699581Y-93194191D01*
X108842438Y-93289429D01*
X108937676Y-93384667D01*
X108985295Y-93479905D01*
X108794819Y-92527524D02*
X108747200Y-92479905D01*
X108699581Y-92384667D01*
X108699581Y-92146571D01*
X108747200Y-92051333D01*
X108794819Y-92003714D01*
X108890057Y-91956095D01*
X108985295Y-91956095D01*
X109128152Y-92003714D01*
X109699581Y-92575143D01*
X109699581Y-91956095D01*
X123105943Y-96030781D02*
X122772609Y-95554590D01*
X122534514Y-96030781D02*
X122534514Y-95030781D01*
X122915467Y-95030781D01*
X123010705Y-95078400D01*
X123058324Y-95126019D01*
X123105943Y-95221257D01*
X123105943Y-95364114D01*
X123058324Y-95459352D01*
X123010705Y-95506971D01*
X122915467Y-95554590D01*
X122534514Y-95554590D01*
X124058324Y-96030781D02*
X123486895Y-96030781D01*
X123772609Y-96030781D02*
X123772609Y-95030781D01*
X123677371Y-95173638D01*
X123582133Y-95268876D01*
X123486895Y-95316495D01*
X124391657Y-95030781D02*
X125010705Y-95030781D01*
X124677371Y-95411733D01*
X124820229Y-95411733D01*
X124915467Y-95459352D01*
X124963086Y-95506971D01*
X125010705Y-95602210D01*
X125010705Y-95840305D01*
X124963086Y-95935543D01*
X124915467Y-95983162D01*
X124820229Y-96030781D01*
X124534514Y-96030781D01*
X124439276Y-95983162D01*
X124391657Y-95935543D01*
X112388381Y-90965257D02*
X111912190Y-91298591D01*
X112388381Y-91536686D02*
X111388381Y-91536686D01*
X111388381Y-91155733D01*
X111436000Y-91060495D01*
X111483619Y-91012876D01*
X111578857Y-90965257D01*
X111721714Y-90965257D01*
X111816952Y-91012876D01*
X111864571Y-91060495D01*
X111912190Y-91155733D01*
X111912190Y-91536686D01*
X112388381Y-90012876D02*
X112388381Y-90584305D01*
X112388381Y-90298591D02*
X111388381Y-90298591D01*
X111531238Y-90393829D01*
X111626476Y-90489067D01*
X111674095Y-90584305D01*
X111721714Y-89155733D02*
X112388381Y-89155733D01*
X111340762Y-89393829D02*
X112055048Y-89631924D01*
X112055048Y-89012876D01*
X112387143Y-91309981D02*
X112053809Y-90833790D01*
X111815714Y-91309981D02*
X111815714Y-90309981D01*
X112196667Y-90309981D01*
X112291905Y-90357600D01*
X112339524Y-90405219D01*
X112387143Y-90500457D01*
X112387143Y-90643314D01*
X112339524Y-90738552D01*
X112291905Y-90786171D01*
X112196667Y-90833790D01*
X111815714Y-90833790D01*
X113339524Y-91309981D02*
X112768095Y-91309981D01*
X113053809Y-91309981D02*
X113053809Y-90309981D01*
X112958571Y-90452838D01*
X112863333Y-90548076D01*
X112768095Y-90595695D01*
X114244286Y-90309981D02*
X113768095Y-90309981D01*
X113720476Y-90786171D01*
X113768095Y-90738552D01*
X113863333Y-90690933D01*
X114101429Y-90690933D01*
X114196667Y-90738552D01*
X114244286Y-90786171D01*
X114291905Y-90881410D01*
X114291905Y-91119505D01*
X114244286Y-91214743D01*
X114196667Y-91262362D01*
X114101429Y-91309981D01*
X113863333Y-91309981D01*
X113768095Y-91262362D01*
X113720476Y-91214743D01*
X115182381Y-95029257D02*
X114706190Y-95362591D01*
X115182381Y-95600686D02*
X114182381Y-95600686D01*
X114182381Y-95219733D01*
X114230000Y-95124495D01*
X114277619Y-95076876D01*
X114372857Y-95029257D01*
X114515714Y-95029257D01*
X114610952Y-95076876D01*
X114658571Y-95124495D01*
X114706190Y-95219733D01*
X114706190Y-95600686D01*
X115182381Y-94076876D02*
X115182381Y-94648305D01*
X115182381Y-94362591D02*
X114182381Y-94362591D01*
X114325238Y-94457829D01*
X114420476Y-94553067D01*
X114468095Y-94648305D01*
X114182381Y-93219733D02*
X114182381Y-93410210D01*
X114230000Y-93505448D01*
X114277619Y-93553067D01*
X114420476Y-93648305D01*
X114610952Y-93695924D01*
X114991905Y-93695924D01*
X115087143Y-93648305D01*
X115134762Y-93600686D01*
X115182381Y-93505448D01*
X115182381Y-93314971D01*
X115134762Y-93219733D01*
X115087143Y-93172114D01*
X114991905Y-93124495D01*
X114753810Y-93124495D01*
X114658571Y-93172114D01*
X114610952Y-93219733D01*
X114563333Y-93314971D01*
X114563333Y-93505448D01*
X114610952Y-93600686D01*
X114658571Y-93648305D01*
X114753810Y-93695924D01*
X138993643Y-84638881D02*
X138660309Y-84162690D01*
X138422214Y-84638881D02*
X138422214Y-83638881D01*
X138803167Y-83638881D01*
X138898405Y-83686500D01*
X138946024Y-83734119D01*
X138993643Y-83829357D01*
X138993643Y-83972214D01*
X138946024Y-84067452D01*
X138898405Y-84115071D01*
X138803167Y-84162690D01*
X138422214Y-84162690D01*
X139946024Y-84638881D02*
X139374595Y-84638881D01*
X139660309Y-84638881D02*
X139660309Y-83638881D01*
X139565071Y-83781738D01*
X139469833Y-83876976D01*
X139374595Y-83924595D01*
X140279357Y-83638881D02*
X140946024Y-83638881D01*
X140517452Y-84638881D01*
X117009943Y-95878381D02*
X116676609Y-95402190D01*
X116438514Y-95878381D02*
X116438514Y-94878381D01*
X116819467Y-94878381D01*
X116914705Y-94926000D01*
X116962324Y-94973619D01*
X117009943Y-95068857D01*
X117009943Y-95211714D01*
X116962324Y-95306952D01*
X116914705Y-95354571D01*
X116819467Y-95402190D01*
X116438514Y-95402190D01*
X117962324Y-95878381D02*
X117390895Y-95878381D01*
X117676609Y-95878381D02*
X117676609Y-94878381D01*
X117581371Y-95021238D01*
X117486133Y-95116476D01*
X117390895Y-95164095D01*
X118533752Y-95306952D02*
X118438514Y-95259333D01*
X118390895Y-95211714D01*
X118343276Y-95116476D01*
X118343276Y-95068857D01*
X118390895Y-94973619D01*
X118438514Y-94926000D01*
X118533752Y-94878381D01*
X118724229Y-94878381D01*
X118819467Y-94926000D01*
X118867086Y-94973619D01*
X118914705Y-95068857D01*
X118914705Y-95116476D01*
X118867086Y-95211714D01*
X118819467Y-95259333D01*
X118724229Y-95306952D01*
X118533752Y-95306952D01*
X118438514Y-95354571D01*
X118390895Y-95402190D01*
X118343276Y-95497429D01*
X118343276Y-95687905D01*
X118390895Y-95783143D01*
X118438514Y-95830762D01*
X118533752Y-95878381D01*
X118724229Y-95878381D01*
X118819467Y-95830762D01*
X118867086Y-95783143D01*
X118914705Y-95687905D01*
X118914705Y-95497429D01*
X118867086Y-95402190D01*
X118819467Y-95354571D01*
X118724229Y-95306952D01*
X121277143Y-76637881D02*
X120943809Y-76161690D01*
X120705714Y-76637881D02*
X120705714Y-75637881D01*
X121086667Y-75637881D01*
X121181905Y-75685500D01*
X121229524Y-75733119D01*
X121277143Y-75828357D01*
X121277143Y-75971214D01*
X121229524Y-76066452D01*
X121181905Y-76114071D01*
X121086667Y-76161690D01*
X120705714Y-76161690D01*
X122229524Y-76637881D02*
X121658095Y-76637881D01*
X121943809Y-76637881D02*
X121943809Y-75637881D01*
X121848571Y-75780738D01*
X121753333Y-75875976D01*
X121658095Y-75923595D01*
X122705714Y-76637881D02*
X122896190Y-76637881D01*
X122991429Y-76590262D01*
X123039048Y-76542643D01*
X123134286Y-76399786D01*
X123181905Y-76209310D01*
X123181905Y-75828357D01*
X123134286Y-75733119D01*
X123086667Y-75685500D01*
X122991429Y-75637881D01*
X122800952Y-75637881D01*
X122705714Y-75685500D01*
X122658095Y-75733119D01*
X122610476Y-75828357D01*
X122610476Y-76066452D01*
X122658095Y-76161690D01*
X122705714Y-76209310D01*
X122800952Y-76256929D01*
X122991429Y-76256929D01*
X123086667Y-76209310D01*
X123134286Y-76161690D01*
X123181905Y-76066452D01*
X120100881Y-73413857D02*
X119624690Y-73747191D01*
X120100881Y-73985286D02*
X119100881Y-73985286D01*
X119100881Y-73604333D01*
X119148500Y-73509095D01*
X119196119Y-73461476D01*
X119291357Y-73413857D01*
X119434214Y-73413857D01*
X119529452Y-73461476D01*
X119577071Y-73509095D01*
X119624690Y-73604333D01*
X119624690Y-73985286D01*
X119196119Y-73032905D02*
X119148500Y-72985286D01*
X119100881Y-72890048D01*
X119100881Y-72651952D01*
X119148500Y-72556714D01*
X119196119Y-72509095D01*
X119291357Y-72461476D01*
X119386595Y-72461476D01*
X119529452Y-72509095D01*
X120100881Y-73080524D01*
X120100881Y-72461476D01*
X119100881Y-71842429D02*
X119100881Y-71747190D01*
X119148500Y-71651952D01*
X119196119Y-71604333D01*
X119291357Y-71556714D01*
X119481833Y-71509095D01*
X119719929Y-71509095D01*
X119910405Y-71556714D01*
X120005643Y-71604333D01*
X120053262Y-71651952D01*
X120100881Y-71747190D01*
X120100881Y-71842429D01*
X120053262Y-71937667D01*
X120005643Y-71985286D01*
X119910405Y-72032905D01*
X119719929Y-72080524D01*
X119481833Y-72080524D01*
X119291357Y-72032905D01*
X119196119Y-71985286D01*
X119148500Y-71937667D01*
X119100881Y-71842429D01*
X121214881Y-91130357D02*
X120738690Y-91463691D01*
X121214881Y-91701786D02*
X120214881Y-91701786D01*
X120214881Y-91320833D01*
X120262500Y-91225595D01*
X120310119Y-91177976D01*
X120405357Y-91130357D01*
X120548214Y-91130357D01*
X120643452Y-91177976D01*
X120691071Y-91225595D01*
X120738690Y-91320833D01*
X120738690Y-91701786D01*
X120310119Y-90749405D02*
X120262500Y-90701786D01*
X120214881Y-90606548D01*
X120214881Y-90368452D01*
X120262500Y-90273214D01*
X120310119Y-90225595D01*
X120405357Y-90177976D01*
X120500595Y-90177976D01*
X120643452Y-90225595D01*
X121214881Y-90797024D01*
X121214881Y-90177976D01*
X121214881Y-89225595D02*
X121214881Y-89797024D01*
X121214881Y-89511310D02*
X120214881Y-89511310D01*
X120357738Y-89606548D01*
X120452976Y-89701786D01*
X120500595Y-89797024D01*
X118738381Y-91168457D02*
X118262190Y-91501791D01*
X118738381Y-91739886D02*
X117738381Y-91739886D01*
X117738381Y-91358933D01*
X117786000Y-91263695D01*
X117833619Y-91216076D01*
X117928857Y-91168457D01*
X118071714Y-91168457D01*
X118166952Y-91216076D01*
X118214571Y-91263695D01*
X118262190Y-91358933D01*
X118262190Y-91739886D01*
X117833619Y-90787505D02*
X117786000Y-90739886D01*
X117738381Y-90644648D01*
X117738381Y-90406552D01*
X117786000Y-90311314D01*
X117833619Y-90263695D01*
X117928857Y-90216076D01*
X118024095Y-90216076D01*
X118166952Y-90263695D01*
X118738381Y-90835124D01*
X118738381Y-90216076D01*
X117833619Y-89835124D02*
X117786000Y-89787505D01*
X117738381Y-89692267D01*
X117738381Y-89454171D01*
X117786000Y-89358933D01*
X117833619Y-89311314D01*
X117928857Y-89263695D01*
X118024095Y-89263695D01*
X118166952Y-89311314D01*
X118738381Y-89882743D01*
X118738381Y-89263695D01*
X111879143Y-87652381D02*
X111545809Y-87176190D01*
X111307714Y-87652381D02*
X111307714Y-86652381D01*
X111688667Y-86652381D01*
X111783905Y-86700000D01*
X111831524Y-86747619D01*
X111879143Y-86842857D01*
X111879143Y-86985714D01*
X111831524Y-87080952D01*
X111783905Y-87128571D01*
X111688667Y-87176190D01*
X111307714Y-87176190D01*
X112260095Y-86747619D02*
X112307714Y-86700000D01*
X112402952Y-86652381D01*
X112641048Y-86652381D01*
X112736286Y-86700000D01*
X112783905Y-86747619D01*
X112831524Y-86842857D01*
X112831524Y-86938095D01*
X112783905Y-87080952D01*
X112212476Y-87652381D01*
X112831524Y-87652381D01*
X113164857Y-86652381D02*
X113783905Y-86652381D01*
X113450571Y-87033333D01*
X113593429Y-87033333D01*
X113688667Y-87080952D01*
X113736286Y-87128571D01*
X113783905Y-87223810D01*
X113783905Y-87461905D01*
X113736286Y-87557143D01*
X113688667Y-87604762D01*
X113593429Y-87652381D01*
X113307714Y-87652381D01*
X113212476Y-87604762D01*
X113164857Y-87557143D01*
X120071881Y-91130357D02*
X119595690Y-91463691D01*
X120071881Y-91701786D02*
X119071881Y-91701786D01*
X119071881Y-91320833D01*
X119119500Y-91225595D01*
X119167119Y-91177976D01*
X119262357Y-91130357D01*
X119405214Y-91130357D01*
X119500452Y-91177976D01*
X119548071Y-91225595D01*
X119595690Y-91320833D01*
X119595690Y-91701786D01*
X119167119Y-90749405D02*
X119119500Y-90701786D01*
X119071881Y-90606548D01*
X119071881Y-90368452D01*
X119119500Y-90273214D01*
X119167119Y-90225595D01*
X119262357Y-90177976D01*
X119357595Y-90177976D01*
X119500452Y-90225595D01*
X120071881Y-90797024D01*
X120071881Y-90177976D01*
X119405214Y-89320833D02*
X120071881Y-89320833D01*
X119024262Y-89558929D02*
X119738548Y-89797024D01*
X119738548Y-89177976D01*
X103954343Y-76882781D02*
X103621009Y-76406590D01*
X103382914Y-76882781D02*
X103382914Y-75882781D01*
X103763867Y-75882781D01*
X103859105Y-75930400D01*
X103906724Y-75978019D01*
X103954343Y-76073257D01*
X103954343Y-76216114D01*
X103906724Y-76311352D01*
X103859105Y-76358971D01*
X103763867Y-76406590D01*
X103382914Y-76406590D01*
X104335295Y-75978019D02*
X104382914Y-75930400D01*
X104478152Y-75882781D01*
X104716248Y-75882781D01*
X104811486Y-75930400D01*
X104859105Y-75978019D01*
X104906724Y-76073257D01*
X104906724Y-76168495D01*
X104859105Y-76311352D01*
X104287676Y-76882781D01*
X104906724Y-76882781D01*
X105811486Y-75882781D02*
X105335295Y-75882781D01*
X105287676Y-76358971D01*
X105335295Y-76311352D01*
X105430533Y-76263733D01*
X105668629Y-76263733D01*
X105763867Y-76311352D01*
X105811486Y-76358971D01*
X105859105Y-76454210D01*
X105859105Y-76692305D01*
X105811486Y-76787543D01*
X105763867Y-76835162D01*
X105668629Y-76882781D01*
X105430533Y-76882781D01*
X105335295Y-76835162D01*
X105287676Y-76787543D01*
X128198643Y-84511881D02*
X127865309Y-84035690D01*
X127627214Y-84511881D02*
X127627214Y-83511881D01*
X128008167Y-83511881D01*
X128103405Y-83559500D01*
X128151024Y-83607119D01*
X128198643Y-83702357D01*
X128198643Y-83845214D01*
X128151024Y-83940452D01*
X128103405Y-83988071D01*
X128008167Y-84035690D01*
X127627214Y-84035690D01*
X128579595Y-83607119D02*
X128627214Y-83559500D01*
X128722452Y-83511881D01*
X128960548Y-83511881D01*
X129055786Y-83559500D01*
X129103405Y-83607119D01*
X129151024Y-83702357D01*
X129151024Y-83797595D01*
X129103405Y-83940452D01*
X128531976Y-84511881D01*
X129151024Y-84511881D01*
X130008167Y-83511881D02*
X129817690Y-83511881D01*
X129722452Y-83559500D01*
X129674833Y-83607119D01*
X129579595Y-83749976D01*
X129531976Y-83940452D01*
X129531976Y-84321405D01*
X129579595Y-84416643D01*
X129627214Y-84464262D01*
X129722452Y-84511881D01*
X129912929Y-84511881D01*
X130008167Y-84464262D01*
X130055786Y-84416643D01*
X130103405Y-84321405D01*
X130103405Y-84083310D01*
X130055786Y-83988071D01*
X130008167Y-83940452D01*
X129912929Y-83892833D01*
X129722452Y-83892833D01*
X129627214Y-83940452D01*
X129579595Y-83988071D01*
X129531976Y-84083310D01*
X116350781Y-79179657D02*
X115874590Y-79512991D01*
X116350781Y-79751086D02*
X115350781Y-79751086D01*
X115350781Y-79370133D01*
X115398400Y-79274895D01*
X115446019Y-79227276D01*
X115541257Y-79179657D01*
X115684114Y-79179657D01*
X115779352Y-79227276D01*
X115826971Y-79274895D01*
X115874590Y-79370133D01*
X115874590Y-79751086D01*
X115446019Y-78798705D02*
X115398400Y-78751086D01*
X115350781Y-78655848D01*
X115350781Y-78417752D01*
X115398400Y-78322514D01*
X115446019Y-78274895D01*
X115541257Y-78227276D01*
X115636495Y-78227276D01*
X115779352Y-78274895D01*
X116350781Y-78846324D01*
X116350781Y-78227276D01*
X115350781Y-77893943D02*
X115350781Y-77227276D01*
X116350781Y-77655848D01*
X149772667Y-72921762D02*
X149915524Y-72969381D01*
X150153620Y-72969381D01*
X150248858Y-72921762D01*
X150296477Y-72874143D01*
X150344096Y-72778905D01*
X150344096Y-72683667D01*
X150296477Y-72588429D01*
X150248858Y-72540810D01*
X150153620Y-72493190D01*
X149963143Y-72445571D01*
X149867905Y-72397952D01*
X149820286Y-72350333D01*
X149772667Y-72255095D01*
X149772667Y-72159857D01*
X149820286Y-72064619D01*
X149867905Y-72017000D01*
X149963143Y-71969381D01*
X150201239Y-71969381D01*
X150344096Y-72017000D01*
X150677429Y-71969381D02*
X150915524Y-72969381D01*
X151106001Y-72255095D01*
X151296477Y-72969381D01*
X151534572Y-71969381D01*
X152439334Y-72969381D02*
X151867905Y-72969381D01*
X152153619Y-72969381D02*
X152153619Y-71969381D01*
X152058381Y-72112238D01*
X151963143Y-72207476D01*
X151867905Y-72255095D01*
X147118667Y-94351762D02*
X147261524Y-94399381D01*
X147499620Y-94399381D01*
X147594858Y-94351762D01*
X147642477Y-94304143D01*
X147690096Y-94208905D01*
X147690096Y-94113667D01*
X147642477Y-94018429D01*
X147594858Y-93970810D01*
X147499620Y-93923190D01*
X147309143Y-93875571D01*
X147213905Y-93827952D01*
X147166286Y-93780333D01*
X147118667Y-93685095D01*
X147118667Y-93589857D01*
X147166286Y-93494619D01*
X147213905Y-93447000D01*
X147309143Y-93399381D01*
X147547239Y-93399381D01*
X147690096Y-93447000D01*
X148023429Y-93399381D02*
X148261524Y-94399381D01*
X148452001Y-93685095D01*
X148642477Y-94399381D01*
X148880572Y-93399381D01*
X149213905Y-93494619D02*
X149261524Y-93447000D01*
X149356762Y-93399381D01*
X149594858Y-93399381D01*
X149690096Y-93447000D01*
X149737715Y-93494619D01*
X149785334Y-93589857D01*
X149785334Y-93685095D01*
X149737715Y-93827952D01*
X149166286Y-94399381D01*
X149785334Y-94399381D01*
X102362095Y-81875381D02*
X102362095Y-82684905D01*
X102409714Y-82780143D01*
X102457333Y-82827762D01*
X102552571Y-82875381D01*
X102743048Y-82875381D01*
X102838286Y-82827762D01*
X102885905Y-82780143D01*
X102933524Y-82684905D01*
X102933524Y-81875381D01*
X103933524Y-82875381D02*
X103362095Y-82875381D01*
X103647809Y-82875381D02*
X103647809Y-81875381D01*
X103552571Y-82018238D01*
X103457333Y-82113476D01*
X103362095Y-82161095D01*
X99243048Y-82875381D02*
X99243048Y-81875381D01*
X99576382Y-82589667D01*
X99909715Y-81875381D01*
X99909715Y-82875381D01*
X100385905Y-82875381D02*
X100385905Y-81875381D01*
X100766858Y-81875381D01*
X100862096Y-81923000D01*
X100909715Y-81970619D01*
X100957334Y-82065857D01*
X100957334Y-82208714D01*
X100909715Y-82303952D01*
X100862096Y-82351571D01*
X100766858Y-82399190D01*
X100385905Y-82399190D01*
X101385905Y-81875381D02*
X101385905Y-82684905D01*
X101433524Y-82780143D01*
X101481143Y-82827762D01*
X101576381Y-82875381D01*
X101766858Y-82875381D01*
X101862096Y-82827762D01*
X101909715Y-82780143D01*
X101957334Y-82684905D01*
X101957334Y-81875381D01*
X102433524Y-82494429D02*
X103195429Y-82494429D01*
X104100191Y-81875381D02*
X103909714Y-81875381D01*
X103814476Y-81923000D01*
X103766857Y-81970619D01*
X103671619Y-82113476D01*
X103624000Y-82303952D01*
X103624000Y-82684905D01*
X103671619Y-82780143D01*
X103719238Y-82827762D01*
X103814476Y-82875381D01*
X104004953Y-82875381D01*
X104100191Y-82827762D01*
X104147810Y-82780143D01*
X104195429Y-82684905D01*
X104195429Y-82446810D01*
X104147810Y-82351571D01*
X104100191Y-82303952D01*
X104004953Y-82256333D01*
X103814476Y-82256333D01*
X103719238Y-82303952D01*
X103671619Y-82351571D01*
X103624000Y-82446810D01*
X105100191Y-81875381D02*
X104624000Y-81875381D01*
X104576381Y-82351571D01*
X104624000Y-82303952D01*
X104719238Y-82256333D01*
X104957334Y-82256333D01*
X105052572Y-82303952D01*
X105100191Y-82351571D01*
X105147810Y-82446810D01*
X105147810Y-82684905D01*
X105100191Y-82780143D01*
X105052572Y-82827762D01*
X104957334Y-82875381D01*
X104719238Y-82875381D01*
X104624000Y-82827762D01*
X104576381Y-82780143D01*
X105766857Y-81875381D02*
X105862096Y-81875381D01*
X105957334Y-81923000D01*
X106004953Y-81970619D01*
X106052572Y-82065857D01*
X106100191Y-82256333D01*
X106100191Y-82494429D01*
X106052572Y-82684905D01*
X106004953Y-82780143D01*
X105957334Y-82827762D01*
X105862096Y-82875381D01*
X105766857Y-82875381D01*
X105671619Y-82827762D01*
X105624000Y-82780143D01*
X105576381Y-82684905D01*
X105528762Y-82494429D01*
X105528762Y-82256333D01*
X105576381Y-82065857D01*
X105624000Y-81970619D01*
X105671619Y-81923000D01*
X105766857Y-81875381D01*
X106719238Y-81875381D02*
X106814477Y-81875381D01*
X106909715Y-81923000D01*
X106957334Y-81970619D01*
X107004953Y-82065857D01*
X107052572Y-82256333D01*
X107052572Y-82494429D01*
X107004953Y-82684905D01*
X106957334Y-82780143D01*
X106909715Y-82827762D01*
X106814477Y-82875381D01*
X106719238Y-82875381D01*
X106624000Y-82827762D01*
X106576381Y-82780143D01*
X106528762Y-82684905D01*
X106481143Y-82494429D01*
X106481143Y-82256333D01*
X106528762Y-82065857D01*
X106576381Y-81970619D01*
X106624000Y-81923000D01*
X106719238Y-81875381D01*
X115816881Y-83248405D02*
X116626405Y-83248405D01*
X116721643Y-83200786D01*
X116769262Y-83153167D01*
X116816881Y-83057929D01*
X116816881Y-82867452D01*
X116769262Y-82772214D01*
X116721643Y-82724595D01*
X116626405Y-82676976D01*
X115816881Y-82676976D01*
X116150214Y-81772214D02*
X116816881Y-81772214D01*
X115769262Y-82010310D02*
X116483548Y-82248405D01*
X116483548Y-81629357D01*
X151471381Y-83248405D02*
X152280905Y-83248405D01*
X152376143Y-83200786D01*
X152423762Y-83153167D01*
X152471381Y-83057929D01*
X152471381Y-82867452D01*
X152423762Y-82772214D01*
X152376143Y-82724595D01*
X152280905Y-82676976D01*
X151471381Y-82676976D01*
X151471381Y-81724595D02*
X151471381Y-82200786D01*
X151947571Y-82248405D01*
X151899952Y-82200786D01*
X151852333Y-82105548D01*
X151852333Y-81867452D01*
X151899952Y-81772214D01*
X151947571Y-81724595D01*
X152042810Y-81676976D01*
X152280905Y-81676976D01*
X152376143Y-81724595D01*
X152423762Y-81772214D01*
X152471381Y-81867452D01*
X152471381Y-82105548D01*
X152423762Y-82200786D01*
X152376143Y-82248405D01*
X150439381Y-85708738D02*
X149439381Y-85708738D01*
X149439381Y-85470643D01*
X149487000Y-85327785D01*
X149582238Y-85232547D01*
X149677476Y-85184928D01*
X149867952Y-85137309D01*
X150010810Y-85137309D01*
X150201286Y-85184928D01*
X150296524Y-85232547D01*
X150391762Y-85327785D01*
X150439381Y-85470643D01*
X150439381Y-85708738D01*
X150439381Y-84137309D02*
X149963190Y-84470643D01*
X150439381Y-84708738D02*
X149439381Y-84708738D01*
X149439381Y-84327785D01*
X149487000Y-84232547D01*
X149534619Y-84184928D01*
X149629857Y-84137309D01*
X149772714Y-84137309D01*
X149867952Y-84184928D01*
X149915571Y-84232547D01*
X149963190Y-84327785D01*
X149963190Y-84708738D01*
X149439381Y-83851595D02*
X150439381Y-83518262D01*
X149439381Y-83184928D01*
X149867952Y-82708738D02*
X149820333Y-82803976D01*
X149772714Y-82851595D01*
X149677476Y-82899214D01*
X149629857Y-82899214D01*
X149534619Y-82851595D01*
X149487000Y-82803976D01*
X149439381Y-82708738D01*
X149439381Y-82518261D01*
X149487000Y-82423023D01*
X149534619Y-82375404D01*
X149629857Y-82327785D01*
X149677476Y-82327785D01*
X149772714Y-82375404D01*
X149820333Y-82423023D01*
X149867952Y-82518261D01*
X149867952Y-82708738D01*
X149915571Y-82803976D01*
X149963190Y-82851595D01*
X150058429Y-82899214D01*
X150248905Y-82899214D01*
X150344143Y-82851595D01*
X150391762Y-82803976D01*
X150439381Y-82708738D01*
X150439381Y-82518261D01*
X150391762Y-82423023D01*
X150344143Y-82375404D01*
X150248905Y-82327785D01*
X150058429Y-82327785D01*
X149963190Y-82375404D01*
X149915571Y-82423023D01*
X149867952Y-82518261D01*
X149867952Y-81756357D02*
X149820333Y-81851595D01*
X149772714Y-81899214D01*
X149677476Y-81946833D01*
X149629857Y-81946833D01*
X149534619Y-81899214D01*
X149487000Y-81851595D01*
X149439381Y-81756357D01*
X149439381Y-81565880D01*
X149487000Y-81470642D01*
X149534619Y-81423023D01*
X149629857Y-81375404D01*
X149677476Y-81375404D01*
X149772714Y-81423023D01*
X149820333Y-81470642D01*
X149867952Y-81565880D01*
X149867952Y-81756357D01*
X149915571Y-81851595D01*
X149963190Y-81899214D01*
X150058429Y-81946833D01*
X150248905Y-81946833D01*
X150344143Y-81899214D01*
X150391762Y-81851595D01*
X150439381Y-81756357D01*
X150439381Y-81565880D01*
X150391762Y-81470642D01*
X150344143Y-81423023D01*
X150248905Y-81375404D01*
X150058429Y-81375404D01*
X149963190Y-81423023D01*
X149915571Y-81470642D01*
X149867952Y-81565880D01*
X149439381Y-81042071D02*
X149439381Y-80423023D01*
X149820333Y-80756357D01*
X149820333Y-80613499D01*
X149867952Y-80518261D01*
X149915571Y-80470642D01*
X150010810Y-80423023D01*
X150248905Y-80423023D01*
X150344143Y-80470642D01*
X150391762Y-80518261D01*
X150439381Y-80613499D01*
X150439381Y-80899214D01*
X150391762Y-80994452D01*
X150344143Y-81042071D01*
X149439381Y-79565880D02*
X149439381Y-79756357D01*
X149487000Y-79851595D01*
X149534619Y-79899214D01*
X149677476Y-79994452D01*
X149867952Y-80042071D01*
X150248905Y-80042071D01*
X150344143Y-79994452D01*
X150391762Y-79946833D01*
X150439381Y-79851595D01*
X150439381Y-79661118D01*
X150391762Y-79565880D01*
X150344143Y-79518261D01*
X150248905Y-79470642D01*
X150010810Y-79470642D01*
X149915571Y-79518261D01*
X149867952Y-79565880D01*
X149820333Y-79661118D01*
X149820333Y-79851595D01*
X149867952Y-79946833D01*
X149915571Y-79994452D01*
X150010810Y-80042071D01*
X160020095Y-90863381D02*
X160020095Y-91672905D01*
X160067714Y-91768143D01*
X160115333Y-91815762D01*
X160210571Y-91863381D01*
X160401048Y-91863381D01*
X160496286Y-91815762D01*
X160543905Y-91768143D01*
X160591524Y-91672905D01*
X160591524Y-90863381D01*
X161496286Y-90863381D02*
X161305809Y-90863381D01*
X161210571Y-90911000D01*
X161162952Y-90958619D01*
X161067714Y-91101476D01*
X161020095Y-91291952D01*
X161020095Y-91672905D01*
X161067714Y-91768143D01*
X161115333Y-91815762D01*
X161210571Y-91863381D01*
X161401048Y-91863381D01*
X161496286Y-91815762D01*
X161543905Y-91768143D01*
X161591524Y-91672905D01*
X161591524Y-91434810D01*
X161543905Y-91339571D01*
X161496286Y-91291952D01*
X161401048Y-91244333D01*
X161210571Y-91244333D01*
X161115333Y-91291952D01*
X161067714Y-91339571D01*
X161020095Y-91434810D01*
X160020095Y-79814381D02*
X160020095Y-80623905D01*
X160067714Y-80719143D01*
X160115333Y-80766762D01*
X160210571Y-80814381D01*
X160401048Y-80814381D01*
X160496286Y-80766762D01*
X160543905Y-80719143D01*
X160591524Y-80623905D01*
X160591524Y-79814381D01*
X160972476Y-79814381D02*
X161639143Y-79814381D01*
X161210571Y-80814381D01*
X120792976Y-87463381D02*
X121459643Y-88463381D01*
X121459643Y-87463381D02*
X120792976Y-88463381D01*
X122364405Y-88463381D02*
X121792976Y-88463381D01*
X122078690Y-88463381D02*
X122078690Y-87463381D01*
X121983452Y-87606238D01*
X121888214Y-87701476D01*
X121792976Y-87749095D01*
X115054881Y-93108143D02*
X115007262Y-93155762D01*
X114864405Y-93203381D01*
X114769167Y-93203381D01*
X114626309Y-93155762D01*
X114531071Y-93060524D01*
X114483452Y-92965286D01*
X114435833Y-92774810D01*
X114435833Y-92631952D01*
X114483452Y-92441476D01*
X114531071Y-92346238D01*
X114626309Y-92251000D01*
X114769167Y-92203381D01*
X114864405Y-92203381D01*
X115007262Y-92251000D01*
X115054881Y-92298619D01*
X115435833Y-93155762D02*
X115578690Y-93203381D01*
X115816786Y-93203381D01*
X115912024Y-93155762D01*
X115959643Y-93108143D01*
X116007262Y-93012905D01*
X116007262Y-92917667D01*
X115959643Y-92822429D01*
X115912024Y-92774810D01*
X115816786Y-92727190D01*
X115626309Y-92679571D01*
X115531071Y-92631952D01*
X115483452Y-92584333D01*
X115435833Y-92489095D01*
X115435833Y-92393857D01*
X115483452Y-92298619D01*
X115531071Y-92251000D01*
X115626309Y-92203381D01*
X115864405Y-92203381D01*
X116007262Y-92251000D01*
X116292976Y-92203381D02*
X116864405Y-92203381D01*
X116578690Y-93203381D02*
X116578690Y-92203381D01*
X117769167Y-93108143D02*
X117721548Y-93155762D01*
X117578691Y-93203381D01*
X117483453Y-93203381D01*
X117340595Y-93155762D01*
X117245357Y-93060524D01*
X117197738Y-92965286D01*
X117150119Y-92774810D01*
X117150119Y-92631952D01*
X117197738Y-92441476D01*
X117245357Y-92346238D01*
X117340595Y-92251000D01*
X117483453Y-92203381D01*
X117578691Y-92203381D01*
X117721548Y-92251000D01*
X117769167Y-92298619D01*
X118197738Y-92679571D02*
X118531072Y-92679571D01*
X118673929Y-93203381D02*
X118197738Y-93203381D01*
X118197738Y-92203381D01*
X118673929Y-92203381D01*
X119626310Y-93203381D02*
X119054881Y-93203381D01*
X119340595Y-93203381D02*
X119340595Y-92203381D01*
X119245357Y-92346238D01*
X119150119Y-92441476D01*
X119054881Y-92489095D01*
X120007262Y-92298619D02*
X120054881Y-92251000D01*
X120150119Y-92203381D01*
X120388215Y-92203381D01*
X120483453Y-92251000D01*
X120531072Y-92298619D01*
X120578691Y-92393857D01*
X120578691Y-92489095D01*
X120531072Y-92631952D01*
X119959643Y-93203381D01*
X120578691Y-93203381D01*
X121007262Y-93203381D02*
X121007262Y-92203381D01*
X121340596Y-92917667D01*
X121673929Y-92203381D01*
X121673929Y-93203381D01*
X122340595Y-92203381D02*
X122435834Y-92203381D01*
X122531072Y-92251000D01*
X122578691Y-92298619D01*
X122626310Y-92393857D01*
X122673929Y-92584333D01*
X122673929Y-92822429D01*
X122626310Y-93012905D01*
X122578691Y-93108143D01*
X122531072Y-93155762D01*
X122435834Y-93203381D01*
X122340595Y-93203381D01*
X122245357Y-93155762D01*
X122197738Y-93108143D01*
X122150119Y-93012905D01*
X122102500Y-92822429D01*
X122102500Y-92584333D01*
X122150119Y-92393857D01*
X122197738Y-92298619D01*
X122245357Y-92251000D01*
X122340595Y-92203381D01*
X123626310Y-92251000D02*
X123531072Y-92203381D01*
X123388215Y-92203381D01*
X123245357Y-92251000D01*
X123150119Y-92346238D01*
X123102500Y-92441476D01*
X123054881Y-92631952D01*
X123054881Y-92774810D01*
X123102500Y-92965286D01*
X123150119Y-93060524D01*
X123245357Y-93155762D01*
X123388215Y-93203381D01*
X123483453Y-93203381D01*
X123626310Y-93155762D01*
X123673929Y-93108143D01*
X123673929Y-92774810D01*
X123483453Y-92774810D01*
X124578691Y-92203381D02*
X124102500Y-92203381D01*
X124054881Y-92679571D01*
X124102500Y-92631952D01*
X124197738Y-92584333D01*
X124435834Y-92584333D01*
X124531072Y-92631952D01*
X124578691Y-92679571D01*
X124626310Y-92774810D01*
X124626310Y-93012905D01*
X124578691Y-93108143D01*
X124531072Y-93155762D01*
X124435834Y-93203381D01*
X124197738Y-93203381D01*
X124102500Y-93155762D01*
X124054881Y-93108143D01*
X125531072Y-92203381D02*
X125054881Y-92203381D01*
X125007262Y-92679571D01*
X125054881Y-92631952D01*
X125150119Y-92584333D01*
X125388215Y-92584333D01*
X125483453Y-92631952D01*
X125531072Y-92679571D01*
X125578691Y-92774810D01*
X125578691Y-93012905D01*
X125531072Y-93108143D01*
X125483453Y-93155762D01*
X125388215Y-93203381D01*
X125150119Y-93203381D01*
X125054881Y-93155762D01*
X125007262Y-93108143D01*
X126007262Y-92822429D02*
X126769167Y-92822429D01*
X127816786Y-93203381D02*
X127483452Y-92727190D01*
X127245357Y-93203381D02*
X127245357Y-92203381D01*
X127626310Y-92203381D01*
X127721548Y-92251000D01*
X127769167Y-92298619D01*
X127816786Y-92393857D01*
X127816786Y-92536714D01*
X127769167Y-92631952D01*
X127721548Y-92679571D01*
X127626310Y-92727190D01*
X127245357Y-92727190D01*
X128435833Y-92203381D02*
X128531072Y-92203381D01*
X128626310Y-92251000D01*
X128673929Y-92298619D01*
X128721548Y-92393857D01*
X128769167Y-92584333D01*
X128769167Y-92822429D01*
X128721548Y-93012905D01*
X128673929Y-93108143D01*
X128626310Y-93155762D01*
X128531072Y-93203381D01*
X128435833Y-93203381D01*
X128340595Y-93155762D01*
X128292976Y-93108143D01*
X128245357Y-93012905D01*
X128197738Y-92822429D01*
X128197738Y-92584333D01*
X128245357Y-92393857D01*
X128292976Y-92298619D01*
X128340595Y-92251000D01*
X128435833Y-92203381D01*
X119165619Y-70389738D02*
X119118000Y-70484976D01*
X119022762Y-70580214D01*
X118879905Y-70723071D01*
X118832286Y-70818310D01*
X118832286Y-70913548D01*
X119070381Y-70865929D02*
X119022762Y-70961167D01*
X118927524Y-71056405D01*
X118737048Y-71104024D01*
X118403714Y-71104024D01*
X118213238Y-71056405D01*
X118118000Y-70961167D01*
X118070381Y-70865929D01*
X118070381Y-70675452D01*
X118118000Y-70580214D01*
X118213238Y-70484976D01*
X118403714Y-70437357D01*
X118737048Y-70437357D01*
X118927524Y-70484976D01*
X119022762Y-70580214D01*
X119070381Y-70675452D01*
X119070381Y-70865929D01*
X118165619Y-70056405D02*
X118118000Y-70008786D01*
X118070381Y-69913548D01*
X118070381Y-69675452D01*
X118118000Y-69580214D01*
X118165619Y-69532595D01*
X118260857Y-69484976D01*
X118356095Y-69484976D01*
X118498952Y-69532595D01*
X119070381Y-70104024D01*
X119070381Y-69484976D01*
X111342419Y-72155038D02*
X111294800Y-72250276D01*
X111199562Y-72345514D01*
X111056705Y-72488371D01*
X111009086Y-72583610D01*
X111009086Y-72678848D01*
X111247181Y-72631229D02*
X111199562Y-72726467D01*
X111104324Y-72821705D01*
X110913848Y-72869324D01*
X110580514Y-72869324D01*
X110390038Y-72821705D01*
X110294800Y-72726467D01*
X110247181Y-72631229D01*
X110247181Y-72440752D01*
X110294800Y-72345514D01*
X110390038Y-72250276D01*
X110580514Y-72202657D01*
X110913848Y-72202657D01*
X111104324Y-72250276D01*
X111199562Y-72345514D01*
X111247181Y-72440752D01*
X111247181Y-72631229D01*
X110580514Y-71345514D02*
X111247181Y-71345514D01*
X110199562Y-71583610D02*
X110913848Y-71821705D01*
X110913848Y-71202657D01*
X111342419Y-93287838D02*
X111294800Y-93383076D01*
X111199562Y-93478314D01*
X111056705Y-93621171D01*
X111009086Y-93716410D01*
X111009086Y-93811648D01*
X111247181Y-93764029D02*
X111199562Y-93859267D01*
X111104324Y-93954505D01*
X110913848Y-94002124D01*
X110580514Y-94002124D01*
X110390038Y-93954505D01*
X110294800Y-93859267D01*
X110247181Y-93764029D01*
X110247181Y-93573552D01*
X110294800Y-93478314D01*
X110390038Y-93383076D01*
X110580514Y-93335457D01*
X110913848Y-93335457D01*
X111104324Y-93383076D01*
X111199562Y-93478314D01*
X111247181Y-93573552D01*
X111247181Y-93764029D01*
X110247181Y-93002124D02*
X110247181Y-92335457D01*
X111247181Y-92764029D01*
X113679219Y-94354638D02*
X113631600Y-94449876D01*
X113536362Y-94545114D01*
X113393505Y-94687971D01*
X113345886Y-94783210D01*
X113345886Y-94878448D01*
X113583981Y-94830829D02*
X113536362Y-94926067D01*
X113441124Y-95021305D01*
X113250648Y-95068924D01*
X112917314Y-95068924D01*
X112726838Y-95021305D01*
X112631600Y-94926067D01*
X112583981Y-94830829D01*
X112583981Y-94640352D01*
X112631600Y-94545114D01*
X112726838Y-94449876D01*
X112917314Y-94402257D01*
X113250648Y-94402257D01*
X113441124Y-94449876D01*
X113536362Y-94545114D01*
X113583981Y-94640352D01*
X113583981Y-94830829D01*
X113583981Y-93926067D02*
X113583981Y-93735591D01*
X113536362Y-93640352D01*
X113488743Y-93592733D01*
X113345886Y-93497495D01*
X113155410Y-93449876D01*
X112774457Y-93449876D01*
X112679219Y-93497495D01*
X112631600Y-93545114D01*
X112583981Y-93640352D01*
X112583981Y-93830829D01*
X112631600Y-93926067D01*
X112679219Y-93973686D01*
X112774457Y-94021305D01*
X113012552Y-94021305D01*
X113107790Y-93973686D01*
X113155410Y-93926067D01*
X113203029Y-93830829D01*
X113203029Y-93640352D01*
X113155410Y-93545114D01*
X113107790Y-93497495D01*
X113012552Y-93449876D01*
X130607381Y-73278905D02*
X131416905Y-73278905D01*
X131512143Y-73231286D01*
X131559762Y-73183667D01*
X131607381Y-73088429D01*
X131607381Y-72897952D01*
X131559762Y-72802714D01*
X131512143Y-72755095D01*
X131416905Y-72707476D01*
X130607381Y-72707476D01*
X130702619Y-72278905D02*
X130655000Y-72231286D01*
X130607381Y-72136048D01*
X130607381Y-71897952D01*
X130655000Y-71802714D01*
X130702619Y-71755095D01*
X130797857Y-71707476D01*
X130893095Y-71707476D01*
X131035952Y-71755095D01*
X131607381Y-72326524D01*
X131607381Y-71707476D01*
X146228381Y-93217905D02*
X147037905Y-93217905D01*
X147133143Y-93170286D01*
X147180762Y-93122667D01*
X147228381Y-93027429D01*
X147228381Y-92836952D01*
X147180762Y-92741714D01*
X147133143Y-92694095D01*
X147037905Y-92646476D01*
X146228381Y-92646476D01*
X146228381Y-92265524D02*
X146228381Y-91646476D01*
X146609333Y-91979810D01*
X146609333Y-91836952D01*
X146656952Y-91741714D01*
X146704571Y-91694095D01*
X146799810Y-91646476D01*
X147037905Y-91646476D01*
X147133143Y-91694095D01*
X147180762Y-91741714D01*
X147228381Y-91836952D01*
X147228381Y-92122667D01*
X147180762Y-92217905D01*
X147133143Y-92265524D01*
%LPC*%
D12*
X103394000Y-87731600D03*
X105394000Y-87731600D03*
D13*
X103793200Y-86106000D03*
X104893200Y-86106000D03*
D14*
X105918000Y-81949200D03*
X105918000Y-83049200D03*
X116332000Y-84730500D03*
X116332000Y-85830500D03*
X123634500Y-75543500D03*
X123634500Y-74443500D03*
D15*
X131953000Y-73517000D03*
X131953000Y-71517000D03*
D12*
X143621000Y-89281000D03*
X141621000Y-89281000D03*
D14*
X117983000Y-87545000D03*
X117983000Y-86445000D03*
D15*
X125730000Y-73517000D03*
X125730000Y-71517000D03*
X141732000Y-93456000D03*
X141732000Y-91456000D03*
D12*
X154416000Y-79629000D03*
X152416000Y-79629000D03*
X139684000Y-77216000D03*
X137684000Y-77216000D03*
X140128500Y-88455500D03*
X138128500Y-88455500D03*
D16*
X123761500Y-69405500D03*
X123761500Y-66865500D03*
D17*
X110286800Y-78638400D03*
X107746800Y-78638400D03*
X110286800Y-86360000D03*
X107746800Y-86360000D03*
D12*
X137715500Y-82486500D03*
X135715500Y-82486500D03*
D16*
X123748800Y-95554800D03*
X123748800Y-98094800D03*
D15*
X112522000Y-85715600D03*
X112522000Y-87715600D03*
D12*
X113369600Y-82499200D03*
X111369600Y-82499200D03*
D15*
X112522000Y-77282800D03*
X112522000Y-79282800D03*
D18*
X146493000Y-76791000D03*
X149922000Y-76791000D03*
X149860000Y-88138000D03*
X146558000Y-88138000D03*
D19*
X154051000Y-72079000D03*
X154051000Y-73606000D03*
D16*
X126746000Y-88646000D03*
X126746000Y-89916000D03*
X126746000Y-91186000D03*
X126746000Y-92456000D03*
D17*
X148717000Y-80391000D03*
X147447000Y-80391000D03*
X147447000Y-84582000D03*
X148717000Y-84582000D03*
D20*
X134112000Y-85090000D03*
X136144000Y-85090000D03*
X135128000Y-85090000D03*
X139192000Y-85090000D03*
X138176000Y-85090000D03*
X137160000Y-85090000D03*
X139192000Y-79883000D03*
X137160000Y-79883000D03*
X138176000Y-79883000D03*
X134112000Y-79883000D03*
X135128000Y-79883000D03*
X136144000Y-79883000D03*
D21*
X165989000Y-90551000D03*
X165989000Y-88519000D03*
X165989000Y-89535000D03*
X165989000Y-85471000D03*
X165989000Y-86487000D03*
X165989000Y-87503000D03*
X165989000Y-79502000D03*
X165989000Y-77470000D03*
X165989000Y-78486000D03*
X165989000Y-74422000D03*
X165989000Y-75438000D03*
X165989000Y-76454000D03*
D16*
X126238000Y-69405500D03*
X126238000Y-66865500D03*
D17*
X110286800Y-80975200D03*
X107746800Y-80975200D03*
X110286800Y-84023200D03*
X107746800Y-84023200D03*
D16*
X126238000Y-95554800D03*
X126238000Y-98094800D03*
D22*
X153609000Y-77681000D03*
X154559000Y-77681000D03*
X155509000Y-77681000D03*
X155509000Y-75481000D03*
X153609000Y-75481000D03*
X154559000Y-75481000D03*
D13*
X123994000Y-71501000D03*
X122894000Y-71501000D03*
D14*
X117284500Y-70125500D03*
X117284500Y-71225500D03*
X118364000Y-70125500D03*
X118364000Y-71225500D03*
D13*
X118088500Y-69024500D03*
X116988500Y-69024500D03*
X111819600Y-80975200D03*
X112919600Y-80975200D03*
X111903600Y-70154800D03*
X110803600Y-70154800D03*
D14*
X110998000Y-72330400D03*
X110998000Y-71230400D03*
X110236000Y-77004000D03*
X110236000Y-75904000D03*
D13*
X147786000Y-72390000D03*
X148886000Y-72390000D03*
X111819600Y-84023200D03*
X112919600Y-84023200D03*
X110549600Y-94996000D03*
X111649600Y-94996000D03*
D14*
X110947200Y-93768000D03*
X110947200Y-92668000D03*
D13*
X124298800Y-93878400D03*
X123198800Y-93878400D03*
D14*
X110236000Y-89772400D03*
X110236000Y-90872400D03*
D13*
X112480000Y-92557600D03*
X113580000Y-92557600D03*
D14*
X113030000Y-93836400D03*
X113030000Y-94936400D03*
D13*
X140186500Y-82486500D03*
X139086500Y-82486500D03*
X118202800Y-93726000D03*
X117102800Y-93726000D03*
X122470000Y-74485500D03*
X121370000Y-74485500D03*
D14*
X121348500Y-73321000D03*
X121348500Y-72221000D03*
X119062500Y-89937500D03*
X119062500Y-91037500D03*
X116586000Y-89975600D03*
X116586000Y-91075600D03*
D13*
X111972000Y-88900000D03*
X113072000Y-88900000D03*
D14*
X117919500Y-89937500D03*
X117919500Y-91037500D03*
D13*
X104047200Y-78130400D03*
X105147200Y-78130400D03*
X129391500Y-82359500D03*
X128291500Y-82359500D03*
D14*
X114198400Y-77986800D03*
X114198400Y-79086800D03*
D23*
X151106000Y-69017000D03*
X148106000Y-69017000D03*
D24*
X151856000Y-70767000D03*
X148856000Y-70767000D03*
X147356000Y-70767000D03*
D21*
X153256000Y-67917000D03*
X145956000Y-67917000D03*
X145956000Y-70117000D03*
X153256000Y-70117000D03*
D25*
X152052000Y-96647000D03*
X146652000Y-96647000D03*
D26*
X101624000Y-81423000D03*
D27*
X101624000Y-81823000D03*
X101624000Y-82223000D03*
X101624000Y-82623000D03*
X101624000Y-83023000D03*
D26*
X101624000Y-83423000D03*
D28*
X102124000Y-83923000D03*
D29*
X102524000Y-83923000D03*
X102924000Y-83923000D03*
X103324000Y-83923000D03*
X103724000Y-83923000D03*
D28*
X104124000Y-83923000D03*
D26*
X104624000Y-83423000D03*
D27*
X104624000Y-83023000D03*
X104624000Y-82623000D03*
X104624000Y-82223000D03*
X104624000Y-81823000D03*
D26*
X104624000Y-81423000D03*
D28*
X104124000Y-80923000D03*
D29*
X103724000Y-80923000D03*
X103324000Y-80923000D03*
X102924000Y-80923000D03*
X102524000Y-80923000D03*
D28*
X102124000Y-80923000D03*
D30*
X119614500Y-86836500D03*
X120114500Y-86836500D03*
X120614500Y-86836500D03*
X121114500Y-86836500D03*
X121614500Y-86836500D03*
X122114500Y-86836500D03*
X122614500Y-86836500D03*
X123114500Y-86836500D03*
X123614500Y-86836500D03*
X124114500Y-86836500D03*
X124614500Y-86836500D03*
X125114500Y-86836500D03*
D31*
X126714500Y-85236500D03*
X126714500Y-84736500D03*
X126714500Y-84236500D03*
X126714500Y-83736500D03*
X126714500Y-83236500D03*
X126714500Y-82736500D03*
X126714500Y-82236500D03*
X126714500Y-81736500D03*
X126714500Y-81236500D03*
X126714500Y-80736500D03*
X126714500Y-80236500D03*
X126714500Y-79736500D03*
D30*
X125114500Y-78136500D03*
X124614500Y-78136500D03*
X124114500Y-78136500D03*
X123614500Y-78136500D03*
X123114500Y-78136500D03*
X122614500Y-78136500D03*
X122114500Y-78136500D03*
X121614500Y-78136500D03*
X121114500Y-78136500D03*
X120614500Y-78136500D03*
X120114500Y-78136500D03*
X119614500Y-78136500D03*
D31*
X118014500Y-79736500D03*
X118014500Y-80236500D03*
X118014500Y-80736500D03*
X118014500Y-81236500D03*
X118014500Y-81736500D03*
X118014500Y-82236500D03*
X118014500Y-82736500D03*
X118014500Y-83236500D03*
X118014500Y-83736500D03*
X118014500Y-84236500D03*
X118014500Y-84736500D03*
X118014500Y-85236500D03*
D10*
G36*
X152719000Y-82361500D02*
X152719000Y-82111500D01*
X153219000Y-82111500D01*
X153219000Y-82361500D01*
X152719000Y-82361500D01*
X152719000Y-82361500D01*
G37*
G36*
X152719000Y-82861500D02*
X152719000Y-82611500D01*
X153219000Y-82611500D01*
X153219000Y-82861500D01*
X152719000Y-82861500D01*
X152719000Y-82861500D01*
G37*
G36*
X152719000Y-83361500D02*
X152719000Y-83111500D01*
X153219000Y-83111500D01*
X153219000Y-83361500D01*
X152719000Y-83361500D01*
X152719000Y-83361500D01*
G37*
G36*
X152719000Y-83861500D02*
X152719000Y-83611500D01*
X153219000Y-83611500D01*
X153219000Y-83861500D01*
X152719000Y-83861500D01*
X152719000Y-83861500D01*
G37*
G36*
X152719000Y-81861500D02*
X152719000Y-81611500D01*
X153219000Y-81611500D01*
X153219000Y-81861500D01*
X152719000Y-81861500D01*
X152719000Y-81861500D01*
G37*
G36*
X152719000Y-81361500D02*
X152719000Y-81111500D01*
X153219000Y-81111500D01*
X153219000Y-81361500D01*
X152719000Y-81361500D01*
X152719000Y-81361500D01*
G37*
G36*
X150819000Y-81361500D02*
X150819000Y-81111500D01*
X151319000Y-81111500D01*
X151319000Y-81361500D01*
X150819000Y-81361500D01*
X150819000Y-81361500D01*
G37*
G36*
X150819000Y-81861500D02*
X150819000Y-81611500D01*
X151319000Y-81611500D01*
X151319000Y-81861500D01*
X150819000Y-81861500D01*
X150819000Y-81861500D01*
G37*
G36*
X150819000Y-82361500D02*
X150819000Y-82111500D01*
X151319000Y-82111500D01*
X151319000Y-82361500D01*
X150819000Y-82361500D01*
X150819000Y-82361500D01*
G37*
G36*
X150819000Y-82861500D02*
X150819000Y-82611500D01*
X151319000Y-82611500D01*
X151319000Y-82861500D01*
X150819000Y-82861500D01*
X150819000Y-82861500D01*
G37*
G36*
X150819000Y-83361500D02*
X150819000Y-83111500D01*
X151319000Y-83111500D01*
X151319000Y-83361500D01*
X150819000Y-83361500D01*
X150819000Y-83361500D01*
G37*
G36*
X150819000Y-83861500D02*
X150819000Y-83611500D01*
X151319000Y-83611500D01*
X151319000Y-83861500D01*
X150819000Y-83861500D01*
X150819000Y-83861500D01*
G37*
G36*
X151669000Y-82836500D02*
X151669000Y-82136500D01*
X152369000Y-82136500D01*
X152369000Y-82836500D01*
X151669000Y-82836500D01*
X151669000Y-82836500D01*
G37*
G36*
X151669000Y-83536500D02*
X151669000Y-82836500D01*
X152369000Y-82836500D01*
X152369000Y-83536500D01*
X151669000Y-83536500D01*
X151669000Y-83536500D01*
G37*
G36*
X151669000Y-82236500D02*
X151669000Y-81536500D01*
X152369000Y-81536500D01*
X152369000Y-82236500D01*
X151669000Y-82236500D01*
X151669000Y-82236500D01*
G37*
D32*
X162782000Y-88986000D03*
X162782000Y-88336000D03*
X162782000Y-87686000D03*
X162782000Y-87036000D03*
D33*
X161757000Y-86011000D03*
X161107000Y-86011000D03*
X160457000Y-86011000D03*
X159807000Y-86011000D03*
D32*
X158782000Y-87036000D03*
X158782000Y-87686000D03*
X158782000Y-88336000D03*
X158782000Y-88986000D03*
D33*
X159807000Y-90011000D03*
X160457000Y-90011000D03*
X161107000Y-90011000D03*
X161757000Y-90011000D03*
D32*
X162782000Y-77937000D03*
X162782000Y-77287000D03*
X162782000Y-76637000D03*
X162782000Y-75987000D03*
D33*
X161757000Y-74962000D03*
X161107000Y-74962000D03*
X160457000Y-74962000D03*
X159807000Y-74962000D03*
D32*
X158782000Y-75987000D03*
X158782000Y-76637000D03*
X158782000Y-77287000D03*
X158782000Y-77937000D03*
D33*
X159807000Y-78962000D03*
X160457000Y-78962000D03*
X161107000Y-78962000D03*
X161757000Y-78962000D03*
D34*
X121602500Y-90551000D03*
X120402500Y-90551000D03*
X122802500Y-90551000D03*
D35*
X119888000Y-70802500D03*
X119888000Y-70040500D03*
X121412000Y-70421500D03*
X109524800Y-71551800D03*
X109524800Y-72313800D03*
X108000800Y-71932800D03*
X109524800Y-92684600D03*
X109524800Y-93446600D03*
X108000800Y-93065600D03*
X114401600Y-94767400D03*
X114401600Y-94005400D03*
X115925600Y-94386400D03*
D36*
X127904240Y-71567000D03*
X127904240Y-73467000D03*
X129903220Y-72517000D03*
X143525240Y-91506000D03*
X143525240Y-93406000D03*
X145524220Y-92456000D03*
M02*
