G04 #@! TF.FileFunction,Soldermask,Top*
%FSLAX46Y46*%
G04 Gerber Fmt 4.6, Leading zero omitted, Abs format (unit mm)*
G04 Created by KiCad (PCBNEW 4.0.0-rc2-stable) date 2016/07/16 8:54:14*
%MOMM*%
G01*
G04 APERTURE LIST*
%ADD10C,0.150000*%
%ADD11R,1.000000X1.250000*%
%ADD12R,0.600000X0.500000*%
%ADD13R,0.500000X0.600000*%
%ADD14R,1.250000X1.000000*%
%ADD15O,1.500000X1.100000*%
%ADD16O,1.100000X1.500000*%
%ADD17R,2.000000X3.900000*%
%ADD18O,1.500000X1.000000*%
%ADD19R,0.800000X1.000000*%
%ADD20R,1.000000X0.800000*%
%ADD21R,0.650000X1.060000*%
%ADD22C,0.900000*%
%ADD23R,0.700000X1.500000*%
%ADD24R,2.000000X1.600000*%
%ADD25R,0.500000X0.200000*%
%ADD26R,0.600000X0.200000*%
%ADD27R,0.200000X0.500000*%
%ADD28R,0.200000X0.600000*%
%ADD29R,0.250000X1.300000*%
%ADD30R,1.300000X0.250000*%
%ADD31R,0.800000X0.350000*%
%ADD32R,0.350000X0.800000*%
%ADD33R,0.400000X2.000000*%
%ADD34R,0.800000X0.500000*%
%ADD35R,0.800100X0.800100*%
G04 APERTURE END LIST*
D10*
D11*
X103394000Y-87731600D03*
X105394000Y-87731600D03*
D12*
X103793200Y-86106000D03*
X104893200Y-86106000D03*
D13*
X105918000Y-81949200D03*
X105918000Y-83049200D03*
X116332000Y-84730500D03*
X116332000Y-85830500D03*
X123634500Y-75543500D03*
X123634500Y-74443500D03*
D14*
X131953000Y-73517000D03*
X131953000Y-71517000D03*
D11*
X143621000Y-89281000D03*
X141621000Y-89281000D03*
D13*
X117983000Y-87545000D03*
X117983000Y-86445000D03*
D14*
X125730000Y-73517000D03*
X125730000Y-71517000D03*
X141732000Y-93456000D03*
X141732000Y-91456000D03*
D11*
X154416000Y-79629000D03*
X152416000Y-79629000D03*
X139684000Y-77216000D03*
X137684000Y-77216000D03*
X140128500Y-88455500D03*
X138128500Y-88455500D03*
D15*
X123761500Y-69405500D03*
X123761500Y-66865500D03*
D16*
X110286800Y-78638400D03*
X107746800Y-78638400D03*
X110286800Y-86360000D03*
X107746800Y-86360000D03*
D11*
X137715500Y-82486500D03*
X135715500Y-82486500D03*
D15*
X123748800Y-95554800D03*
X123748800Y-98094800D03*
D14*
X112522000Y-85715600D03*
X112522000Y-87715600D03*
D11*
X113369600Y-82499200D03*
X111369600Y-82499200D03*
D14*
X112522000Y-77282800D03*
X112522000Y-79282800D03*
D17*
X146493000Y-76791000D03*
X149922000Y-76791000D03*
X149860000Y-88138000D03*
X146558000Y-88138000D03*
D18*
X154051000Y-72079000D03*
X154051000Y-73606000D03*
D15*
X126746000Y-88646000D03*
X126746000Y-89916000D03*
X126746000Y-91186000D03*
X126746000Y-92456000D03*
D16*
X148717000Y-80391000D03*
X147447000Y-80391000D03*
X147447000Y-84582000D03*
X148717000Y-84582000D03*
D19*
X134112000Y-85090000D03*
X136144000Y-85090000D03*
X135128000Y-85090000D03*
X139192000Y-85090000D03*
X138176000Y-85090000D03*
X137160000Y-85090000D03*
X139192000Y-79883000D03*
X137160000Y-79883000D03*
X138176000Y-79883000D03*
X134112000Y-79883000D03*
X135128000Y-79883000D03*
X136144000Y-79883000D03*
D20*
X165989000Y-90551000D03*
X165989000Y-88519000D03*
X165989000Y-89535000D03*
X165989000Y-85471000D03*
X165989000Y-86487000D03*
X165989000Y-87503000D03*
X165989000Y-79502000D03*
X165989000Y-77470000D03*
X165989000Y-78486000D03*
X165989000Y-74422000D03*
X165989000Y-75438000D03*
X165989000Y-76454000D03*
D15*
X126238000Y-69405500D03*
X126238000Y-66865500D03*
D16*
X110286800Y-80975200D03*
X107746800Y-80975200D03*
X110286800Y-84023200D03*
X107746800Y-84023200D03*
D15*
X126238000Y-95554800D03*
X126238000Y-98094800D03*
D21*
X153609000Y-77681000D03*
X154559000Y-77681000D03*
X155509000Y-77681000D03*
X155509000Y-75481000D03*
X153609000Y-75481000D03*
X154559000Y-75481000D03*
D12*
X123994000Y-71501000D03*
X122894000Y-71501000D03*
D13*
X117284500Y-70125500D03*
X117284500Y-71225500D03*
X118364000Y-70125500D03*
X118364000Y-71225500D03*
D12*
X118088500Y-69024500D03*
X116988500Y-69024500D03*
X111819600Y-80975200D03*
X112919600Y-80975200D03*
X111903600Y-70154800D03*
X110803600Y-70154800D03*
D13*
X110998000Y-72330400D03*
X110998000Y-71230400D03*
X110236000Y-77004000D03*
X110236000Y-75904000D03*
D12*
X147786000Y-72390000D03*
X148886000Y-72390000D03*
X111819600Y-84023200D03*
X112919600Y-84023200D03*
X110549600Y-94996000D03*
X111649600Y-94996000D03*
D13*
X110947200Y-93768000D03*
X110947200Y-92668000D03*
D12*
X124298800Y-93878400D03*
X123198800Y-93878400D03*
D13*
X110236000Y-89772400D03*
X110236000Y-90872400D03*
D12*
X112480000Y-92557600D03*
X113580000Y-92557600D03*
D13*
X113030000Y-93836400D03*
X113030000Y-94936400D03*
D12*
X140186500Y-82486500D03*
X139086500Y-82486500D03*
X118202800Y-93726000D03*
X117102800Y-93726000D03*
X122470000Y-74485500D03*
X121370000Y-74485500D03*
D13*
X121348500Y-73321000D03*
X121348500Y-72221000D03*
X119062500Y-89937500D03*
X119062500Y-91037500D03*
X116586000Y-89975600D03*
X116586000Y-91075600D03*
D12*
X111972000Y-88900000D03*
X113072000Y-88900000D03*
D13*
X117919500Y-89937500D03*
X117919500Y-91037500D03*
D12*
X104047200Y-78130400D03*
X105147200Y-78130400D03*
X129391500Y-82359500D03*
X128291500Y-82359500D03*
D13*
X114198400Y-77986800D03*
X114198400Y-79086800D03*
D22*
X151106000Y-69017000D03*
X148106000Y-69017000D03*
D23*
X151856000Y-70767000D03*
X148856000Y-70767000D03*
X147356000Y-70767000D03*
D20*
X153256000Y-67917000D03*
X145956000Y-67917000D03*
X145956000Y-70117000D03*
X153256000Y-70117000D03*
D24*
X152052000Y-96647000D03*
X146652000Y-96647000D03*
D25*
X101624000Y-81423000D03*
D26*
X101624000Y-81823000D03*
X101624000Y-82223000D03*
X101624000Y-82623000D03*
X101624000Y-83023000D03*
D25*
X101624000Y-83423000D03*
D27*
X102124000Y-83923000D03*
D28*
X102524000Y-83923000D03*
X102924000Y-83923000D03*
X103324000Y-83923000D03*
X103724000Y-83923000D03*
D27*
X104124000Y-83923000D03*
D25*
X104624000Y-83423000D03*
D26*
X104624000Y-83023000D03*
X104624000Y-82623000D03*
X104624000Y-82223000D03*
X104624000Y-81823000D03*
D25*
X104624000Y-81423000D03*
D27*
X104124000Y-80923000D03*
D28*
X103724000Y-80923000D03*
X103324000Y-80923000D03*
X102924000Y-80923000D03*
X102524000Y-80923000D03*
D27*
X102124000Y-80923000D03*
D29*
X119614500Y-86836500D03*
X120114500Y-86836500D03*
X120614500Y-86836500D03*
X121114500Y-86836500D03*
X121614500Y-86836500D03*
X122114500Y-86836500D03*
X122614500Y-86836500D03*
X123114500Y-86836500D03*
X123614500Y-86836500D03*
X124114500Y-86836500D03*
X124614500Y-86836500D03*
X125114500Y-86836500D03*
D30*
X126714500Y-85236500D03*
X126714500Y-84736500D03*
X126714500Y-84236500D03*
X126714500Y-83736500D03*
X126714500Y-83236500D03*
X126714500Y-82736500D03*
X126714500Y-82236500D03*
X126714500Y-81736500D03*
X126714500Y-81236500D03*
X126714500Y-80736500D03*
X126714500Y-80236500D03*
X126714500Y-79736500D03*
D29*
X125114500Y-78136500D03*
X124614500Y-78136500D03*
X124114500Y-78136500D03*
X123614500Y-78136500D03*
X123114500Y-78136500D03*
X122614500Y-78136500D03*
X122114500Y-78136500D03*
X121614500Y-78136500D03*
X121114500Y-78136500D03*
X120614500Y-78136500D03*
X120114500Y-78136500D03*
X119614500Y-78136500D03*
D30*
X118014500Y-79736500D03*
X118014500Y-80236500D03*
X118014500Y-80736500D03*
X118014500Y-81236500D03*
X118014500Y-81736500D03*
X118014500Y-82236500D03*
X118014500Y-82736500D03*
X118014500Y-83236500D03*
X118014500Y-83736500D03*
X118014500Y-84236500D03*
X118014500Y-84736500D03*
X118014500Y-85236500D03*
D10*
G36*
X152719000Y-82361500D02*
X152719000Y-82111500D01*
X153219000Y-82111500D01*
X153219000Y-82361500D01*
X152719000Y-82361500D01*
X152719000Y-82361500D01*
G37*
G36*
X152719000Y-82861500D02*
X152719000Y-82611500D01*
X153219000Y-82611500D01*
X153219000Y-82861500D01*
X152719000Y-82861500D01*
X152719000Y-82861500D01*
G37*
G36*
X152719000Y-83361500D02*
X152719000Y-83111500D01*
X153219000Y-83111500D01*
X153219000Y-83361500D01*
X152719000Y-83361500D01*
X152719000Y-83361500D01*
G37*
G36*
X152719000Y-83861500D02*
X152719000Y-83611500D01*
X153219000Y-83611500D01*
X153219000Y-83861500D01*
X152719000Y-83861500D01*
X152719000Y-83861500D01*
G37*
G36*
X152719000Y-81861500D02*
X152719000Y-81611500D01*
X153219000Y-81611500D01*
X153219000Y-81861500D01*
X152719000Y-81861500D01*
X152719000Y-81861500D01*
G37*
G36*
X152719000Y-81361500D02*
X152719000Y-81111500D01*
X153219000Y-81111500D01*
X153219000Y-81361500D01*
X152719000Y-81361500D01*
X152719000Y-81361500D01*
G37*
G36*
X150819000Y-81361500D02*
X150819000Y-81111500D01*
X151319000Y-81111500D01*
X151319000Y-81361500D01*
X150819000Y-81361500D01*
X150819000Y-81361500D01*
G37*
G36*
X150819000Y-81861500D02*
X150819000Y-81611500D01*
X151319000Y-81611500D01*
X151319000Y-81861500D01*
X150819000Y-81861500D01*
X150819000Y-81861500D01*
G37*
G36*
X150819000Y-82361500D02*
X150819000Y-82111500D01*
X151319000Y-82111500D01*
X151319000Y-82361500D01*
X150819000Y-82361500D01*
X150819000Y-82361500D01*
G37*
G36*
X150819000Y-82861500D02*
X150819000Y-82611500D01*
X151319000Y-82611500D01*
X151319000Y-82861500D01*
X150819000Y-82861500D01*
X150819000Y-82861500D01*
G37*
G36*
X150819000Y-83361500D02*
X150819000Y-83111500D01*
X151319000Y-83111500D01*
X151319000Y-83361500D01*
X150819000Y-83361500D01*
X150819000Y-83361500D01*
G37*
G36*
X150819000Y-83861500D02*
X150819000Y-83611500D01*
X151319000Y-83611500D01*
X151319000Y-83861500D01*
X150819000Y-83861500D01*
X150819000Y-83861500D01*
G37*
G36*
X151669000Y-82836500D02*
X151669000Y-82136500D01*
X152369000Y-82136500D01*
X152369000Y-82836500D01*
X151669000Y-82836500D01*
X151669000Y-82836500D01*
G37*
G36*
X151669000Y-83536500D02*
X151669000Y-82836500D01*
X152369000Y-82836500D01*
X152369000Y-83536500D01*
X151669000Y-83536500D01*
X151669000Y-83536500D01*
G37*
G36*
X151669000Y-82236500D02*
X151669000Y-81536500D01*
X152369000Y-81536500D01*
X152369000Y-82236500D01*
X151669000Y-82236500D01*
X151669000Y-82236500D01*
G37*
D31*
X162782000Y-88986000D03*
X162782000Y-88336000D03*
X162782000Y-87686000D03*
X162782000Y-87036000D03*
D32*
X161757000Y-86011000D03*
X161107000Y-86011000D03*
X160457000Y-86011000D03*
X159807000Y-86011000D03*
D31*
X158782000Y-87036000D03*
X158782000Y-87686000D03*
X158782000Y-88336000D03*
X158782000Y-88986000D03*
D32*
X159807000Y-90011000D03*
X160457000Y-90011000D03*
X161107000Y-90011000D03*
X161757000Y-90011000D03*
D31*
X162782000Y-77937000D03*
X162782000Y-77287000D03*
X162782000Y-76637000D03*
X162782000Y-75987000D03*
D32*
X161757000Y-74962000D03*
X161107000Y-74962000D03*
X160457000Y-74962000D03*
X159807000Y-74962000D03*
D31*
X158782000Y-75987000D03*
X158782000Y-76637000D03*
X158782000Y-77287000D03*
X158782000Y-77937000D03*
D32*
X159807000Y-78962000D03*
X160457000Y-78962000D03*
X161107000Y-78962000D03*
X161757000Y-78962000D03*
D33*
X121602500Y-90551000D03*
X120402500Y-90551000D03*
X122802500Y-90551000D03*
D34*
X119888000Y-70802500D03*
X119888000Y-70040500D03*
X121412000Y-70421500D03*
X109524800Y-71551800D03*
X109524800Y-72313800D03*
X108000800Y-71932800D03*
X109524800Y-92684600D03*
X109524800Y-93446600D03*
X108000800Y-93065600D03*
X114401600Y-94767400D03*
X114401600Y-94005400D03*
X115925600Y-94386400D03*
D35*
X127904240Y-71567000D03*
X127904240Y-73467000D03*
X129903220Y-72517000D03*
X143525240Y-91506000D03*
X143525240Y-93406000D03*
X145524220Y-92456000D03*
M02*
