M48
;DRILL file {KiCad 4.0.0-rc2-stable} date 2016/07/16 8:54:31
;FORMAT={3:3/ absolute / metric / suppress trailing zeros}
FMAT,2
METRIC,LZ
T1C0.300
T2C0.635
T3C0.700
T4C0.813
%
G90
G05
M71
T1
X152019Y-081887
X152019Y-082487
X152019Y-083187
T2
X101092Y-084379
X101143Y-080112
X102921Y-08509
X104546Y-076911
X105308Y-079197
X10541Y-075286
X105766Y-089306
X105918Y-073304
X105918Y-080874
X107086Y-088138
X107747Y-072949
X108966Y-077165
X109017Y-075895
X110642Y-087935
X111404Y-090322
X111455Y-075997
X112116Y-072898
X112268Y-071272
X112624Y-089916
X113335Y-075895
X113995Y-083769
X114097Y-06919
X114249Y-081026
X114402Y-095809
X114605Y-092304
X115011Y-082499
X115316Y-079553
X11557Y-072085
X115773Y-069088
X116129Y-087122
X116129Y-088798
X116129Y-096317
X116332Y-07305
X116586Y-078105
X116776Y-074676
X117246Y-09525
X117285Y-072327
X117551Y-088798
X117602Y-07874
X118491Y-072327
X118491Y-078042
X118974Y-067208
X118974Y-088798
X119761Y-080772
X119761Y-083185
X119761Y-085217
X120015Y-0722
X120078Y-079629
X120142Y-074676
X12131Y-096876
X121818Y-093878
X121984Y-069533
X122047Y-067183
X122276Y-080772
X122555Y-073469
X122631Y-085141
X124409Y-090322
X124765Y-084277
X125032Y-081724
X12512Y-088443
X125158Y-080328
X125222Y-085293
X126301Y-076962
X127318Y-078232
X127698Y-076708
X128651Y-080391
X12893Y-091592
X130048Y-091592
X130175Y-077914
X130175Y-078994
X131826Y-077914
X131826Y-079883
X131826Y-081026
X132715Y-08509
X132715Y-08636
X132969Y-07728
X132969Y-08109
X134112Y-071501
X134112Y-082487
X134176Y-091758
X134302Y-073533
X135064Y-076454
X135509Y-071501
X136144Y-076073
X136334Y-091758
X137477Y-091631
X137566Y-071476
X138684Y-071476
X138684Y-091504
X1397Y-075692
X139903Y-071476
X14097Y-086487
X141288Y-080582
X14205Y-078613
X142494Y-087567
X142939Y-076644
X142951Y-07554
X144018Y-084836
X145161Y-084836
X146177Y-094551
X146431Y-07239
X147511Y-092456
X147511Y-093599
X15113Y-084773
X151765Y-066929
X151892Y-08998
X151892Y-091123
X151892Y-093282
X152349Y-084785
X152349Y-086055
X154178Y-095631
X154635Y-081178
X155702Y-081153
X155702Y-082194
X155956Y-079248
X158801Y-073965
X158801Y-08509
X16449Y-079502
X164541Y-090526
T3
X107747Y-078638
X107747Y-080975
X107747Y-084023
X107747Y-08636
X110287Y-078638
X110287Y-080975
X110287Y-084023
X110287Y-08636
X123749Y-095555
X123749Y-098095
X123762Y-066866
X123762Y-069406
X126238Y-066866
X126238Y-069406
X126238Y-095555
X126238Y-098095
X126746Y-088646
X126746Y-089916
X126746Y-091186
X126746Y-092456
X147447Y-080391
X147447Y-084582
X148717Y-080391
X148717Y-084582
T4
X154051Y-072079
X154051Y-073606
T0
M30
